<svg width="421" height="514" viewBox="0 0 421 514" fill="none" xmlns="http://www.w3.org/2000/svg">
<path d="M44.5703 423.12C44.0327 423.125 43.4996 423.021 43.0031 422.815C42.5065 422.608 42.0566 422.304 41.6803 421.92C41.0017 421.247 40.5867 420.353 40.5104 419.4C39.5559 419.33 38.6599 418.914 37.9904 418.23C37.3139 417.56 36.899 416.67 36.8203 415.72C35.8654 415.649 34.9679 415.237 34.2908 414.56C33.6137 413.883 33.2019 412.985 33.1304 412.03C32.1811 411.952 31.291 411.537 30.6204 410.86C30.2422 410.498 29.9403 410.063 29.7325 409.582C29.5248 409.102 29.4152 408.584 29.4103 408.06C29.3974 407.504 29.4981 406.951 29.7062 406.436C29.9142 405.92 30.2253 405.452 30.6204 405.06L34.8103 400.94C35.1693 400.561 35.602 400.259 36.0817 400.053C36.5614 399.846 37.0781 399.74 37.6003 399.74C40.7158 400.053 41.0903 403.141 43.0903 404.141C44.5903 404.641 44.8791 406.359 45.554 407.034C46.2288 407.709 46.5803 407.96 47.4731 408.591C48.1536 409.072 48.4132 410.057 49.0903 410.734C49.5801 411.223 50.4904 411.36 51.6104 412C52.0062 412.39 52.3165 412.858 52.5214 413.375C52.7262 413.891 52.8212 414.445 52.8003 415C52.7906 415.531 52.6721 416.055 52.4519 416.538C52.2317 417.021 51.9146 417.454 51.5203 417.81L47.4203 421.91C47.0587 422.289 46.6243 422.59 46.1431 422.797C45.6619 423.003 45.1439 423.109 44.6204 423.11L44.5703 423.12ZM41.2703 417.89C41.3765 417.889 41.4816 417.911 41.5786 417.954C41.6756 417.998 41.7622 418.061 41.8324 418.141C41.9026 418.221 41.9548 418.315 41.9855 418.416C42.0162 418.518 42.0247 418.625 42.0104 418.73C41.9578 419.118 41.9963 419.512 42.123 419.882C42.2498 420.251 42.4612 420.587 42.7404 420.86C42.9851 421.103 43.2754 421.295 43.5946 421.426C43.9138 421.556 44.2556 421.622 44.6003 421.62C44.928 421.623 45.2527 421.558 45.554 421.429C45.8552 421.3 46.1263 421.109 46.3503 420.87L50.4904 416.74C50.7393 416.518 50.9397 416.248 51.0791 415.945C51.2185 415.642 51.2938 415.314 51.3003 414.98C51.3088 414.634 51.2467 414.29 51.1178 413.968C50.9889 413.647 50.7958 413.355 50.5503 413.11C50.2757 412.833 49.9402 412.623 49.5704 412.498C49.2007 412.373 48.8069 412.336 48.4203 412.39C48.3073 412.403 48.1928 412.39 48.0854 412.353C47.9781 412.315 47.8808 412.253 47.8008 412.172C47.7208 412.091 47.8372 412.461 47.8008 412.353C47.9777 412.639 47.7288 411.998 47.7432 411.886C47.7921 411.5 47.5991 410.772 47.4731 410.404C47.3472 410.036 47.1387 409.702 46.8636 409.427C46.5886 409.152 46.2543 408.943 45.8862 408.817C45.5182 408.691 45.1263 408.651 44.7404 408.7C44.6262 408.717 44.5096 408.707 44.4 408.671C44.2904 408.634 44.1908 408.573 44.1091 408.491C44.0275 408.41 43.9661 408.31 43.9298 408.201C43.8935 408.091 43.8834 407.974 43.9003 407.86C43.9491 407.474 43.909 407.082 43.7831 406.714C43.6571 406.346 43.4486 406.012 43.1736 405.737C42.8985 405.462 42.5642 405.253 42.1962 405.127C41.8281 405.001 41.4362 404.961 41.0503 405.01C40.9378 405.025 40.8233 405.014 40.7158 404.978C40.6083 404.941 40.5106 404.88 40.4303 404.8C40.347 404.722 40.2836 404.625 40.2454 404.517C40.2071 404.409 40.1951 404.294 40.2103 404.18C40.265 403.794 40.2283 403.4 40.1033 403.03C39.9782 402.66 39.7684 402.324 39.4904 402.05C39.2509 401.797 38.9601 401.599 38.6376 401.468C38.315 401.337 37.9682 401.276 37.6204 401.29C37.2946 401.291 36.9724 401.357 36.6732 401.486C36.3741 401.615 36.1043 401.804 35.8804 402.04L31.6703 406.18C31.4266 406.424 31.2339 406.715 31.1034 407.034C30.9729 407.353 30.9072 407.695 30.9103 408.04C30.9185 408.399 31.0022 408.753 31.1559 409.077C31.3096 409.402 31.5299 409.691 31.8025 409.924C32.0751 410.158 32.3938 410.332 32.738 410.435C33.0822 410.538 33.4441 410.567 33.8003 410.52C33.9141 410.505 34.0298 410.517 34.1384 410.554C34.247 410.591 34.3457 410.653 34.4269 410.734C34.508 410.815 34.5694 410.914 34.6064 411.022C34.6435 411.131 34.6551 411.246 34.6404 411.36C34.5895 411.747 34.6281 412.139 34.7533 412.508C34.8785 412.877 35.087 413.213 35.3625 413.488C35.6381 413.764 35.9732 413.972 36.3422 414.097C36.7111 414.222 37.1041 414.261 37.4904 414.21C37.6042 414.195 37.7198 414.207 37.8284 414.244C37.937 414.281 38.0357 414.343 38.1168 414.424C38.198 414.505 38.2594 414.604 38.2964 414.712C38.3334 414.821 38.345 414.936 38.3303 415.05C38.2757 415.435 38.3124 415.828 38.4375 416.196C38.5626 416.564 38.7724 416.898 39.0503 417.17C39.3244 417.449 39.6596 417.66 40.0293 417.786C40.399 417.913 40.793 417.952 41.1803 417.9L41.2703 417.89Z" fill="#3B7CFF"/>
<path d="M32.5803 404.96C32.3847 404.958 32.1977 404.879 32.0603 404.74L21.9303 394.68C21.7898 394.539 21.7109 394.349 21.7109 394.15C21.7109 393.951 21.7898 393.761 21.9303 393.62L33.1703 382.19C33.3109 382.05 33.5016 381.971 33.7003 381.971C33.8991 381.971 34.0897 382.05 34.2303 382.19L37.3303 385.19H45.5803C46.7089 385.233 47.8102 385.549 48.7903 386.11C48.9483 386.216 49.0607 386.378 49.1051 386.563C49.1495 386.748 49.1228 386.944 49.0303 387.11C48.9256 387.27 48.7637 387.384 48.5779 387.428C48.392 387.473 48.1962 387.445 48.0303 387.35C47.2758 386.92 46.4282 386.68 45.5603 386.65H37.0503C36.8565 386.649 36.6705 386.574 36.5303 386.44L33.7504 383.71L23.5503 394.08L33.1404 403.62C33.2808 403.761 33.3596 403.951 33.3596 404.15C33.3596 404.349 33.2808 404.539 33.1404 404.68C33.071 404.762 32.9856 404.83 32.8893 404.878C32.793 404.926 32.6878 404.954 32.5803 404.96Z" fill="#3B7CFF"/>
<path d="M51.9902 423.031H51.9402C51.4212 423.031 50.9074 422.927 50.4297 422.724C49.9519 422.522 49.52 422.224 49.1601 421.851L47.6601 420.591C47.5076 420.458 47.4141 420.27 47.4 420.069C47.3859 419.867 47.4526 419.668 47.5852 419.516C47.7178 419.363 47.9055 419.269 48.1071 419.255C48.3087 419.241 48.5076 419.308 48.6601 419.441L50.2302 420.751C50.4553 420.996 50.7289 421.192 51.0335 421.326C51.3382 421.46 51.6673 421.53 52.0002 421.531C52.7445 421.538 53.4623 421.255 54.0002 420.741C54.2846 420.456 54.5028 420.112 54.6394 419.734C54.7759 419.355 54.8273 418.951 54.7901 418.551C54.7733 418.436 54.7834 418.32 54.8197 418.21C54.8559 418.101 54.9174 418.001 54.999 417.919C55.0806 417.838 55.1802 417.776 55.2898 417.74C55.3994 417.704 55.516 417.694 55.6302 417.711C56.0309 417.748 56.435 417.697 56.8136 417.561C57.1922 417.424 57.5359 417.206 57.8202 416.921C58.1057 416.637 58.324 416.293 58.459 415.914C58.5939 415.535 58.6422 415.131 58.6002 414.731C58.5851 414.617 58.5965 414.502 58.6335 414.393C58.6705 414.285 58.7322 414.187 58.8136 414.106C58.895 414.026 58.9939 413.966 59.1026 413.93C59.2114 413.894 59.3269 413.884 59.4402 413.901C59.8409 413.938 60.245 413.887 60.6236 413.751C61.0022 413.614 61.346 413.396 61.6302 413.111C61.9157 412.827 62.134 412.483 62.269 412.104C62.404 411.725 62.4522 411.321 62.4101 410.921C62.3949 410.807 62.4069 410.692 62.4452 410.584C62.4834 410.476 62.5469 410.379 62.6302 410.301C62.7105 410.22 62.8082 410.16 62.9157 410.123C63.0232 410.087 63.1377 410.076 63.2502 410.091C63.651 410.129 64.0552 410.078 64.4339 409.942C64.8126 409.805 65.1563 409.586 65.4402 409.301C65.9349 408.818 66.2188 408.159 66.2301 407.468C66.2413 406.777 65.979 406.109 65.5002 405.611L64.8802 404.991L52.3502 392.451C51.7702 393.011 50.7602 393.991 49.5802 395.181C47.8002 396.981 45.9602 397.821 44.1102 397.671C43.2525 397.561 42.4252 397.282 41.6766 396.849C40.928 396.417 40.2732 395.839 39.7502 395.151C39.6389 395.002 39.5865 394.818 39.6031 394.633C39.6197 394.449 39.7042 394.277 39.8402 394.151C41.9102 392.151 43.9602 390.051 45.6202 388.381C46.3002 387.691 46.9202 387.061 47.4502 386.541C48.3116 385.703 49.4688 385.24 50.6701 385.251H60.3302L63.6801 382.251C63.8176 382.128 63.9957 382.06 64.1801 382.06C64.3646 382.06 64.5426 382.128 64.6801 382.251L76.1102 393.561C76.2502 393.702 76.3322 393.891 76.3402 394.091C76.3405 394.292 76.2615 394.486 76.1202 394.631L66.3402 404.411L66.4301 404.501C67.1923 405.279 67.6141 406.329 67.6029 407.418C67.5916 408.507 67.1483 409.548 66.3702 410.311C66.0902 410.641 64.4789 410.84 63.7843 411.535C63.0897 412.229 63.3195 413.28 62.5601 414.121C61.8008 414.961 60.6688 414.65 59.9742 415.345C59.2796 416.039 59.2844 417.37 58.7502 417.931C58.3068 418.396 56.8554 418.464 56.1593 419.16C55.4631 419.856 55.5902 420.641 54.9301 421.751C54.1543 422.544 53.0995 423.003 51.9902 423.031ZM52.2701 390.651C52.3686 390.65 52.4663 390.669 52.5573 390.707C52.6484 390.745 52.7309 390.8 52.8001 390.871L65.3302 403.401L74.5702 394.151L64.1801 383.871L61.1801 386.581C61.0435 386.705 60.8648 386.773 60.6801 386.771H50.6202C49.8175 386.764 49.0435 387.069 48.4602 387.621L46.6402 389.461C45.1102 391.001 43.2502 392.871 41.3402 394.751C42.094 395.545 43.1023 396.051 44.1902 396.181C45.5802 396.281 47.0102 395.591 48.4602 394.121C50.3502 392.241 51.7901 390.861 51.7901 390.861C51.9186 390.734 52.0896 390.659 52.2701 390.651Z" fill="#3B7CFF"/>
<path d="M34.4003 383.561L30.5203 379.681L19.0303 391.161L22.9203 395.051L34.4003 383.561Z" fill="#76EEE3"/>
<path d="M22.92 395.801C22.8213 395.804 22.7231 395.785 22.6318 395.747C22.5406 395.709 22.4583 395.653 22.3901 395.581L18.5001 391.691C18.3597 391.551 18.2808 391.36 18.2808 391.161C18.2808 390.963 18.3597 390.772 18.5001 390.631L29.9901 379.151C30.0591 379.081 30.1414 379.024 30.2324 378.986C30.3234 378.948 30.4212 378.928 30.52 378.928C30.6188 378.928 30.7167 378.948 30.8077 378.986C30.8988 379.024 30.9811 379.081 31.05 379.151L34.9301 383.031C35.0008 383.1 35.0571 383.183 35.0955 383.274C35.1339 383.365 35.1537 383.463 35.1537 383.561C35.1537 383.66 35.1339 383.758 35.0955 383.849C35.0571 383.94 35.0008 384.022 34.9301 384.091L23.4501 395.581C23.3808 395.651 23.2983 395.707 23.2073 395.745C23.1163 395.783 23.0186 395.802 22.92 395.801ZM20.0901 391.161L22.92 393.991L33.3301 383.561L30.5101 380.741L20.0901 391.161Z" fill="#3B7CFF"/>
<path d="M67.2504 379.801L63.3604 383.691L74.6703 395.001L78.5603 391.121L67.2504 379.801Z" fill="#76EEE3"/>
<path d="M74.6702 395.711C74.5716 395.712 74.4741 395.692 74.3831 395.655C74.292 395.617 74.2095 395.561 74.1403 395.491L62.8302 384.181C62.6897 384.04 62.6108 383.85 62.6108 383.651C62.6108 383.452 62.6897 383.262 62.8302 383.121L66.7202 379.231C66.8608 379.091 67.0515 379.012 67.2502 379.012C67.449 379.012 67.6395 379.091 67.7802 379.231L79.0902 390.551C79.2309 390.692 79.31 390.882 79.3102 391.081C79.3079 391.28 79.2291 391.469 79.0902 391.611L75.2002 395.491C75.131 395.561 75.0484 395.617 74.9574 395.655C74.8664 395.692 74.7687 395.712 74.6702 395.711ZM64.4202 383.651L74.6702 393.901L77.5002 391.081L67.2502 380.801L64.4202 383.651Z" fill="#3B7CFF"/>
<path d="M38.4562 407.124C38.3868 407.125 38.3181 407.111 38.2544 407.083C38.1907 407.056 38.1334 407.015 38.0862 406.964C37.9939 406.869 37.9424 406.742 37.9424 406.609C37.9424 406.477 37.9939 406.35 38.0862 406.254L40.7761 403.784C40.8713 403.692 40.9987 403.641 41.1312 403.641C41.2638 403.641 41.3911 403.692 41.4862 403.784C41.5331 403.831 41.5702 403.886 41.5956 403.947C41.621 404.008 41.634 404.073 41.634 404.139C41.634 404.205 41.621 404.271 41.5956 404.332C41.5702 404.393 41.5331 404.448 41.4862 404.494L38.7961 406.964C38.7079 407.06 38.586 407.117 38.4562 407.124Z" fill="#3B7CFF"/>
<path d="M45.6038 415.128C45.4644 415.125 45.3318 415.068 45.2338 414.969C45.1415 414.873 45.0898 414.746 45.0898 414.614C45.0898 414.481 45.1415 414.354 45.2338 414.258L47.9237 411.789C47.9702 411.742 48.0255 411.704 48.0864 411.679C48.1474 411.654 48.2127 411.641 48.2787 411.641C48.3447 411.641 48.4101 411.654 48.4711 411.679C48.532 411.704 48.5873 411.742 48.6338 411.789C48.6804 411.834 48.7173 411.889 48.7426 411.949C48.7678 412.009 48.7808 412.073 48.7808 412.138C48.7808 412.204 48.7678 412.268 48.7426 412.328C48.7173 412.388 48.6804 412.443 48.6338 412.489L45.9437 414.969C45.8527 415.06 45.7324 415.117 45.6038 415.128Z" fill="#3B7CFF"/>
<path d="M41.9603 410.921C41.8908 410.922 41.8218 410.908 41.7581 410.881C41.6943 410.853 41.6371 410.812 41.5903 410.761C41.5435 410.714 41.5062 410.659 41.4808 410.598C41.4555 410.537 41.4424 410.472 41.4424 410.406C41.4424 410.34 41.4555 410.274 41.4808 410.213C41.5062 410.153 41.5435 410.097 41.5903 410.051L44.2803 407.581C44.3289 407.536 44.3858 407.501 44.4478 407.479C44.5097 407.456 44.5755 407.446 44.6415 407.449C44.7074 407.451 44.7722 407.467 44.832 407.495C44.8919 407.523 44.9457 407.562 44.9904 407.611C45.035 407.659 45.0696 407.716 45.0923 407.778C45.1149 407.84 45.1251 407.906 45.1223 407.972C45.1195 408.038 45.1039 408.103 45.076 408.162C45.0482 408.222 45.0089 408.276 44.9603 408.321L42.3303 410.801C42.2812 410.847 42.2225 410.881 42.1586 410.902C42.0946 410.922 42.027 410.929 41.9603 410.921Z" fill="#3B7CFF"/>
<path d="M63.0802 411.331C62.9593 411.332 62.8421 411.289 62.7502 411.211L59.1302 408.091C59.038 407.995 58.9863 407.868 58.9863 407.736C58.9863 407.603 59.038 407.476 59.1302 407.381C59.2187 407.281 59.3424 407.221 59.475 407.211C59.6076 407.202 59.7387 407.245 59.8402 407.331L63.4502 410.451C63.5424 410.546 63.594 410.673 63.594 410.806C63.594 410.938 63.5424 411.065 63.4502 411.161C63.4048 411.214 63.3481 411.257 63.2842 411.287C63.2202 411.316 63.1506 411.331 63.0802 411.331Z" fill="#3B7CFF"/>
<path d="M59.46 415.19C59.3378 415.189 59.2204 415.143 59.13 415.06L55.9299 412.3C55.8377 412.205 55.7861 412.078 55.7861 411.945C55.7861 411.813 55.8377 411.686 55.9299 411.59C55.9756 411.544 56.03 411.507 56.0901 411.482C56.1502 411.456 56.2147 411.443 56.2799 411.443C56.3451 411.443 56.4096 411.456 56.4697 411.482C56.5298 411.507 56.5844 411.544 56.63 411.59L59.84 414.36C59.918 414.427 59.9735 414.516 59.9991 414.616C60.0248 414.715 60.0192 414.82 59.9832 414.916C59.9471 415.012 59.8824 415.095 59.7977 415.153C59.7131 415.211 59.6127 415.241 59.51 415.24L59.46 415.19Z" fill="#3B7CFF"/>
<path d="M55.3999 418.97C55.2774 418.971 55.1593 418.924 55.07 418.84L52.73 416.84C52.6801 416.797 52.6392 416.744 52.6096 416.685C52.5801 416.626 52.5625 416.562 52.5579 416.496C52.5532 416.43 52.5617 416.364 52.5827 416.301C52.6036 416.238 52.6366 416.18 52.6799 416.13C52.7233 416.08 52.7761 416.04 52.8352 416.01C52.8944 415.981 52.9587 415.963 53.0247 415.958C53.0906 415.954 53.1567 415.962 53.2194 415.983C53.2821 416.004 53.3401 416.037 53.39 416.08L55.73 418.08C55.8216 418.174 55.8729 418.299 55.8729 418.43C55.8729 418.561 55.8216 418.687 55.73 418.78C55.6905 418.832 55.6408 418.876 55.5841 418.909C55.5274 418.941 55.4648 418.962 55.3999 418.97Z" fill="#3B7CFF"/>
<path d="M275.99 376.621H268.25V403.731H275.99V376.621Z" fill="#76EEE3"/>
<path d="M276.48 404.231H267.74V376.131H276.48V404.231ZM268.74 403.231H275.48V377.131H268.74V403.231Z" fill="#3B7CFF"/>
<path d="M276.33 404.11H267.84V376.25H276.33V404.11ZM268.59 403.36H275.59V377H268.59V403.36Z" fill="#3B7CFF"/>
<path d="M295.34 365.011H287.6V403.731H295.34V365.011Z" fill="#76EEE3"/>
<path d="M295.84 404.231H287.1V364.511H295.84V404.231ZM288.1 403.231H294.84V365.511H288.1V403.231Z" fill="#3B7CFF"/>
<path d="M295.71 404.111H287.22V364.631H295.71V404.111ZM287.97 403.361H294.97V365.361H287.97V403.361Z" fill="#3B7CFF"/>
<path d="M314.71 390.441H306.97V403.731H314.71V390.441Z" fill="#76EEE3"/>
<path d="M315.21 404.231H306.47V389.951H315.21V404.231ZM307.47 403.231H314.21V390.951H307.47V403.231Z" fill="#3B7CFF"/>
<path d="M315.08 404.111H306.59V390.111H315.08V404.111ZM307.34 403.361H314.34V390.801H307.34V403.361Z" fill="#3B7CFF"/>
<path d="M334.06 372.74H326.32V403.72H334.06V372.74Z" fill="#76EEE3"/>
<path d="M334.56 404.23H325.82V372.23H334.56V404.23ZM326.82 403.23H333.56V373.23H326.82V403.23Z" fill="#3B7CFF"/>
<path d="M334.43 404.111H325.95V372.371H334.43V404.111ZM326.7 403.361H333.7V373.121H326.7V403.361Z" fill="#3B7CFF"/>
<path d="M330.46 389.851C326.86 389.851 323.342 388.784 320.349 386.784C317.356 384.784 315.023 381.942 313.646 378.616C312.268 375.29 311.908 371.631 312.61 368.101C313.312 364.57 315.046 361.327 317.591 358.782C320.136 356.237 323.379 354.503 326.91 353.801C330.44 353.099 334.099 353.459 337.425 354.837C340.751 356.214 343.593 358.547 345.593 361.54C347.593 364.533 348.66 368.052 348.66 371.651C348.658 376.477 346.739 381.105 343.327 384.518C339.914 387.93 335.286 389.849 330.46 389.851ZM330.46 354.461C327.058 354.461 323.732 355.47 320.903 357.361C318.075 359.251 315.87 361.938 314.568 365.081C313.267 368.225 312.927 371.684 313.591 375.02C314.256 378.357 315.895 381.422 318.301 383.827C320.708 386.232 323.774 387.869 327.111 388.532C330.448 389.194 333.906 388.852 337.049 387.549C340.192 386.246 342.877 384.04 344.766 381.21C346.655 378.38 347.662 375.053 347.66 371.651C347.655 367.092 345.841 362.721 342.616 359.498C339.391 356.275 335.019 354.464 330.46 354.461Z" fill="#3B7CFF"/>
<path d="M339.54 368.771H320.96V389.57H339.54V368.771Z" fill="#76EEE3"/>
<path d="M340.04 390.081H320.46V368.271H340.04V390.081ZM321.46 389.081H339.04V369.271H321.46V389.081Z" fill="#3B7CFF"/>
<path d="M339.91 389.95H320.58V368.4H339.91V389.95ZM321.33 389.2H339.16V369.2H321.33V389.2Z" fill="#3B7CFF"/>
<path d="M352.6 404.23H257.01V403.23H352.6V404.23ZM352.25 395.47L342.25 385.47C338.635 388.522 333.965 390.028 329.249 389.663C324.533 389.298 320.15 387.091 317.048 383.52C313.946 379.949 312.375 375.3 312.674 370.579C312.973 365.858 315.118 361.445 318.646 358.293C322.173 355.142 326.8 353.506 331.525 353.739C336.249 353.972 340.692 356.055 343.893 359.539C347.093 363.022 348.794 367.625 348.626 372.353C348.459 377.08 346.438 381.552 343 384.8L352.94 394.74L352.25 395.47ZM330.46 354.47C327.057 354.47 323.732 355.479 320.903 357.37C318.074 359.26 315.87 361.947 314.568 365.09C313.267 368.234 312.927 371.693 313.591 375.03C314.256 378.366 315.895 381.431 318.301 383.836C320.707 386.241 323.773 387.878 327.11 388.541C330.447 389.204 333.906 388.861 337.049 387.558C340.192 386.255 342.877 384.049 344.766 381.219C346.655 378.389 347.662 375.063 347.66 371.66C347.657 367.099 345.844 362.726 342.619 359.501C339.394 356.276 335.021 354.463 330.46 354.46V354.47Z" fill="#3B7CFF"/>
<path d="M329.81 477.331H268.4C268.311 477.342 268.221 477.334 268.135 477.308C268.05 477.281 267.971 477.237 267.904 477.178C267.837 477.119 267.783 477.046 267.747 476.965C267.71 476.883 267.691 476.795 267.691 476.706C267.691 476.616 267.71 476.528 267.747 476.446C267.783 476.365 267.837 476.292 267.904 476.233C267.971 476.174 268.05 476.13 268.135 476.103C268.221 476.077 268.311 476.069 268.4 476.081H329.81C329.962 476.1 330.102 476.174 330.203 476.289C330.305 476.404 330.361 476.552 330.361 476.706C330.361 476.859 330.305 477.007 330.203 477.122C330.102 477.237 329.962 477.311 329.81 477.331ZM116.12 477.331H59.0598C58.9711 477.342 58.881 477.334 58.7955 477.308C58.7101 477.281 58.6312 477.237 58.5641 477.178C58.497 477.119 58.4433 477.046 58.4065 476.965C58.3697 476.883 58.3506 476.795 58.3506 476.706C58.3506 476.616 58.3697 476.528 58.4065 476.446C58.4433 476.365 58.497 476.292 58.5641 476.233C58.6312 476.174 58.7101 476.13 58.7955 476.103C58.881 476.077 58.9711 476.069 59.0598 476.081H116.12C116.209 476.069 116.299 476.077 116.384 476.103C116.47 476.13 116.549 476.174 116.616 476.233C116.683 476.292 116.736 476.365 116.773 476.446C116.81 476.528 116.829 476.616 116.829 476.706C116.829 476.795 116.81 476.883 116.773 476.965C116.736 477.046 116.683 477.119 116.616 477.178C116.549 477.237 116.47 477.281 116.384 477.308C116.299 477.334 116.209 477.342 116.12 477.331ZM321.45 467.011C314.78 467.011 311.45 459.211 311.45 443.811C311.469 443.658 311.543 443.519 311.658 443.417C311.773 443.316 311.922 443.26 312.075 443.26C312.228 443.26 312.376 443.316 312.491 443.417C312.607 443.519 312.681 443.658 312.7 443.811C312.7 453.811 314.22 465.811 321.5 465.811C321.588 465.799 321.679 465.807 321.764 465.833C321.85 465.86 321.929 465.904 321.996 465.963C322.063 466.022 322.117 466.095 322.153 466.176C322.19 466.258 322.209 466.346 322.209 466.436C322.209 466.525 322.19 466.613 322.153 466.695C322.117 466.776 322.063 466.849 321.996 466.908C321.929 466.967 321.85 467.011 321.764 467.038C321.679 467.064 321.588 467.072 321.5 467.061L321.45 467.011ZM281.61 467.011C281.521 467.022 281.431 467.014 281.345 466.988C281.26 466.961 281.181 466.917 281.114 466.858C281.047 466.799 280.993 466.726 280.957 466.645C280.92 466.563 280.901 466.475 280.901 466.386C280.901 466.296 280.92 466.208 280.957 466.126C280.993 466.045 281.047 465.972 281.114 465.913C281.181 465.854 281.26 465.81 281.345 465.783C281.431 465.757 281.521 465.749 281.61 465.761C287.13 465.761 290.42 457.561 290.42 443.761C290.423 443.595 290.49 443.438 290.608 443.322C290.726 443.206 290.884 443.141 291.05 443.141C291.214 443.141 291.372 443.206 291.488 443.322C291.605 443.438 291.67 443.596 291.67 443.761C291.67 458.551 288.01 467.011 281.61 467.011ZM370.12 437.011H232.94C230.689 437.008 228.531 436.113 226.939 434.521C225.348 432.929 224.453 430.771 224.45 428.521V343.801C224.453 341.55 225.348 339.392 226.939 337.8C228.531 336.208 230.689 335.313 232.94 335.311H370.12C372.371 335.313 374.529 336.208 376.12 337.8C377.712 339.392 378.607 341.55 378.61 343.801V418.291C378.678 418.348 378.734 418.42 378.771 418.501C378.809 418.583 378.829 418.671 378.83 418.761C378.828 418.851 378.808 418.941 378.77 419.023C378.732 419.106 378.678 419.18 378.61 419.241V428.551C378.611 429.667 378.393 430.772 377.967 431.804C377.541 432.836 376.916 433.774 376.127 434.564C375.339 435.354 374.403 435.981 373.372 436.41C372.341 436.838 371.236 437.059 370.12 437.061V437.011ZM225.71 419.361V428.521C225.71 430.439 226.471 432.279 227.827 433.636C229.183 434.994 231.022 435.758 232.94 435.761H370.12C372.039 435.758 373.879 434.994 375.236 433.637C376.594 432.28 377.357 430.44 377.36 428.521V419.361H225.71ZM225.71 418.111H377.33V343.801C377.327 341.881 376.563 340.041 375.206 338.684C373.849 337.327 372.009 336.563 370.09 336.561H232.94C231.022 336.563 229.183 337.327 227.827 338.685C226.471 340.042 225.71 341.882 225.71 343.801V418.111ZM301.54 430.591C300.897 430.592 300.267 430.404 299.731 430.048C299.196 429.692 298.778 429.185 298.53 428.591C298.283 427.998 298.217 427.344 298.341 426.713C298.465 426.082 298.774 425.502 299.228 425.046C299.682 424.59 300.261 424.28 300.892 424.154C301.523 424.028 302.177 424.091 302.771 424.337C303.366 424.583 303.874 424.999 304.231 425.534C304.589 426.069 304.78 426.697 304.78 427.341C304.785 427.77 304.705 428.197 304.545 428.596C304.385 428.995 304.147 429.358 303.846 429.665C303.545 429.971 303.186 430.215 302.791 430.383C302.395 430.55 301.97 430.638 301.54 430.641V430.591ZM301.54 425.351C301.144 425.351 300.758 425.468 300.429 425.688C300.1 425.907 299.844 426.22 299.692 426.585C299.541 426.951 299.501 427.353 299.578 427.741C299.656 428.129 299.846 428.485 300.126 428.765C300.405 429.044 300.762 429.235 301.15 429.312C301.538 429.389 301.94 429.35 302.305 429.198C302.671 429.047 302.983 428.791 303.203 428.462C303.423 428.133 303.54 427.746 303.54 427.351C303.527 426.829 303.31 426.333 302.937 425.969C302.563 425.604 302.062 425.4 301.54 425.401V425.351Z" fill="white"/>
<path d="M161.15 461.801H0.75C0.551088 461.801 0.360257 461.722 0.219604 461.581C0.0789522 461.441 0 461.25 0 461.051V365.211C0 365.012 0.0789522 364.821 0.219604 364.681C0.360257 364.54 0.551088 364.461 0.75 364.461H161.15C161.349 364.461 161.54 364.54 161.68 364.681C161.821 364.821 161.9 365.012 161.9 365.211V461.051C161.9 461.25 161.821 461.441 161.68 461.581C161.54 461.722 161.349 461.801 161.15 461.801ZM1.5 460.301H160.4V365.961H1.5V460.301ZM99.89 363.731C99.6911 363.731 99.5003 363.652 99.3596 363.511C99.219 363.371 99.14 363.18 99.14 362.981V347.131H62.76V362.981C62.76 363.18 62.6809 363.371 62.5403 363.511C62.3996 363.652 62.2089 363.731 62.01 363.731C61.8111 363.731 61.6203 363.652 61.4796 363.511C61.339 363.371 61.26 363.18 61.26 362.981V346.381C61.2626 346.183 61.3424 345.993 61.4825 345.853C61.6226 345.713 61.8119 345.633 62.01 345.631H99.89C100.088 345.633 100.277 345.713 100.417 345.853C100.558 345.993 100.637 346.183 100.64 346.381V362.981C100.637 363.179 100.558 363.368 100.417 363.508C100.277 363.648 100.088 363.728 99.89 363.731Z" fill="white"/>
<path d="M260.02 392.49H112.26V491.19H260.02V392.49Z" fill="white"/>
<path d="M260.51 491.69H111.76V391.99H260.51V491.69ZM112.76 490.69H259.51V392.99H112.76V490.69Z" fill="#3B7CFF"/>
<path d="M260.01 492.19H112.26C111.995 492.19 111.74 492.085 111.553 491.897C111.365 491.71 111.26 491.455 111.26 491.19V392.49C111.26 392.225 111.365 391.971 111.553 391.783C111.74 391.596 111.995 391.49 112.26 391.49H260.01C260.275 391.49 260.529 391.596 260.717 391.783C260.904 391.971 261.01 392.225 261.01 392.49V491.19C261.01 491.322 260.984 491.452 260.933 491.573C260.883 491.694 260.81 491.804 260.717 491.897C260.624 491.99 260.514 492.064 260.392 492.114C260.271 492.164 260.141 492.19 260.01 492.19ZM113.26 490.19H259.01V393.49H113.26V490.19Z" fill="#3B7CFF"/>
<path d="M260.01 491.801H112.26C112.095 491.801 111.936 491.736 111.818 491.62C111.7 491.504 111.633 491.346 111.63 491.181V392.481C111.63 392.398 111.646 392.316 111.678 392.24C111.709 392.163 111.756 392.094 111.814 392.035C111.873 391.977 111.942 391.93 112.019 391.899C112.095 391.867 112.177 391.851 112.26 391.851H260.01C260.177 391.851 260.337 391.917 260.455 392.035C260.573 392.153 260.64 392.314 260.64 392.481V491.181C260.637 491.346 260.57 491.504 260.452 491.62C260.334 491.736 260.175 491.801 260.01 491.801ZM256.37 490.551H259.37V393.111H256.37V490.551ZM186.91 490.551H255.12V393.111H186.91V490.551ZM117.46 490.551H185.66V393.111H117.46V490.551ZM112.88 490.551H116.21V393.111H112.88V490.551ZM175.33 479.251H127.79C127.638 479.231 127.498 479.157 127.396 479.042C127.295 478.927 127.239 478.779 127.239 478.626C127.239 478.472 127.295 478.324 127.396 478.209C127.498 478.094 127.638 478.02 127.79 478.001H175.33C175.482 478.02 175.622 478.094 175.723 478.209C175.825 478.324 175.881 478.472 175.881 478.626C175.881 478.779 175.825 478.927 175.723 479.042C175.622 479.157 175.482 479.231 175.33 479.251ZM175.33 468.541H127.81C127.721 468.552 127.631 468.544 127.546 468.518C127.46 468.492 127.381 468.447 127.314 468.388C127.247 468.329 127.193 468.256 127.156 468.175C127.12 468.093 127.101 468.005 127.101 467.916C127.101 467.826 127.12 467.738 127.156 467.656C127.193 467.575 127.247 467.502 127.314 467.443C127.381 467.384 127.46 467.34 127.546 467.313C127.631 467.287 127.721 467.279 127.81 467.291H175.33C175.482 467.31 175.622 467.384 175.723 467.499C175.825 467.614 175.881 467.762 175.881 467.916C175.881 468.069 175.825 468.217 175.723 468.332C175.622 468.447 175.482 468.521 175.33 468.541ZM175.33 458.721H127.81C127.721 458.732 127.631 458.724 127.546 458.698C127.46 458.672 127.381 458.627 127.314 458.568C127.247 458.509 127.193 458.436 127.156 458.355C127.12 458.273 127.101 458.185 127.101 458.096C127.101 458.006 127.12 457.918 127.156 457.836C127.193 457.755 127.247 457.682 127.314 457.623C127.381 457.564 127.46 457.52 127.546 457.493C127.631 457.467 127.721 457.459 127.81 457.471H175.33C175.482 457.49 175.622 457.564 175.723 457.679C175.825 457.794 175.881 457.942 175.881 458.096C175.881 458.249 175.825 458.397 175.723 458.512C175.622 458.627 175.482 458.701 175.33 458.721ZM175.33 448.421H127.81C127.721 448.432 127.631 448.424 127.546 448.398C127.46 448.372 127.381 448.327 127.314 448.268C127.247 448.209 127.193 448.136 127.156 448.055C127.12 447.973 127.101 447.885 127.101 447.796C127.101 447.706 127.12 447.618 127.156 447.536C127.193 447.455 127.247 447.382 127.314 447.323C127.381 447.264 127.46 447.22 127.546 447.193C127.631 447.167 127.721 447.159 127.81 447.171H175.33C175.482 447.19 175.622 447.264 175.723 447.379C175.825 447.494 175.881 447.642 175.881 447.796C175.881 447.949 175.825 448.097 175.723 448.212C175.622 448.327 175.482 448.401 175.33 448.421ZM244.78 417.421H197.26C197.108 417.401 196.968 417.327 196.866 417.212C196.765 417.097 196.709 416.949 196.709 416.796C196.709 416.642 196.765 416.494 196.866 416.379C196.968 416.264 197.108 416.19 197.26 416.171H244.78C244.868 416.159 244.959 416.167 245.044 416.193C245.13 416.22 245.209 416.264 245.276 416.323C245.343 416.382 245.396 416.455 245.433 416.536C245.47 416.618 245.489 416.706 245.489 416.796C245.489 416.885 245.47 416.973 245.433 417.055C245.396 417.136 245.343 417.209 245.276 417.268C245.209 417.327 245.13 417.372 245.044 417.398C244.959 417.424 244.868 417.432 244.78 417.421ZM244.78 407.121H197.26C197.108 407.101 196.968 407.027 196.866 406.912C196.765 406.797 196.709 406.649 196.709 406.496C196.709 406.342 196.765 406.194 196.866 406.079C196.968 405.964 197.108 405.89 197.26 405.871H244.78C244.868 405.859 244.959 405.867 245.044 405.893C245.13 405.92 245.209 405.964 245.276 406.023C245.343 406.082 245.396 406.155 245.433 406.236C245.47 406.318 245.489 406.406 245.489 406.496C245.489 406.585 245.47 406.673 245.433 406.755C245.396 406.836 245.343 406.909 245.276 406.968C245.209 407.027 245.13 407.072 245.044 407.098C244.959 407.124 244.868 407.132 244.78 407.121Z" fill="#3B7CFF"/>
<path d="M244.77 479.131H197.24C197.108 479.131 196.98 479.079 196.887 478.985C196.793 478.891 196.74 478.764 196.74 478.631C196.74 478.499 196.793 478.372 196.887 478.278C196.98 478.184 197.108 478.131 197.24 478.131H244.77C244.903 478.131 245.03 478.184 245.124 478.278C245.217 478.372 245.27 478.499 245.27 478.631C245.27 478.764 245.217 478.891 245.124 478.985C245.03 479.079 244.903 479.131 244.77 479.131ZM244.77 468.831H197.25C197.118 468.831 196.99 468.779 196.897 468.685C196.803 468.591 196.75 468.464 196.75 468.331C196.75 468.199 196.803 468.072 196.897 467.978C196.99 467.884 197.118 467.831 197.25 467.831H244.77C244.903 467.831 245.03 467.884 245.124 467.978C245.217 468.072 245.27 468.199 245.27 468.331C245.27 468.464 245.217 468.591 245.124 468.685C245.03 468.779 244.903 468.831 244.77 468.831ZM244.77 458.601H197.25C197.118 458.601 196.99 458.549 196.897 458.455C196.803 458.361 196.75 458.234 196.75 458.101C196.75 457.969 196.803 457.842 196.897 457.748C196.99 457.654 197.118 457.601 197.25 457.601H244.77C244.903 457.601 245.03 457.654 245.124 457.748C245.217 457.842 245.27 457.969 245.27 458.101C245.27 458.234 245.217 458.361 245.124 458.455C245.03 458.549 244.903 458.601 244.77 458.601ZM244.77 448.301H197.25C197.118 448.301 196.99 448.249 196.897 448.155C196.803 448.061 196.75 447.934 196.75 447.801C196.75 447.669 196.803 447.542 196.897 447.448C196.99 447.354 197.118 447.301 197.25 447.301H244.77C244.903 447.301 245.03 447.354 245.124 447.448C245.217 447.542 245.27 447.669 245.27 447.801C245.27 447.934 245.217 448.061 245.124 448.155C245.03 448.249 244.903 448.301 244.77 448.301ZM244.77 437.941H197.25C197.118 437.941 196.99 437.889 196.897 437.795C196.803 437.701 196.75 437.574 196.75 437.441C196.75 437.309 196.803 437.182 196.897 437.088C196.99 436.994 197.118 436.941 197.25 436.941H244.77C244.903 436.941 245.03 436.994 245.124 437.088C245.217 437.182 245.27 437.309 245.27 437.441C245.27 437.574 245.217 437.701 245.124 437.795C245.03 437.889 244.903 437.941 244.77 437.941Z" fill="#3B7CFF"/>
<path d="M179.53 343.451C178.356 344.847 177.774 346.646 177.906 348.465C178.039 350.284 178.876 351.98 180.24 353.191C181.452 349.733 183.818 346.798 186.94 344.881C184.324 347.434 182.677 350.817 182.28 354.451C183.615 354.964 185.076 355.057 186.465 354.715C187.854 354.374 189.105 353.615 190.05 352.541C193.22 348.891 193.05 338.541 193.05 338.541C193.05 338.541 182.75 339.801 179.53 343.451Z" fill="#76EEE3"/>
<path d="M184.8 355.551C183.859 355.549 182.927 355.373 182.05 355.031C181.921 354.982 181.811 354.892 181.738 354.774C181.666 354.657 181.635 354.518 181.65 354.381C181.858 352.557 182.364 350.78 183.15 349.121C182.15 350.412 181.366 351.857 180.83 353.401C180.797 353.498 180.741 353.585 180.666 353.655C180.591 353.725 180.499 353.775 180.4 353.801C180.302 353.825 180.199 353.826 180.1 353.803C180.001 353.781 179.908 353.735 179.83 353.671C178.334 352.354 177.414 350.503 177.268 348.515C177.123 346.527 177.762 344.562 179.05 343.041C182.39 339.261 192.52 337.921 192.95 337.871C193.126 337.851 193.302 337.901 193.44 338.011C193.506 338.07 193.558 338.143 193.595 338.224C193.631 338.305 193.65 338.392 193.65 338.481C193.65 338.911 193.8 349.161 190.51 352.951C189.795 353.762 188.917 354.412 187.933 354.86C186.949 355.308 185.881 355.544 184.8 355.551ZM182.96 354.031C184.13 354.386 185.378 354.394 186.553 354.055C187.728 353.716 188.779 353.044 189.58 352.121C192.09 349.231 192.38 341.591 192.41 339.211C190.07 339.581 182.56 340.971 180 343.861C179.031 345.007 178.499 346.459 178.499 347.961C178.499 349.462 179.031 350.914 180 352.061C181.343 348.863 183.655 346.166 186.61 344.351C186.742 344.271 186.898 344.243 187.049 344.271C187.2 344.298 187.335 344.38 187.43 344.501C187.525 344.622 187.571 344.774 187.56 344.927C187.549 345.081 187.481 345.224 187.37 345.331C184.979 347.663 183.428 350.723 182.96 354.031Z" fill="white"/>
<path d="M185.76 376.551H185.63C184.54 376.487 183.512 376.027 182.738 375.257C181.964 374.487 181.499 373.46 181.43 372.371C181.422 372.205 181.479 372.043 181.59 371.919C181.7 371.796 181.855 371.721 182.02 371.711C182.102 371.705 182.185 371.716 182.263 371.743C182.341 371.77 182.412 371.812 182.474 371.867C182.535 371.922 182.585 371.989 182.621 372.063C182.656 372.137 182.676 372.218 182.68 372.301C182.725 373.104 183.076 373.86 183.661 374.412C184.246 374.965 185.02 375.273 185.825 375.273C186.63 375.273 187.404 374.965 187.989 374.412C188.574 373.86 188.925 373.104 188.97 372.301C188.972 372.218 188.992 372.136 189.027 372.061C189.062 371.986 189.111 371.919 189.173 371.864C189.235 371.809 189.307 371.766 189.386 371.74C189.464 371.714 189.547 371.704 189.63 371.711C189.712 371.716 189.791 371.737 189.864 371.773C189.938 371.809 190.003 371.859 190.057 371.92C190.111 371.981 190.152 372.053 190.179 372.13C190.205 372.207 190.215 372.289 190.21 372.371C190.148 373.506 189.651 374.574 188.823 375.352C187.994 376.131 186.897 376.56 185.76 376.551Z" fill="white"/>
<path d="M191.33 364.291H180.33C179.91 364.296 179.493 364.217 179.103 364.059C178.714 363.9 178.36 363.666 178.063 363.368C177.765 363.071 177.531 362.717 177.372 362.328C177.214 361.938 177.135 361.521 177.14 361.101V359.601C173.974 357.699 171.518 354.813 170.149 351.383C168.78 347.953 168.572 344.168 169.559 340.609C170.545 337.05 172.671 333.913 175.611 331.677C178.551 329.441 182.142 328.231 185.835 328.231C189.529 328.231 193.12 329.441 196.06 331.677C198.999 333.913 201.125 337.05 202.112 340.609C203.098 344.168 202.891 347.953 201.522 351.383C200.152 354.813 197.697 357.699 194.53 359.601V361.101C194.534 361.522 194.454 361.939 194.295 362.328C194.135 362.718 193.9 363.072 193.601 363.369C193.303 363.666 192.949 363.901 192.559 364.059C192.169 364.217 191.751 364.296 191.33 364.291ZM185.83 329.501C182.383 329.5 179.033 330.638 176.3 332.739C173.567 334.84 171.606 337.785 170.72 341.116C169.835 344.448 170.076 347.978 171.405 351.158C172.734 354.339 175.078 356.99 178.07 358.701C178.167 358.754 178.247 358.832 178.304 358.927C178.36 359.022 178.39 359.13 178.39 359.241V361.101C178.388 361.356 178.436 361.61 178.533 361.846C178.629 362.083 178.772 362.298 178.953 362.478C179.133 362.659 179.348 362.802 179.585 362.898C179.821 362.995 180.075 363.043 180.33 363.041H191.33C191.59 363.05 191.85 363.007 192.093 362.913C192.336 362.82 192.557 362.678 192.744 362.497C192.931 362.316 193.079 362.099 193.18 361.859C193.281 361.619 193.332 361.361 193.33 361.101V359.241C193.331 359.13 193.361 359.022 193.417 358.927C193.473 358.832 193.554 358.754 193.65 358.701C196.644 356.99 198.987 354.337 200.317 351.156C201.646 347.975 201.885 344.443 200.999 341.111C200.112 337.78 198.149 334.834 195.415 332.734C192.68 330.634 189.328 329.498 185.88 329.501H185.83Z" fill="white"/>
<path d="M185.82 325.191C185.656 325.191 185.498 325.125 185.382 325.009C185.266 324.893 185.2 324.735 185.2 324.571V323.431C185.219 323.279 185.294 323.139 185.409 323.037C185.524 322.936 185.672 322.88 185.825 322.88C185.979 322.88 186.127 322.936 186.242 323.037C186.357 323.139 186.431 323.279 186.45 323.431V324.571C186.448 324.736 186.38 324.894 186.262 325.01C186.144 325.126 185.986 325.191 185.82 325.191Z" fill="white"/>
<path d="M200.41 331.171C200.329 331.171 200.248 331.155 200.172 331.124C200.097 331.094 200.028 331.048 199.97 330.991C199.911 330.934 199.864 330.865 199.832 330.79C199.799 330.714 199.783 330.633 199.783 330.551C199.783 330.468 199.799 330.387 199.832 330.311C199.864 330.236 199.911 330.168 199.97 330.111L200.75 329.331C200.807 329.271 200.875 329.224 200.951 329.192C201.027 329.16 201.108 329.143 201.19 329.143C201.272 329.143 201.354 329.16 201.429 329.192C201.505 329.224 201.573 329.271 201.63 329.331C201.745 329.448 201.809 329.606 201.809 329.771C201.809 329.935 201.745 330.093 201.63 330.211L200.85 330.991C200.792 331.048 200.724 331.094 200.648 331.124C200.573 331.155 200.492 331.171 200.41 331.171Z" fill="white"/>
<path d="M207.52 345.801H206.39C206.301 345.812 206.211 345.804 206.126 345.778C206.04 345.752 205.961 345.707 205.894 345.648C205.827 345.589 205.773 345.516 205.736 345.435C205.7 345.354 205.681 345.265 205.681 345.176C205.681 345.086 205.7 344.998 205.736 344.916C205.773 344.835 205.827 344.762 205.894 344.703C205.961 344.644 206.04 344.6 206.126 344.573C206.211 344.547 206.301 344.539 206.39 344.551H207.52C207.608 344.539 207.699 344.547 207.784 344.573C207.87 344.6 207.949 344.644 208.016 344.703C208.083 344.762 208.136 344.835 208.173 344.916C208.21 344.998 208.229 345.086 208.229 345.176C208.229 345.265 208.21 345.354 208.173 345.435C208.136 345.516 208.083 345.589 208.016 345.648C207.949 345.707 207.87 345.752 207.784 345.778C207.699 345.804 207.608 345.812 207.52 345.801Z" fill="white"/>
<path d="M201.19 361.121C201.109 361.121 201.028 361.105 200.952 361.075C200.877 361.044 200.808 360.998 200.75 360.941L199.97 360.161C199.911 360.104 199.864 360.035 199.832 359.96C199.799 359.884 199.783 359.803 199.783 359.721C199.783 359.638 199.799 359.557 199.832 359.482C199.864 359.406 199.911 359.338 199.97 359.281C200.088 359.166 200.246 359.102 200.41 359.102C200.575 359.102 200.733 359.166 200.85 359.281L201.63 360.061C201.745 360.178 201.809 360.336 201.809 360.501C201.809 360.665 201.745 360.823 201.63 360.941C201.572 360.998 201.504 361.044 201.428 361.075C201.353 361.105 201.272 361.121 201.19 361.121Z" fill="white"/>
<path d="M170.46 361.121C170.379 361.121 170.298 361.105 170.222 361.074C170.147 361.044 170.078 360.998 170.02 360.941C169.961 360.884 169.914 360.815 169.881 360.74C169.849 360.664 169.833 360.583 169.833 360.501C169.833 360.418 169.849 360.337 169.881 360.261C169.914 360.186 169.961 360.118 170.02 360.061L170.79 359.281C170.909 359.165 171.069 359.101 171.235 359.101C171.401 359.101 171.561 359.165 171.68 359.281C171.795 359.398 171.859 359.556 171.859 359.721C171.859 359.885 171.795 360.043 171.68 360.161L170.9 360.941C170.842 360.998 170.774 361.044 170.698 361.074C170.622 361.105 170.542 361.121 170.46 361.121Z" fill="white"/>
<path d="M165.26 345.801H164.12C163.968 345.781 163.828 345.707 163.727 345.592C163.625 345.477 163.569 345.329 163.569 345.176C163.569 345.022 163.625 344.874 163.727 344.759C163.828 344.644 163.968 344.57 164.12 344.551H165.26C165.412 344.57 165.552 344.644 165.654 344.759C165.755 344.874 165.811 345.022 165.811 345.176C165.811 345.329 165.755 345.477 165.654 345.592C165.552 345.707 165.412 345.781 165.26 345.801Z" fill="white"/>
<path d="M171.24 331.171C171.073 331.17 170.912 331.106 170.79 330.991L170.02 330.211C169.903 330.094 169.838 329.936 169.838 329.771C169.838 329.606 169.903 329.447 170.02 329.331C170.137 329.214 170.295 329.148 170.46 329.148C170.625 329.148 170.783 329.214 170.9 329.331L171.68 330.111C171.795 330.228 171.859 330.386 171.859 330.551C171.859 330.715 171.795 330.873 171.68 330.991C171.622 331.048 171.554 331.094 171.478 331.125C171.403 331.155 171.322 331.171 171.24 331.171Z" fill="white"/>
<path d="M190.84 372.961H180.84C180.407 372.955 179.993 372.781 179.686 372.474C179.38 372.168 179.205 371.754 179.2 371.321V363.671C179.2 363.505 179.265 363.346 179.381 363.229C179.497 363.111 179.655 363.043 179.82 363.041H191.82C191.987 363.041 192.147 363.107 192.266 363.225C192.384 363.343 192.45 363.503 192.45 363.671V371.321C192.443 371.748 192.272 372.156 191.972 372.462C191.673 372.767 191.268 372.945 190.84 372.961ZM180.47 364.291V371.291C180.479 371.391 180.523 371.485 180.594 371.556C180.666 371.628 180.76 371.672 180.86 371.681H190.86C190.962 371.674 191.059 371.631 191.132 371.559C191.206 371.488 191.251 371.393 191.26 371.291V364.291H180.47Z" fill="white"/>
<path d="M188.51 368.661H179.84C179.688 368.641 179.548 368.567 179.446 368.452C179.345 368.337 179.289 368.189 179.289 368.036C179.289 367.882 179.345 367.734 179.446 367.619C179.548 367.504 179.688 367.43 179.84 367.411H188.51C188.599 367.4 188.689 367.407 188.774 367.434C188.86 367.46 188.939 367.504 189.006 367.563C189.073 367.622 189.126 367.695 189.163 367.776C189.2 367.858 189.219 367.946 189.219 368.036C189.219 368.125 189.2 368.214 189.163 368.295C189.126 368.377 189.073 368.449 189.006 368.508C188.939 368.568 188.86 368.612 188.774 368.638C188.689 368.664 188.599 368.672 188.51 368.661Z" fill="white"/>
<path d="M182.95 364.351C182.814 364.351 182.681 364.306 182.572 364.223C182.464 364.14 182.386 364.023 182.35 363.891C178.88 350.671 186.2 344.661 186.51 344.411C186.576 344.36 186.651 344.322 186.731 344.3C186.812 344.277 186.896 344.271 186.978 344.281C187.061 344.292 187.141 344.318 187.213 344.359C187.286 344.4 187.349 344.455 187.4 344.521C187.452 344.586 187.489 344.662 187.512 344.742C187.534 344.822 187.54 344.906 187.53 344.989C187.519 345.071 187.493 345.151 187.452 345.223C187.411 345.296 187.356 345.36 187.29 345.411C187 345.641 180.29 351.211 183.56 363.601C183.581 363.68 183.586 363.763 183.575 363.844C183.564 363.926 183.536 364.004 183.494 364.075C183.453 364.146 183.397 364.207 183.331 364.256C183.265 364.305 183.19 364.341 183.11 364.361L182.95 364.351Z" fill="white"/>
<path d="M397.99 413.32H335.38V502.32H397.99V413.32Z" fill="white"/>
<path d="M397.99 503.291H335.38C335.115 503.291 334.86 503.186 334.673 502.998C334.485 502.811 334.38 502.556 334.38 502.291V413.291C334.38 413.026 334.485 412.771 334.673 412.584C334.86 412.396 335.115 412.291 335.38 412.291H397.99C398.255 412.291 398.509 412.396 398.697 412.584C398.885 412.771 398.99 413.026 398.99 413.291V502.291C398.99 502.556 398.885 502.811 398.697 502.998C398.509 503.186 398.255 503.291 397.99 503.291ZM336.38 501.291H396.99V414.291H336.38V501.291Z" fill="#3B7CFF"/>
<path d="M404.58 509.62H341.97C341.771 509.62 341.58 509.541 341.439 509.401C341.299 509.26 341.22 509.069 341.22 508.87C341.22 508.672 341.299 508.481 341.439 508.34C341.58 508.199 341.771 508.12 341.97 508.12H403.83V419.9C403.83 419.701 403.909 419.511 404.05 419.37C404.19 419.229 404.381 419.15 404.58 419.15C404.779 419.15 404.969 419.229 405.11 419.37C405.251 419.511 405.33 419.701 405.33 419.9V508.9C405.322 509.094 405.24 509.277 405.1 509.411C404.96 509.546 404.774 509.621 404.58 509.62Z" fill="white"/>
<path d="M388.1 427.24H345.26C345.061 427.24 344.87 427.161 344.729 427.021C344.589 426.88 344.51 426.689 344.51 426.49C344.51 426.291 344.589 426.101 344.729 425.96C344.87 425.819 345.061 425.74 345.26 425.74H388.1C388.299 425.74 388.489 425.819 388.63 425.96C388.771 426.101 388.85 426.291 388.85 426.49C388.85 426.689 388.771 426.88 388.63 427.021C388.489 427.161 388.299 427.24 388.1 427.24Z" fill="#76EEE3"/>
<path d="M388.1 437.131H345.26C345.061 437.131 344.87 437.052 344.729 436.911C344.589 436.771 344.51 436.58 344.51 436.381C344.51 436.182 344.589 435.991 344.729 435.851C344.87 435.71 345.061 435.631 345.26 435.631H388.1C388.299 435.631 388.489 435.71 388.63 435.851C388.771 435.991 388.85 436.182 388.85 436.381C388.85 436.58 388.771 436.771 388.63 436.911C388.489 437.052 388.299 437.131 388.1 437.131Z" fill="#76EEE3"/>
<path d="M388.1 447.021H345.26C345.061 447.021 344.87 446.941 344.729 446.801C344.589 446.66 344.51 446.469 344.51 446.271C344.51 446.072 344.589 445.881 344.729 445.74C344.87 445.6 345.061 445.521 345.26 445.521H388.1C388.299 445.521 388.489 445.6 388.63 445.74C388.771 445.881 388.85 446.072 388.85 446.271C388.85 446.469 388.771 446.66 388.63 446.801C388.489 446.941 388.299 447.021 388.1 447.021Z" fill="#76EEE3"/>
<path d="M388.1 456.9H345.26C345.061 456.9 344.87 456.821 344.729 456.681C344.589 456.54 344.51 456.349 344.51 456.15C344.51 455.951 344.589 455.761 344.729 455.62C344.87 455.479 345.061 455.4 345.26 455.4H388.1C388.299 455.4 388.489 455.479 388.63 455.62C388.771 455.761 388.85 455.951 388.85 456.15C388.85 456.349 388.771 456.54 388.63 456.681C388.489 456.821 388.299 456.9 388.1 456.9Z" fill="#76EEE3"/>
<path d="M388.1 466.801H345.26C345.061 466.801 344.87 466.722 344.729 466.581C344.589 466.44 344.51 466.25 344.51 466.051C344.51 465.852 344.589 465.661 344.729 465.52C344.87 465.38 345.061 465.301 345.26 465.301H388.1C388.299 465.301 388.489 465.38 388.63 465.52C388.771 465.661 388.85 465.852 388.85 466.051C388.85 466.25 388.771 466.44 388.63 466.581C388.489 466.722 388.299 466.801 388.1 466.801Z" fill="#76EEE3"/>
<path d="M378.21 476.561H345.21C345.011 476.561 344.82 476.482 344.68 476.341C344.539 476.2 344.46 476.009 344.46 475.811C344.46 475.612 344.539 475.421 344.68 475.28C344.82 475.14 345.011 475.061 345.21 475.061H378.21C378.409 475.061 378.6 475.14 378.74 475.28C378.881 475.421 378.96 475.612 378.96 475.811C378.96 476.009 378.881 476.2 378.74 476.341C378.6 476.482 378.409 476.561 378.21 476.561Z" fill="#76EEE3"/>
<path d="M390.06 490.801H373.49C373.291 490.801 373.1 490.722 372.959 490.581C372.819 490.44 372.74 490.25 372.74 490.051C372.74 489.852 372.819 489.661 372.959 489.52C373.1 489.38 373.291 489.301 373.49 489.301H390.06C390.259 489.301 390.449 489.38 390.59 489.52C390.731 489.661 390.81 489.852 390.81 490.051C390.81 490.25 390.731 490.44 390.59 490.581C390.449 490.722 390.259 490.801 390.06 490.801Z" fill="#76EEE3"/>
<path d="M397.44 484.391L390.44 489.781C390.302 489.889 390.135 489.951 389.96 489.961C389.786 489.98 389.61 489.942 389.46 489.851C389.31 489.762 389.191 489.629 389.12 489.469C389.048 489.31 389.027 489.133 389.06 488.961L390.45 480.281L413.07 442.111L420.01 446.221L397.44 484.391Z" fill="#76EEE3"/>
<path d="M389.95 490.471C389.708 490.468 389.47 490.403 389.26 490.281C389.023 490.14 388.835 489.931 388.72 489.681C388.604 489.431 388.566 489.153 388.61 488.881L390 480.201C390.014 480.138 390.038 480.077 390.07 480.021L412.69 441.851C412.763 441.74 412.873 441.658 413 441.621C413.13 441.59 413.266 441.612 413.38 441.681L420.33 445.801C420.443 445.868 420.526 445.977 420.56 446.104C420.593 446.231 420.576 446.367 420.51 446.481L397.89 484.661C397.859 484.714 397.818 484.762 397.77 484.801L390.77 490.181C390.559 490.351 390.3 490.452 390.03 490.471H389.95ZM390.95 480.471L389.57 489.061C389.55 489.133 389.55 489.209 389.57 489.281C389.599 489.347 389.648 489.403 389.71 489.441C389.779 489.457 389.851 489.457 389.92 489.441C389.989 489.431 390.055 489.403 390.11 489.361L397 484.021L419.33 446.391L413.33 442.801L390.95 480.471Z" fill="#3B7CFF"/>
<path d="M409.57 472.08C409.479 472.077 409.39 472.053 409.31 472.01C409.198 471.94 409.117 471.829 409.085 471.7C409.054 471.571 409.073 471.435 409.14 471.32L417.3 457.55C417.528 457.167 417.677 456.742 417.74 456.3C417.804 455.86 417.777 455.41 417.66 454.98C417.553 454.546 417.359 454.138 417.09 453.78C416.82 453.42 416.48 453.117 416.09 452.89L409.27 448.89C409.159 448.822 409.079 448.712 409.047 448.584C409.016 448.457 409.036 448.323 409.103 448.21C409.17 448.097 409.278 448.015 409.405 447.982C409.531 447.948 409.666 447.965 409.78 448.03L416.6 452.03C417.098 452.326 417.533 452.717 417.88 453.18C418.575 454.116 418.877 455.286 418.72 456.44C418.638 457.013 418.444 457.563 418.15 458.06L410 471.8C409.96 471.881 409.898 471.949 409.823 471.998C409.747 472.048 409.66 472.076 409.57 472.08Z" fill="#3B7CFF"/>
<path d="M157.91 434.971H54.4502V512.421H157.91V434.971Z" fill="white"/>
<path d="M157.91 513.171H54.4502C54.2513 513.171 54.0606 513.092 53.9199 512.951C53.7793 512.81 53.7002 512.62 53.7002 512.421V434.971C53.7002 434.772 53.7793 434.581 53.9199 434.44C54.0606 434.3 54.2513 434.221 54.4502 434.221H157.91C158.108 434.223 158.298 434.303 158.438 434.443C158.578 434.583 158.658 434.773 158.66 434.971V512.421C158.658 512.619 158.578 512.808 158.438 512.948C158.298 513.088 158.108 513.168 157.91 513.171ZM55.2002 511.671H157.2V435.671H55.2002V511.671Z" fill="#3B7CFF"/>
<path d="M122.75 498.131C119.862 498.131 117.04 497.274 114.639 495.67C112.238 494.066 110.366 491.786 109.261 489.118C108.156 486.45 107.867 483.514 108.43 480.682C108.994 477.85 110.384 475.249 112.426 473.207C114.468 471.165 117.069 469.775 119.902 469.211C122.734 468.648 125.669 468.937 128.337 470.042C131.005 471.147 133.285 473.018 134.889 475.419C136.494 477.82 137.35 480.643 137.35 483.531C137.345 487.401 135.805 491.112 133.068 493.849C130.331 496.585 126.62 498.125 122.75 498.131ZM122.75 470.131C120.11 470.131 117.528 470.914 115.333 472.381C113.138 473.847 111.426 475.932 110.416 478.372C109.406 480.811 109.141 483.496 109.656 486.085C110.172 488.675 111.443 491.054 113.31 492.921C115.177 494.788 117.556 496.059 120.145 496.574C122.735 497.089 125.419 496.825 127.859 495.814C130.298 494.804 132.383 493.093 133.85 490.898C135.317 488.702 136.1 486.121 136.1 483.481C136.081 479.95 134.667 476.571 132.166 474.079C129.665 471.587 126.28 470.186 122.75 470.181V470.131Z" fill="#3B7CFF"/>
<path d="M122.73 489.981C121.452 489.981 120.203 489.601 119.14 488.891C118.077 488.181 117.249 487.171 116.761 485.99C116.272 484.809 116.145 483.51 116.395 482.257C116.645 481.003 117.261 479.852 118.166 478.949C119.07 478.046 120.222 477.432 121.476 477.183C122.73 476.935 124.029 477.065 125.209 477.555C126.389 478.046 127.398 478.875 128.106 479.939C128.815 481.002 129.192 482.252 129.19 483.531C129.19 484.378 129.023 485.218 128.698 486.001C128.373 486.784 127.897 487.496 127.297 488.095C126.697 488.694 125.985 489.169 125.201 489.492C124.418 489.816 123.578 489.982 122.73 489.981ZM122.73 478.321C121.7 478.321 120.692 478.626 119.836 479.199C118.979 479.771 118.311 480.585 117.917 481.537C117.522 482.489 117.419 483.536 117.62 484.547C117.821 485.558 118.317 486.486 119.046 487.215C119.775 487.943 120.703 488.439 121.714 488.64C122.724 488.841 123.772 488.738 124.724 488.344C125.676 487.95 126.49 487.282 127.062 486.425C127.634 485.568 127.94 484.561 127.94 483.531C127.94 482.149 127.391 480.824 126.414 479.846C125.437 478.869 124.112 478.321 122.73 478.321Z" fill="#3B7CFF"/>
<path d="M119.33 508.361C119.261 508.36 119.192 508.345 119.129 508.318C119.065 508.29 119.008 508.251 118.96 508.201L115.22 504.261L109.63 503.951C109.552 503.946 109.475 503.922 109.408 503.882C109.34 503.842 109.282 503.787 109.24 503.721C109.203 503.651 109.184 503.574 109.184 503.496C109.184 503.417 109.203 503.34 109.24 503.271L112.78 493.921C112.827 493.798 112.921 493.698 113.041 493.644C113.16 493.59 113.297 493.585 113.42 493.631C113.482 493.653 113.538 493.687 113.586 493.732C113.635 493.776 113.673 493.83 113.7 493.889C113.727 493.949 113.742 494.013 113.744 494.079C113.745 494.144 113.734 494.21 113.71 494.271L110.42 502.991L115.53 503.271C115.655 503.275 115.774 503.329 115.86 503.421L119.19 506.941L122.73 497.661C122.753 497.599 122.789 497.542 122.834 497.494C122.879 497.445 122.934 497.407 122.995 497.38C123.055 497.353 123.12 497.338 123.186 497.336C123.253 497.335 123.318 497.346 123.38 497.371C123.442 497.393 123.498 497.427 123.546 497.472C123.595 497.516 123.633 497.57 123.66 497.629C123.687 497.689 123.702 497.753 123.704 497.819C123.705 497.884 123.694 497.95 123.67 498.011L119.84 508.011C119.81 508.09 119.761 508.16 119.696 508.214C119.631 508.269 119.553 508.305 119.47 508.321L119.33 508.361Z" fill="#3B7CFF"/>
<path d="M127.45 508.15H127.35C127.268 508.133 127.191 508.096 127.126 508.042C127.061 507.988 127.011 507.918 126.98 507.84L123.21 497.94C123.18 497.878 123.164 497.811 123.162 497.742C123.16 497.673 123.172 497.604 123.197 497.541C123.222 497.477 123.261 497.419 123.31 497.37C123.359 497.322 123.417 497.284 123.481 497.259C123.545 497.234 123.614 497.223 123.683 497.226C123.751 497.229 123.819 497.246 123.881 497.276C123.942 497.306 123.997 497.349 124.042 497.401C124.087 497.453 124.12 497.514 124.14 497.58L127.63 506.74L130.96 503.22C131.049 503.127 131.171 503.074 131.3 503.07L136.41 502.79L132.85 493.37C132.826 493.309 132.815 493.244 132.816 493.179C132.818 493.113 132.833 493.049 132.86 492.989C132.887 492.929 132.926 492.876 132.974 492.831C133.022 492.787 133.078 492.752 133.14 492.73C133.263 492.685 133.4 492.689 133.52 492.744C133.639 492.798 133.733 492.897 133.78 493.02L137.59 503.02C137.622 503.091 137.639 503.168 137.639 503.245C137.639 503.323 137.622 503.4 137.59 503.47C137.547 503.535 137.489 503.59 137.421 503.63C137.354 503.67 137.278 503.694 137.2 503.7L131.6 504.01L127.86 507.95C127.812 508.014 127.75 508.065 127.679 508.1C127.608 508.134 127.529 508.152 127.45 508.15Z" fill="#3B7CFF"/>
<path d="M145.04 500.591H142.04C141.951 500.602 141.861 500.595 141.776 500.568C141.69 500.542 141.612 500.498 141.544 500.439C141.477 500.38 141.424 500.307 141.387 500.225C141.35 500.144 141.331 500.055 141.331 499.966C141.331 499.877 141.35 499.788 141.387 499.707C141.424 499.625 141.477 499.553 141.544 499.493C141.612 499.434 141.69 499.39 141.776 499.364C141.861 499.338 141.951 499.33 142.04 499.341H144.36V446.121H66.9302V499.341H104.62C104.709 499.33 104.799 499.338 104.885 499.364C104.97 499.39 105.049 499.434 105.116 499.493C105.183 499.553 105.237 499.625 105.274 499.707C105.31 499.788 105.329 499.877 105.329 499.966C105.329 500.055 105.31 500.144 105.274 500.225C105.237 500.307 105.183 500.38 105.116 500.439C105.049 500.498 104.97 500.542 104.885 500.568C104.799 500.595 104.709 500.602 104.62 500.591H66.3302C66.1631 500.591 66.0029 500.525 65.8848 500.407C65.7666 500.288 65.7002 500.128 65.7002 499.961V445.491C65.7028 445.326 65.7703 445.168 65.8882 445.052C66.006 444.936 66.1648 444.871 66.3302 444.871H145.01C145.175 444.871 145.332 444.936 145.449 445.053C145.565 445.169 145.63 445.327 145.63 445.491V499.961C145.631 500.121 145.57 500.276 145.46 500.393C145.35 500.51 145.2 500.581 145.04 500.591Z" fill="#3B7CFF"/>
<path d="M104.67 479.221H75.1602C75.0275 479.221 74.9004 479.168 74.8066 479.074C74.7129 478.981 74.6602 478.853 74.6602 478.721C74.6602 478.588 74.7129 478.461 74.8066 478.367C74.9004 478.273 75.0275 478.221 75.1602 478.221H104.67C104.803 478.221 104.93 478.273 105.024 478.367C105.118 478.461 105.17 478.588 105.17 478.721C105.17 478.853 105.118 478.981 105.024 479.074C104.93 479.168 104.803 479.221 104.67 479.221Z" fill="#3B7CFF"/>
<path d="M135.14 464.021H98.6699C98.5373 464.021 98.4102 463.968 98.3164 463.874C98.2226 463.78 98.1699 463.653 98.1699 463.521C98.1699 463.388 98.2226 463.261 98.3164 463.167C98.4102 463.073 98.5373 463.021 98.6699 463.021H135.14C135.273 463.021 135.4 463.073 135.494 463.167C135.587 463.261 135.64 463.388 135.64 463.521C135.64 463.653 135.587 463.78 135.494 463.874C135.4 463.968 135.273 464.021 135.14 464.021Z" fill="#3B7CFF"/>
<path d="M135.14 455.611H98.6699C98.5373 455.611 98.4102 455.559 98.3164 455.465C98.2226 455.371 98.1699 455.244 98.1699 455.111C98.1699 454.979 98.2226 454.852 98.3164 454.758C98.4102 454.664 98.5373 454.611 98.6699 454.611H135.14C135.273 454.611 135.4 454.664 135.494 454.758C135.587 454.852 135.64 454.979 135.64 455.111C135.64 455.244 135.587 455.371 135.494 455.465C135.4 455.559 135.273 455.611 135.14 455.611Z" fill="#3B7CFF"/>
<path d="M97.6902 489.48H75.1602C75.0275 489.48 74.9004 489.428 74.8066 489.334C74.7129 489.24 74.6602 489.113 74.6602 488.98C74.6627 488.849 74.7162 488.723 74.8094 488.63C74.9027 488.537 75.0283 488.483 75.1602 488.48H97.6902C97.8228 488.48 97.9499 488.533 98.0437 488.627C98.1375 488.721 98.1902 488.848 98.1902 488.98C98.1902 489.113 98.1375 489.24 98.0437 489.334C97.9499 489.428 97.8228 489.48 97.6902 489.48Z" fill="#3B7CFF"/>
<path d="M82.6798 472.731L82.3299 472.661C82.112 472.582 81.9281 472.43 81.8099 472.231C81.6858 472.031 81.6362 471.794 81.6698 471.561L82.7798 463.151H78.4699C78.2783 463.15 78.0908 463.095 77.9298 462.991C77.7691 462.89 77.6379 462.749 77.5498 462.581C77.4683 462.409 77.4306 462.22 77.4399 462.031C77.4612 461.843 77.5301 461.664 77.6399 461.511L85.1899 451.241C85.3227 451.052 85.5168 450.915 85.7392 450.853C85.9615 450.791 86.1985 450.808 86.4098 450.901C86.6235 450.989 86.8001 451.148 86.9098 451.351C87.0246 451.55 87.067 451.784 87.0298 452.011L85.8599 459.011H90.1199C90.3057 459.011 90.4881 459.059 90.6498 459.151C90.8057 459.248 90.9338 459.384 91.0214 459.545C91.109 459.706 91.1533 459.887 91.1498 460.071C91.1413 460.255 91.0863 460.434 90.9899 460.591L83.5599 472.221C83.4648 472.364 83.3382 472.484 83.1899 472.571C83.0356 472.651 82.8638 472.693 82.6899 472.691L82.6798 472.731Z" fill="#76EEE3"/>
<path d="M165.91 427.93C165.492 427.928 165.084 427.802 164.738 427.567C164.393 427.331 164.125 426.998 163.97 426.61L163.31 424.9L162.1 426.25C161.766 426.615 161.314 426.85 160.824 426.914C160.334 426.978 159.836 426.867 159.42 426.6L157.92 425.6C157.507 425.333 157.203 424.928 157.062 424.457C156.921 423.986 156.952 423.48 157.15 423.03L157.87 421.37L156.06 421.46C155.562 421.48 155.073 421.322 154.681 421.014C154.289 420.706 154.019 420.269 153.92 419.78L153.55 418.04C153.437 417.556 153.504 417.047 153.738 416.607C153.971 416.168 154.355 415.828 154.82 415.65L156.51 414.99L155.17 413.76C154.805 413.431 154.57 412.981 154.508 412.493C154.446 412.005 154.56 411.511 154.83 411.1L155.83 409.59C156.095 409.195 156.487 408.901 156.942 408.757C157.396 408.614 157.886 408.629 158.33 408.8L160.01 409.54L159.92 407.72V407.4C159.967 406.956 160.156 406.538 160.459 406.209C160.761 405.879 161.161 405.655 161.6 405.57L163.32 405.2C163.648 405.113 163.992 405.113 164.32 405.2C164.626 405.288 164.907 405.444 165.143 405.657C165.379 405.871 165.562 406.135 165.68 406.43L166.35 408.13L167.58 406.78C167.911 406.415 168.362 406.179 168.851 406.115C169.34 406.051 169.836 406.163 170.25 406.43L171.75 407.43C172.166 407.7 172.473 408.108 172.616 408.582C172.758 409.056 172.728 409.566 172.53 410.02L171.81 411.66L173.61 411.57C174.02 411.542 174.429 411.636 174.785 411.841C175.141 412.046 175.428 412.352 175.61 412.72C175.696 412.888 175.76 413.066 175.8 413.25L176.17 414.99C176.266 415.409 176.229 415.846 176.064 416.243C175.899 416.639 175.615 416.974 175.25 417.2C175.137 417.281 175.012 417.345 174.88 417.39L173.21 418.05L174.54 419.26C174.909 419.589 175.147 420.041 175.21 420.532C175.272 421.022 175.155 421.519 174.88 421.93L173.88 423.42C173.613 423.836 173.208 424.144 172.736 424.29C172.264 424.436 171.755 424.412 171.3 424.22L169.63 423.48L169.71 425.31C169.739 425.815 169.583 426.313 169.272 426.712C168.962 427.111 168.517 427.384 168.02 427.48L166.29 427.85C166.166 427.887 166.039 427.914 165.91 427.93ZM163.38 423.63H163.59C163.702 423.656 163.807 423.705 163.898 423.773C163.989 423.842 164.065 423.93 164.12 424.03L164.96 426.19C165.048 426.419 165.217 426.607 165.434 426.72C165.652 426.832 165.903 426.861 166.14 426.8L167.89 426.43C168.136 426.389 168.357 426.257 168.51 426.061C168.664 425.865 168.739 425.619 168.72 425.37L168.62 423.11C168.623 422.969 168.661 422.831 168.731 422.709C168.8 422.587 168.9 422.484 169.02 422.41C169.116 422.341 169.226 422.296 169.343 422.279C169.46 422.262 169.578 422.272 169.69 422.31L171.81 423.23C172.03 423.326 172.278 423.34 172.508 423.268C172.737 423.197 172.933 423.045 173.06 422.84L174.06 421.35C174.191 421.151 174.248 420.912 174.218 420.676C174.189 420.439 174.076 420.221 173.9 420.06L172.24 418.53C172.195 418.491 172.158 418.443 172.13 418.39C172.076 418.312 172.039 418.224 172.02 418.13C172 418.025 172 417.916 172.02 417.81C172.043 417.686 172.095 417.569 172.171 417.468C172.248 417.367 172.347 417.286 172.46 417.23L174.58 416.39C174.635 416.374 174.686 416.347 174.73 416.31C174.913 416.203 175.056 416.041 175.141 415.847C175.225 415.653 175.246 415.437 175.2 415.23L174.83 413.47C174.816 413.39 174.789 413.312 174.75 413.24C174.666 413.062 174.53 412.913 174.361 412.812C174.192 412.71 173.997 412.661 173.8 412.67L171.57 412.78C171.44 412.786 171.31 412.758 171.193 412.701C171.076 412.643 170.975 412.557 170.9 412.45C170.83 412.355 170.782 412.246 170.758 412.13C170.734 412.015 170.734 411.895 170.76 411.78V411.68L171.66 409.62C171.76 409.4 171.776 409.151 171.707 408.919C171.637 408.687 171.485 408.489 171.28 408.36L169.78 407.36C169.579 407.227 169.337 407.171 169.098 407.203C168.86 407.234 168.64 407.35 168.48 407.53L166.97 409.2L166.88 409.28C166.756 409.36 166.616 409.411 166.47 409.43H166.33C166.19 409.424 166.055 409.381 165.937 409.306C165.819 409.23 165.724 409.125 165.66 409L164.81 406.86C164.754 406.719 164.666 406.592 164.553 406.49C164.441 406.388 164.306 406.313 164.16 406.27C163.994 406.221 163.816 406.221 163.65 406.27L161.9 406.64C161.685 406.676 161.487 406.782 161.337 406.941C161.187 407.099 161.093 407.303 161.07 407.52V407.74L161.19 409.93C161.195 409.973 161.195 410.017 161.19 410.06C161.15 410.282 161.024 410.48 160.84 410.61C160.651 410.725 160.43 410.775 160.21 410.75C160.164 410.76 160.116 410.76 160.07 410.75L158.01 409.85C157.79 409.75 157.54 409.734 157.309 409.804C157.077 409.874 156.879 410.025 156.75 410.23L155.75 411.74C155.62 411.94 155.565 412.18 155.597 412.417C155.628 412.653 155.742 412.871 155.92 413.03L157.58 414.57C157.67 414.66 157.737 414.77 157.776 414.891C157.816 415.012 157.826 415.14 157.806 415.266C157.787 415.392 157.738 415.511 157.664 415.614C157.59 415.717 157.493 415.802 157.38 415.86L155.23 416.7C155.004 416.788 154.817 416.955 154.705 417.17C154.592 417.386 154.562 417.634 154.62 417.87L154.99 419.63C155.033 419.863 155.157 420.074 155.34 420.224C155.523 420.374 155.753 420.454 155.99 420.45L158.23 420.34C158.357 420.346 158.482 420.378 158.595 420.435C158.709 420.491 158.81 420.572 158.89 420.67C158.958 420.763 159.007 420.868 159.032 420.98C159.058 421.092 159.061 421.207 159.04 421.32C159.045 421.367 159.045 421.414 159.04 421.46L158.14 423.52C158.045 423.737 158.03 423.981 158.097 424.208C158.165 424.435 158.311 424.631 158.51 424.76L160.02 425.76C160.22 425.891 160.46 425.945 160.696 425.914C160.933 425.883 161.151 425.768 161.31 425.59L162.81 423.93C162.955 423.761 163.159 423.654 163.38 423.63Z" fill="#3B7CFF"/>
<path d="M164.86 420.961C163.765 420.967 162.708 420.565 161.892 419.835C161.077 419.104 160.563 418.097 160.45 417.008C160.336 415.919 160.632 414.827 161.278 413.944C161.925 413.062 162.877 412.451 163.95 412.231C165.094 411.987 166.289 412.207 167.27 412.844C168.252 413.481 168.941 414.481 169.185 415.626C169.429 416.77 169.208 417.965 168.571 418.946C167.935 419.928 166.934 420.617 165.79 420.861C165.484 420.928 165.172 420.962 164.86 420.961ZM164.86 413.201C164.624 413.203 164.39 413.23 164.16 413.281C163.73 413.369 163.323 413.543 162.962 413.793C162.602 414.042 162.295 414.361 162.06 414.731C161.82 415.099 161.656 415.512 161.577 415.944C161.498 416.376 161.505 416.82 161.598 417.249C161.691 417.678 161.868 418.085 162.119 418.446C162.37 418.807 162.689 419.114 163.06 419.351C163.426 419.592 163.837 419.757 164.268 419.836C164.699 419.915 165.142 419.906 165.57 419.811C166.214 419.67 166.802 419.343 167.261 418.87C167.72 418.397 168.029 417.799 168.149 417.151C168.27 416.503 168.197 415.834 167.939 415.227C167.681 414.621 167.25 414.104 166.7 413.741C166.154 413.389 165.519 413.202 164.87 413.201H164.86Z" fill="#3B7CFF"/>
<path d="M145.17 422.8C144.861 422.8 144.559 422.703 144.306 422.524C144.054 422.345 143.863 422.092 143.76 421.8L143.37 420.71L142.57 421.54C142.317 421.81 141.973 421.978 141.604 422.011C141.236 422.044 140.867 421.941 140.57 421.72L139.57 421.02C139.272 420.822 139.055 420.523 138.96 420.177C138.864 419.832 138.896 419.464 139.05 419.14L139.55 418.14H138.37C138.018 418.144 137.676 418.022 137.405 417.796C137.134 417.571 136.952 417.257 136.89 416.91L136.67 415.69C136.61 415.337 136.678 414.975 136.861 414.667C137.045 414.359 137.331 414.126 137.67 414.01L138.78 413.62L137.94 412.81L137.85 412.71L137.77 412.62C137.582 412.364 137.481 412.054 137.481 411.735C137.481 411.417 137.582 411.107 137.77 410.85L138.46 409.85C138.659 409.552 138.958 409.336 139.303 409.24C139.648 409.145 140.017 409.177 140.34 409.33L141.4 409.83V408.66C141.395 408.304 141.516 407.957 141.744 407.682C141.971 407.407 142.289 407.222 142.64 407.16L143.86 406.95C144.214 406.887 144.578 406.953 144.887 407.136C145.196 407.32 145.428 407.609 145.54 407.95L145.92 409.03L146.72 408.2C146.978 407.938 147.321 407.776 147.687 407.743C148.053 407.71 148.42 407.808 148.72 408.02L149.72 408.73C149.977 408.901 150.174 409.149 150.282 409.438C150.39 409.727 150.403 410.043 150.32 410.34C150.305 410.439 150.271 410.534 150.22 410.62L149.73 411.62H150.92C151.254 411.629 151.575 411.751 151.831 411.965C152.086 412.179 152.262 412.474 152.33 412.8L152.54 414.02C152.604 414.374 152.538 414.739 152.354 415.047C152.17 415.356 151.881 415.588 151.54 415.7L150.43 416.09L151.27 416.91C151.544 417.161 151.714 417.506 151.748 417.876C151.781 418.246 151.675 418.615 151.45 418.91L150.76 419.91C150.558 420.208 150.257 420.423 149.91 420.516C149.563 420.61 149.194 420.576 148.87 420.42L147.81 419.92V421.07C147.816 421.426 147.695 421.771 147.47 422.046C147.245 422.321 146.929 422.507 146.58 422.57L145.35 422.79C145.29 422.798 145.23 422.802 145.17 422.8ZM143.46 419.67H143.57C143.655 419.686 143.737 419.719 143.809 419.767C143.881 419.815 143.943 419.878 143.99 419.95C143.995 419.984 143.995 420.017 143.99 420.05L144.52 421.51C144.568 421.654 144.666 421.776 144.797 421.853C144.927 421.93 145.081 421.958 145.23 421.93L146.46 421.71C146.608 421.682 146.742 421.603 146.837 421.485C146.932 421.368 146.983 421.221 146.98 421.07V419.52C146.983 419.411 147.015 419.304 147.073 419.211C147.131 419.118 147.213 419.042 147.31 418.99C147.384 418.945 147.467 418.917 147.554 418.906C147.64 418.896 147.727 418.904 147.81 418.93L149.27 419.63C149.41 419.694 149.569 419.706 149.717 419.664C149.866 419.622 149.994 419.529 150.08 419.4L150.79 418.4C150.884 418.274 150.927 418.117 150.912 417.96C150.898 417.803 150.826 417.657 150.71 417.55L149.59 416.46C149.515 416.382 149.461 416.286 149.435 416.181C149.409 416.075 149.41 415.965 149.44 415.86C149.457 415.773 149.495 415.691 149.551 415.621C149.606 415.551 149.678 415.496 149.76 415.46L151.27 414.91C151.414 414.86 151.535 414.76 151.61 414.627C151.685 414.495 151.71 414.34 151.68 414.19L151.47 412.97C151.444 412.824 151.369 412.691 151.255 412.594C151.142 412.497 150.999 412.443 150.85 412.44H149.29H149.16C149.087 412.413 149.017 412.38 148.95 412.34C148.887 412.298 148.833 412.243 148.79 412.18C148.737 412.098 148.704 412.005 148.694 411.908C148.684 411.81 148.696 411.712 148.73 411.62L149.4 410.18C149.4 410.18 149.4 410.07 149.4 410.05C149.429 409.924 149.421 409.792 149.374 409.671C149.328 409.549 149.246 409.445 149.14 409.37L148.14 408.67C148.102 408.636 148.058 408.609 148.01 408.59C147.891 408.547 147.762 408.538 147.638 408.564C147.514 408.591 147.401 408.652 147.31 408.74L146.25 409.85C146.178 409.922 146.089 409.975 145.991 410.003C145.893 410.031 145.789 410.034 145.69 410.01C145.604 409.994 145.522 409.96 145.449 409.91C145.377 409.86 145.316 409.795 145.27 409.72L144.71 408.17C144.656 408.029 144.555 407.911 144.424 407.836C144.292 407.761 144.139 407.734 143.99 407.76L142.77 407.98C142.62 408.007 142.484 408.085 142.387 408.203C142.29 408.32 142.238 408.468 142.24 408.62V410.17C142.227 410.318 142.167 410.458 142.07 410.57L141.99 410.65C141.909 410.72 141.81 410.767 141.705 410.786C141.599 410.805 141.491 410.796 141.39 410.76L139.95 410.08C139.863 410.039 139.767 410.017 139.67 410.017C139.573 410.017 139.478 410.039 139.39 410.08C139.29 410.133 139.205 410.208 139.14 410.3L138.44 411.3C138.358 411.412 138.314 411.547 138.314 411.685C138.314 411.824 138.358 411.959 138.44 412.07L139.62 413.22L139.69 413.3C139.781 413.443 139.814 413.615 139.78 413.78C139.74 413.949 139.64 414.098 139.5 414.2C139.467 414.206 139.433 414.206 139.4 414.2L137.94 414.72C137.798 414.774 137.679 414.875 137.602 415.006C137.525 415.137 137.496 415.29 137.52 415.44L137.75 416.66C137.774 416.81 137.851 416.945 137.967 417.043C138.082 417.14 138.229 417.192 138.38 417.19H139.95C140.064 417.201 140.174 417.239 140.27 417.3C140.362 417.358 140.435 417.442 140.48 417.54C140.513 417.614 140.53 417.694 140.53 417.775C140.53 417.856 140.513 417.936 140.48 418.01L139.8 419.46C139.731 419.599 139.715 419.758 139.755 419.907C139.796 420.057 139.89 420.186 140.02 420.27L141.02 420.98C141.145 421.07 141.299 421.113 141.453 421.1C141.607 421.087 141.751 421.02 141.86 420.91L142.94 419.79C143.016 419.74 143.101 419.705 143.19 419.688C143.279 419.671 143.371 419.672 143.46 419.69V419.67Z" fill="#3B7CFF"/>
<path d="M144.63 417.99C143.902 417.986 143.198 417.728 142.639 417.261C142.081 416.793 141.702 416.146 141.57 415.43C141.496 415.028 141.502 414.615 141.588 414.215C141.674 413.815 141.837 413.436 142.07 413.1C142.375 412.657 142.789 412.301 143.272 412.065C143.755 411.83 144.291 411.723 144.828 411.756C145.364 411.788 145.883 411.959 146.335 412.251C146.786 412.543 147.154 412.947 147.403 413.423C147.653 413.899 147.775 414.432 147.758 414.969C147.741 415.506 147.585 416.03 147.306 416.489C147.027 416.949 146.634 417.328 146.165 417.591C145.696 417.854 145.167 417.992 144.63 417.99ZM142.78 413.59C142.523 413.956 142.381 414.391 142.371 414.838C142.362 415.285 142.485 415.725 142.726 416.103C142.967 416.48 143.314 416.777 143.724 416.956C144.134 417.136 144.587 417.19 145.028 417.111C145.468 417.033 145.875 416.825 146.198 416.515C146.52 416.205 146.743 415.806 146.839 415.369C146.934 414.932 146.898 414.476 146.734 414.06C146.571 413.644 146.287 413.285 145.92 413.03C145.677 412.86 145.403 412.739 145.114 412.676C144.824 412.612 144.525 412.605 144.234 412.657C143.942 412.71 143.663 412.819 143.414 412.979C143.164 413.139 142.949 413.346 142.78 413.59Z" fill="#3B7CFF"/>
<path d="M24.6702 492.231C24.5879 492.232 24.5062 492.217 24.4298 492.186C24.3534 492.156 24.284 492.11 24.2253 492.053C24.1667 491.995 24.1202 491.926 24.0884 491.85C24.0566 491.775 24.0402 491.693 24.0402 491.611L23.9502 476.181C23.9504 476.016 24.0151 475.858 24.1302 475.741C24.2492 475.62 24.411 475.552 24.5802 475.551H47.7603C47.9124 475.57 48.0523 475.644 48.1537 475.759C48.2551 475.874 48.311 476.022 48.311 476.176C48.311 476.329 48.2551 476.477 48.1537 476.592C48.0523 476.707 47.9124 476.781 47.7603 476.801H25.2002L25.2802 491.601C25.2802 491.766 25.2152 491.925 25.0992 492.043C24.9832 492.161 24.8255 492.228 24.6602 492.231H24.6702Z" fill="white"/>
<path d="M25.1597 491.621C26.473 491.613 27.7591 491.995 28.8554 492.718C29.9517 493.441 30.8089 494.473 31.3188 495.683C31.8286 496.893 31.9682 498.228 31.7198 499.517C31.4713 500.807 30.846 501.994 29.923 502.928C29 503.862 27.8207 504.502 26.5342 504.766C25.2478 505.03 23.912 504.906 22.6957 504.411C21.4794 503.916 20.4373 503.071 19.7011 501.983C18.9649 500.896 18.5677 499.614 18.5598 498.301C18.5532 497.429 18.7188 496.564 19.0472 495.756C19.3755 494.947 19.8602 494.212 20.4733 493.591C21.0865 492.971 21.816 492.477 22.6202 492.139C23.4244 491.801 24.2874 491.625 25.1597 491.621Z" fill="#76EEE3"/>
<path d="M25.2001 505.53C23.2806 505.528 21.4401 504.766 20.08 503.412C18.7199 502.057 17.9507 500.22 17.9401 498.3C17.9335 497.346 18.1151 496.4 18.4745 495.516C18.8339 494.632 19.3641 493.827 20.0347 493.148C20.7053 492.47 21.503 491.929 22.3825 491.559C23.262 491.189 24.2058 490.995 25.1601 490.99H25.2101C27.1383 490.99 28.9874 491.756 30.3508 493.12C31.7141 494.483 32.4802 496.332 32.4802 498.26C32.4802 500.188 31.7141 502.037 30.3508 503.401C28.9874 504.764 27.1383 505.53 25.2101 505.53H25.2001ZM25.2001 492.24C23.8125 492.248 22.4704 492.737 21.4026 493.623C20.3349 494.51 19.6074 495.739 19.3439 497.101C19.0805 498.464 19.2975 499.875 19.9579 501.096C20.6184 502.316 21.6815 503.27 22.9661 503.795C24.2508 504.319 25.6776 504.383 27.0036 503.974C28.3296 503.564 29.4728 502.708 30.2386 501.551C31.0043 500.394 31.3452 499.007 31.2033 497.626C31.0614 496.246 30.4454 494.957 29.4601 493.98C28.8959 493.421 28.2261 492.979 27.4897 492.68C26.7532 492.381 25.9648 492.232 25.1701 492.24H25.2001Z" fill="white"/>
<path d="M401.8 394.361H385.61C385.521 394.372 385.431 394.364 385.346 394.338C385.26 394.312 385.181 394.267 385.114 394.208C385.047 394.149 384.994 394.076 384.957 393.995C384.92 393.913 384.901 393.825 384.901 393.736C384.901 393.646 384.92 393.558 384.957 393.476C384.994 393.395 385.047 393.322 385.114 393.263C385.181 393.204 385.26 393.16 385.346 393.133C385.431 393.107 385.521 393.099 385.61 393.111H401.17L401.08 378.311C401.08 378.145 401.145 377.987 401.261 377.869C401.377 377.751 401.535 377.683 401.7 377.681C401.865 377.681 402.022 377.746 402.138 377.862C402.255 377.979 402.32 378.136 402.32 378.301L402.41 393.731C402.411 393.814 402.396 393.896 402.365 393.974C402.334 394.051 402.288 394.121 402.23 394.181C402.116 394.294 401.961 394.359 401.8 394.361Z" fill="white"/>
<path d="M401.21 378.301C399.894 378.311 398.605 377.93 397.505 377.206C396.406 376.483 395.546 375.45 395.034 374.237C394.522 373.025 394.381 371.688 394.63 370.395C394.878 369.103 395.505 367.913 396.43 366.977C397.355 366.041 398.537 365.4 399.826 365.136C401.115 364.872 402.454 364.997 403.673 365.494C404.891 365.991 405.935 366.839 406.671 367.929C407.408 369.02 407.804 370.305 407.81 371.621C407.818 373.381 407.128 375.073 405.891 376.325C404.653 377.577 402.97 378.288 401.21 378.301Z" fill="#76EEE3"/>
<path d="M401.17 378.921C399.251 378.921 397.411 378.161 396.05 376.809C394.69 375.456 393.92 373.619 393.91 371.701C393.897 370.747 394.074 369.801 394.432 368.917C394.789 368.032 395.318 367.228 395.99 366.551C397.348 365.175 399.197 364.395 401.13 364.381C403.058 364.381 404.907 365.147 406.27 366.51C407.634 367.874 408.4 369.723 408.4 371.651C408.4 373.579 407.634 375.428 406.27 376.792C404.907 378.155 403.058 378.921 401.13 378.921H401.17ZM401.17 365.631C400.376 365.634 399.591 365.795 398.859 366.104C398.128 366.413 397.466 366.864 396.91 367.431C396.069 368.273 395.497 369.346 395.267 370.514C395.038 371.682 395.161 372.892 395.621 373.989C396.081 375.087 396.857 376.023 397.85 376.679C398.844 377.334 400.01 377.68 401.2 377.671C402.791 377.671 404.317 377.039 405.442 375.914C406.568 374.788 407.2 373.262 407.2 371.671C407.2 370.08 406.568 368.553 405.442 367.428C404.317 366.303 402.791 365.671 401.2 365.671L401.17 365.631Z" fill="white"/>
<path d="M166.402 47.9001V99.0401L210.692 124.61L254.972 99.0401V47.9001L210.692 22.3301L166.402 47.9001Z" fill="white"/>
<path d="M227.422 94.1209C229.522 94.1189 231.557 93.3888 233.179 92.055C234.802 90.7212 235.912 88.8662 236.32 86.806C236.728 84.7458 236.41 82.6077 235.418 80.756C234.427 78.9042 232.825 77.4534 230.884 76.6505C228.943 75.8477 226.784 75.7424 224.774 76.3528C222.765 76.9631 221.029 78.2512 219.862 79.9978C218.696 81.7443 218.171 83.8412 218.377 85.9314C218.583 88.0215 219.507 89.9757 220.992 91.4609C222.699 93.1635 225.011 94.12 227.422 94.1209Z" fill="white"/>
<path d="M153.552 40.4805V106.48L210.692 139.48L267.822 106.48V40.4805L210.692 7.48047L153.552 40.4805Z" stroke="white" stroke-width="1.72" stroke-linecap="round" stroke-linejoin="round"/>
<path d="M210.692 144.941C211.779 144.942 212.841 144.618 213.742 144.011C214.658 143.409 215.373 142.547 215.795 141.536C216.218 140.525 216.329 139.411 216.114 138.337C215.899 137.262 215.368 136.276 214.589 135.506C213.81 134.735 212.819 134.215 211.742 134.011C210.675 133.792 209.567 133.9 208.562 134.321C207.562 134.733 206.703 135.428 206.092 136.321C205.54 137.15 205.223 138.112 205.175 139.107C205.127 140.102 205.351 141.09 205.821 141.968C206.291 142.846 206.99 143.579 207.845 144.091C208.699 144.602 209.676 144.872 210.672 144.871L210.692 144.941Z" stroke="white" stroke-width="3.83" stroke-linecap="round" stroke-linejoin="round"/>
<path d="M210.692 144.941C211.779 144.942 212.841 144.618 213.742 144.011C214.658 143.409 215.373 142.547 215.795 141.536C216.218 140.525 216.329 139.411 216.114 138.337C215.899 137.262 215.368 136.276 214.589 135.506C213.81 134.735 212.819 134.215 211.742 134.011C210.675 133.792 209.567 133.9 208.562 134.321C207.562 134.733 206.703 135.428 206.092 136.321C205.54 137.15 205.223 138.112 205.175 139.107C205.127 140.102 205.351 141.09 205.821 141.968C206.291 142.846 206.99 143.579 207.845 144.091C208.699 144.602 209.676 144.872 210.672 144.871L210.692 144.941Z" fill="#C4C4C4"/>
<path d="M210.692 144.941C211.779 144.942 212.841 144.618 213.742 144.011C214.658 143.409 215.373 142.547 215.795 141.536C216.218 140.525 216.329 139.411 216.114 138.337C215.899 137.262 215.368 136.276 214.589 135.506C213.81 134.735 212.819 134.215 211.742 134.011C210.675 133.792 209.567 133.9 208.562 134.321C207.562 134.733 206.703 135.428 206.092 136.321C205.54 137.15 205.223 138.112 205.175 139.107C205.127 140.102 205.351 141.09 205.821 141.968C206.291 142.846 206.99 143.579 207.845 144.091C208.699 144.602 209.676 144.872 210.672 144.871L210.692 144.941Z" fill="url(#paint0_linear)"/>
<path d="M210.692 13C211.964 12.9996 213.197 12.558 214.181 11.7504C215.164 10.9429 215.837 9.81939 216.085 8.57133C216.332 7.32328 216.14 6.02791 215.54 4.9059C214.94 3.78389 213.969 2.90468 212.793 2.41807C211.618 1.93147 210.31 1.86756 209.092 2.23726C207.875 2.60696 206.823 3.38737 206.116 4.44554C205.409 5.50371 205.092 6.77418 205.217 8.04045C205.342 9.30672 205.902 10.4905 206.802 11.39C207.835 12.4186 209.234 12.9972 210.692 13V13Z" stroke="white" stroke-width="3.83" stroke-linecap="round" stroke-linejoin="round"/>
<path d="M210.692 13C211.964 12.9996 213.197 12.558 214.181 11.7504C215.164 10.9429 215.837 9.81939 216.085 8.57133C216.332 7.32328 216.14 6.0279 215.54 4.9059C214.94 3.78389 213.969 2.90468 212.793 2.41807C211.618 1.93147 210.31 1.86756 209.092 2.23726C207.875 2.60696 206.823 3.38737 206.116 4.44554C205.409 5.50371 205.092 6.77418 205.217 8.04045C205.342 9.30672 205.902 10.4905 206.802 11.39C207.835 12.4186 209.234 12.9972 210.692 13Z" fill="#C4C4C4"/>
<path d="M210.692 13C211.964 12.9996 213.197 12.558 214.181 11.7504C215.164 10.9429 215.837 9.81939 216.085 8.57133C216.332 7.32328 216.14 6.0279 215.54 4.9059C214.94 3.78389 213.969 2.90468 212.793 2.41807C211.618 1.93147 210.31 1.86756 209.092 2.23726C207.875 2.60696 206.823 3.38737 206.116 4.44554C205.409 5.50371 205.092 6.77418 205.217 8.04045C205.342 9.30672 205.902 10.4905 206.802 11.39C207.835 12.4186 209.234 12.9972 210.692 13Z" fill="url(#paint1_linear)"/>
<path d="M267.362 112.001C268.45 112.006 269.515 111.686 270.42 111.082C271.326 110.478 272.03 109.618 272.442 108.611C272.859 107.605 272.968 106.498 272.756 105.43C272.544 104.363 272.021 103.381 271.252 102.611C270.483 101.839 269.501 101.313 268.432 101.101C267.368 100.892 266.266 101 265.262 101.411C264.088 101.898 263.119 102.777 262.519 103.899C261.92 105.02 261.728 106.314 261.975 107.562C262.223 108.809 262.895 109.931 263.877 110.739C264.859 111.547 266.091 111.989 267.362 111.991V112.001Z" stroke="white" stroke-width="3.83" stroke-linecap="round" stroke-linejoin="round"/>
<path d="M267.362 112.001C268.45 112.006 269.515 111.686 270.42 111.082C271.326 110.478 272.03 109.618 272.442 108.611C272.859 107.605 272.968 106.498 272.756 105.43C272.544 104.363 272.021 103.381 271.252 102.611C270.483 101.839 269.501 101.313 268.432 101.101C267.368 100.892 266.266 101 265.262 101.411C264.088 101.898 263.119 102.777 262.519 103.899C261.92 105.02 261.728 106.314 261.975 107.562C262.223 108.809 262.895 109.931 263.877 110.739C264.859 111.547 266.091 111.989 267.362 111.991V112.001Z" fill="#C4C4C4"/>
<path d="M267.362 112.001C268.45 112.006 269.515 111.686 270.42 111.082C271.326 110.478 272.03 109.618 272.442 108.611C272.859 107.605 272.968 106.498 272.756 105.43C272.544 104.363 272.021 103.381 271.252 102.611C270.483 101.839 269.501 101.313 268.432 101.101C267.368 100.892 266.266 101 265.262 101.411C264.088 101.898 263.119 102.777 262.519 103.899C261.92 105.02 261.728 106.314 261.975 107.562C262.223 108.809 262.895 109.931 263.877 110.739C264.859 111.547 266.091 111.989 267.362 111.991V112.001Z" fill="url(#paint2_linear)"/>
<path d="M153.552 46.1908C154.639 46.1875 155.702 45.863 156.606 45.2581C157.509 44.6532 158.214 43.7948 158.632 42.7907C159.043 41.787 159.151 40.685 158.942 39.6207C158.73 38.5517 158.204 37.57 157.432 36.8007C156.661 36.0318 155.68 35.5085 154.612 35.2967C153.544 35.0849 152.438 35.1942 151.432 35.6107C150.425 36.0233 149.564 36.7273 148.96 37.6324C148.356 38.5376 148.037 39.6026 148.042 40.6908C148.042 42.1494 148.621 43.5484 149.653 44.5798C150.684 45.6113 152.083 46.1908 153.542 46.1908H153.552Z" stroke="white" stroke-width="3.83" stroke-linecap="round" stroke-linejoin="round"/>
<path d="M153.552 46.1908C154.639 46.1875 155.702 45.863 156.606 45.2581C157.509 44.6532 158.214 43.7948 158.632 42.7907C159.043 41.787 159.151 40.685 158.942 39.6207C158.73 38.5517 158.204 37.57 157.432 36.8007C156.661 36.0318 155.68 35.5085 154.612 35.2967C153.544 35.0849 152.438 35.1942 151.432 35.6107C150.425 36.0233 149.564 36.7273 148.96 37.6324C148.356 38.5376 148.037 39.6026 148.042 40.6908C148.042 42.1494 148.621 43.5484 149.653 44.5798C150.684 45.6113 152.083 46.1908 153.542 46.1908H153.552Z" fill="#C4C4C4"/>
<path d="M153.552 46.1908C154.639 46.1875 155.702 45.863 156.606 45.2581C157.509 44.6532 158.214 43.7948 158.632 42.7907C159.043 41.787 159.151 40.685 158.942 39.6207C158.73 38.5517 158.204 37.57 157.432 36.8007C156.661 36.0318 155.68 35.5085 154.612 35.2967C153.544 35.0849 152.438 35.1942 151.432 35.6107C150.425 36.0233 149.564 36.7273 148.96 37.6324C148.356 38.5376 148.037 39.6026 148.042 40.6908C148.042 42.1494 148.621 43.5484 149.653 44.5798C150.684 45.6113 152.083 46.1908 153.542 46.1908H153.552Z" fill="url(#paint3_linear)"/>
<path d="M267.822 46.1901C268.634 46.1873 269.436 46.0052 270.169 45.6569C270.903 45.3086 271.551 44.8026 272.067 44.1751C272.583 43.5476 272.954 42.814 273.153 42.0266C273.353 41.2393 273.376 40.4175 273.222 39.6201C273.006 38.5525 272.481 37.5719 271.712 36.8001C270.944 36.0329 269.966 35.5108 268.902 35.3001C267.835 35.0809 266.727 35.189 265.722 35.6101C264.715 36.0244 263.855 36.7286 263.25 37.6331C262.644 38.5376 262.321 39.6017 262.322 40.6901C262.324 42.148 262.905 43.5454 263.936 44.5762C264.966 45.6071 266.364 46.1875 267.822 46.1901V46.1901Z" stroke="white" stroke-width="3.83" stroke-linecap="round" stroke-linejoin="round"/>
<path d="M267.822 46.1901C268.634 46.1873 269.436 46.0052 270.169 45.6569C270.903 45.3086 271.551 44.8026 272.067 44.1751C272.583 43.5476 272.954 42.814 273.153 42.0266C273.353 41.2393 273.376 40.4175 273.222 39.6201C273.006 38.5525 272.481 37.5719 271.712 36.8001C270.944 36.0329 269.966 35.5108 268.902 35.3001C267.835 35.0809 266.727 35.189 265.722 35.6101C264.715 36.0244 263.855 36.7286 263.25 37.6331C262.644 38.5376 262.321 39.6017 262.322 40.6901C262.324 42.148 262.905 43.5454 263.936 44.5762C264.966 45.6071 266.364 46.1875 267.822 46.1901Z" fill="#C4C4C4"/>
<path d="M267.822 46.1901C268.634 46.1873 269.436 46.0052 270.169 45.6569C270.903 45.3086 271.551 44.8026 272.067 44.1751C272.583 43.5476 272.954 42.814 273.153 42.0266C273.353 41.2393 273.376 40.4175 273.222 39.6201C273.006 38.5525 272.481 37.5719 271.712 36.8001C270.944 36.0329 269.966 35.5108 268.902 35.3001C267.835 35.0809 266.727 35.189 265.722 35.6101C264.715 36.0244 263.855 36.7286 263.25 37.6331C262.644 38.5376 262.321 39.6017 262.322 40.6901C262.324 42.148 262.905 43.5454 263.936 44.5762C264.966 45.6071 266.364 46.1875 267.822 46.1901Z" fill="url(#paint4_linear)"/>
<path d="M153.552 112.001C154.62 111.992 155.663 111.673 156.552 111.081C157.458 110.477 158.165 109.618 158.581 108.612C158.998 107.606 159.106 106.498 158.892 105.431C158.686 104.364 158.163 103.385 157.392 102.621C156.623 101.849 155.641 101.323 154.572 101.111C153.504 100.902 152.399 101.01 151.392 101.421C150.217 101.908 149.247 102.788 148.648 103.911C148.049 105.033 147.857 106.329 148.106 107.576C148.355 108.824 149.029 109.947 150.013 110.754C150.996 111.56 152.23 112.001 153.502 112.001H153.552Z" stroke="white" stroke-width="3.83" stroke-linecap="round" stroke-linejoin="round"/>
<path d="M153.552 112.001C154.62 111.992 155.663 111.673 156.552 111.081C157.458 110.477 158.165 109.618 158.581 108.612C158.998 107.606 159.106 106.498 158.892 105.431C158.686 104.364 158.163 103.385 157.392 102.621C156.623 101.849 155.641 101.323 154.572 101.111C153.504 100.902 152.399 101.01 151.392 101.421C150.217 101.908 149.247 102.788 148.648 103.911C148.049 105.033 147.857 106.329 148.106 107.576C148.355 108.824 149.029 109.947 150.013 110.754C150.996 111.56 152.23 112.001 153.502 112.001H153.552Z" fill="#C4C4C4"/>
<path d="M153.552 112.001C154.62 111.992 155.663 111.673 156.552 111.081C157.458 110.477 158.165 109.618 158.581 108.612C158.998 107.606 159.106 106.498 158.892 105.431C158.686 104.364 158.163 103.385 157.392 102.621C156.623 101.849 155.641 101.323 154.572 101.111C153.504 100.902 152.399 101.01 151.392 101.421C150.217 101.908 149.247 102.788 148.648 103.911C148.049 105.033 147.857 106.329 148.106 107.576C148.355 108.824 149.029 109.947 150.013 110.754C150.996 111.56 152.23 112.001 153.502 112.001H153.552Z" fill="url(#paint5_linear)"/>
<path d="M209.542 95.5314H193.392M214.362 54.9414H197.602H214.362ZM220.602 61.1214H193.392H220.602ZM220.602 65.7014H193.392H220.602ZM209.542 71.8814H193.392H209.542ZM209.542 76.9914H193.392H209.542ZM209.542 83.1714H193.392H209.542ZM209.542 89.3514H193.392H209.542Z" stroke="#3B7CFF" stroke-width="1.06" stroke-linecap="round" stroke-linejoin="round"/>
<path d="M241.562 70.8901H240.042C237.821 70.8932 235.626 70.4064 233.614 69.4644C231.602 68.5224 229.822 67.1483 228.402 65.4401L228.192 65.2001C228.098 65.0851 227.98 64.9924 227.846 64.9287C227.712 64.8651 227.566 64.832 227.417 64.832C227.269 64.832 227.122 64.8651 226.988 64.9287C226.854 64.9924 226.736 65.0851 226.642 65.2001L226.442 65.4401C225.021 67.1473 223.241 68.5206 221.23 69.4625C219.218 70.4044 217.023 70.8918 214.802 70.8901H213.282C213.017 70.8901 212.763 70.9954 212.575 71.183C212.388 71.3705 212.282 71.6249 212.282 71.8901V88.2501C212.284 90.208 212.801 92.1308 213.783 93.8249C214.764 95.5191 216.175 96.9246 217.872 97.9001L226.932 103.07C227.085 103.156 227.257 103.201 227.432 103.2C227.607 103.201 227.78 103.156 227.932 103.07L236.982 97.9001C238.681 96.9251 240.093 95.52 241.076 93.8259C242.059 92.1318 242.579 90.2087 242.582 88.2501V71.9001C242.584 71.7662 242.558 71.6334 242.507 71.5096C242.456 71.3858 242.381 71.2735 242.286 71.1793C242.191 71.0851 242.078 71.011 241.953 70.9613C241.829 70.9116 241.696 70.8874 241.562 70.8901Z" fill="#C4C4C4"/>
<path d="M241.562 70.8901H240.042C237.821 70.8932 235.626 70.4064 233.614 69.4644C231.602 68.5224 229.822 67.1483 228.402 65.4401L228.192 65.2001C228.098 65.0851 227.98 64.9924 227.846 64.9287C227.712 64.8651 227.566 64.832 227.417 64.832C227.269 64.832 227.122 64.8651 226.988 64.9287C226.854 64.9924 226.736 65.0851 226.642 65.2001L226.442 65.4401C225.021 67.1473 223.241 68.5206 221.23 69.4625C219.218 70.4044 217.023 70.8918 214.802 70.8901H213.282C213.017 70.8901 212.763 70.9954 212.575 71.183C212.388 71.3705 212.282 71.6249 212.282 71.8901V88.2501C212.284 90.208 212.801 92.1308 213.783 93.8249C214.764 95.5191 216.175 96.9246 217.872 97.9001L226.932 103.07C227.085 103.156 227.257 103.201 227.432 103.2C227.607 103.201 227.78 103.156 227.932 103.07L236.982 97.9001C238.681 96.9251 240.093 95.52 241.076 93.8259C242.059 92.1318 242.579 90.2087 242.582 88.2501V71.9001C242.584 71.7662 242.558 71.6334 242.507 71.5096C242.456 71.3858 242.381 71.2735 242.286 71.1793C242.191 71.0851 242.078 71.011 241.953 70.9613C241.829 70.9116 241.696 70.8874 241.562 70.8901Z" fill="url(#paint6_linear)"/>
<path d="M241.562 70.8901H240.042C237.821 70.8932 235.626 70.4064 233.614 69.4644C231.602 68.5224 229.822 67.1483 228.402 65.4401L228.192 65.2001C228.098 65.0851 227.98 64.9924 227.846 64.9287C227.712 64.8651 227.566 64.832 227.417 64.832C227.269 64.832 227.122 64.8651 226.988 64.9287C226.854 64.9924 226.736 65.0851 226.642 65.2001L226.442 65.4401C225.021 67.1473 223.241 68.5206 221.23 69.4625C219.218 70.4044 217.023 70.8918 214.802 70.8901H213.282C213.017 70.8901 212.763 70.9954 212.575 71.183C212.388 71.3705 212.282 71.6249 212.282 71.8901V88.2501C212.284 90.2079 212.801 92.1308 213.783 93.8249C214.764 95.5191 216.175 96.9246 217.872 97.9001L226.932 103.07C227.085 103.156 227.257 103.201 227.432 103.2C227.607 103.201 227.78 103.156 227.932 103.07L236.982 97.9001C238.681 96.9251 240.093 95.52 241.076 93.8259C242.059 92.1318 242.579 90.2087 242.582 88.2501V71.9001C242.584 71.7662 242.558 71.6334 242.507 71.5096C242.456 71.3858 242.381 71.2735 242.286 71.1793C242.191 71.0851 242.078 71.011 241.953 70.9613C241.829 70.9116 241.696 70.8874 241.562 70.8901V70.8901Z" stroke="#3B7CFF" stroke-width="1.06" stroke-linecap="round" stroke-linejoin="round"/>
<path d="M227.422 94.1205C225.624 94.1205 223.867 93.5874 222.372 92.5885C220.877 91.5897 219.712 90.1701 219.024 88.5091C218.336 86.8481 218.156 85.0204 218.507 83.2571C218.857 81.4938 219.723 79.8741 220.994 78.6029C222.266 77.3316 223.885 76.4658 225.649 76.1151C227.412 75.7644 229.24 75.9444 230.901 76.6324C232.562 77.3204 233.981 78.4855 234.98 79.9803C235.979 81.4752 236.512 83.2326 236.512 85.0304C236.509 87.4404 235.551 89.751 233.847 91.4551C232.143 93.1593 229.832 94.1178 227.422 94.1205Z" fill="white" stroke="#3B7CFF" stroke-width="1.06" stroke-linecap="round" stroke-linejoin="round"/>
<path d="M227.422 53.6807V61.8007" stroke="#3B7CFF" stroke-width="1.06" stroke-linecap="round" stroke-linejoin="round"/>
<path d="M221.362 103.21H186.852V45.4102H220.062" stroke="#3B7CFF" stroke-width="1.06" stroke-linecap="round" stroke-linejoin="round"/>
<path d="M191.062 45.4112V41.4512H231.732V63.3812" stroke="#3B7CFF" stroke-width="1.06" stroke-linecap="round" stroke-linejoin="round"/>
<path d="M227.422 53.681L220.062 45.541V53.681H227.422Z" stroke="#3B7CFF" stroke-width="1.06" stroke-linecap="round" stroke-linejoin="round"/>
<path d="M226.752 89.0199C226.422 89.0199 226.302 88.76 226.142 88.58C225.512 87.85 224.892 87.11 224.272 86.37C223.982 86.03 223.992 85.75 224.272 85.58C224.552 85.41 224.722 85.5799 224.882 85.7699L226.482 87.65C226.642 87.97 226.782 87.81 226.952 87.65L230.492 84.38L231.372 83.6C231.43 83.567 231.494 83.5473 231.561 83.5423C231.627 83.5373 231.694 83.5471 231.756 83.571C231.818 83.595 231.874 83.6323 231.92 83.6806C231.966 83.7288 232.001 83.7867 232.022 83.85C232.122 84.24 231.812 84.38 231.612 84.57L228.102 87.8L226.872 88.91C226.845 88.959 226.803 88.9977 226.752 89.0199Z" stroke="#3B7CFF" stroke-width="1.06" stroke-linecap="round" stroke-linejoin="round"/>
<path d="M94.8927 206.99V196.036H109.229C109.43 195.473 109.43 194.949 109.229 194.385H94.8927V184.116H110.397C110.598 183.553 110.598 183.029 110.397 182.465H93V208.641H110.397C110.598 208.117 110.598 207.554 110.397 206.99H94.8927Z" fill="white"/>
<path d="M118.134 206.99V182.465C117.49 182.224 116.846 182.224 116.242 182.465V208.641H133.075C133.276 208.117 133.276 207.554 133.075 206.99H118.134Z" fill="white"/>
<path d="M140.432 206.99V196.036H154.769C154.97 195.473 154.97 194.949 154.769 194.385H140.432V184.116H155.936C156.138 183.553 156.138 183.029 155.936 182.465H138.54V208.641H155.936C156.138 208.117 156.138 207.554 155.936 206.99H140.432Z" fill="white"/>
<path d="M174.668 207.594C171.205 207.594 168.345 206.466 166.09 204.131C163.835 201.835 162.708 198.976 162.708 195.553C162.708 192.17 163.835 189.311 166.09 186.976C168.345 184.68 171.205 183.512 174.668 183.512C178.051 183.512 180.99 184.479 183.487 186.331C183.568 186.21 183.648 185.888 183.648 185.405C183.648 184.922 183.568 184.6 183.487 184.439C181.111 182.747 178.171 181.861 174.628 181.861C170.56 181.861 167.218 183.19 164.641 185.848C162.063 188.506 160.775 191.727 160.775 195.553C160.775 199.419 162.063 202.641 164.641 205.298C167.218 207.956 170.56 209.245 174.628 209.245C178.171 209.245 181.111 208.399 183.487 206.668C183.568 206.547 183.648 206.225 183.648 205.741C183.648 205.258 183.568 204.936 183.487 204.775C180.99 206.668 178.051 207.594 174.668 207.594Z" fill="white"/>
<path d="M188.946 182.465C188.704 183.029 188.704 183.553 188.946 184.116H198.047V208.641C198.691 208.923 199.336 208.923 199.98 208.641V184.116H209.121C209.282 183.553 209.282 183.029 209.121 182.465H188.946Z" fill="white"/>
<path d="M214.597 182.465V208.641C215.241 208.923 215.845 208.923 216.489 208.641V198.815H224.342L231.872 208.641C232.114 208.762 232.476 208.802 232.96 208.802C233.443 208.802 233.805 208.762 234.087 208.641L226.355 198.573C228.691 198.211 230.503 197.285 231.711 195.835C232.919 194.385 233.523 192.654 233.523 190.64C233.523 188.305 232.678 186.372 231.067 184.801C229.416 183.271 227.04 182.465 223.979 182.465H214.597ZM216.529 184.116H224.02C226.516 184.116 228.409 184.761 229.698 185.969C230.946 187.217 231.59 188.788 231.59 190.64C231.59 192.533 230.946 194.103 229.698 195.312C228.409 196.56 226.516 197.164 224.02 197.164H216.529V184.116Z" fill="white"/>
<path d="M252.371 181.861C248.384 181.861 245.122 183.19 242.545 185.848C239.968 188.506 238.719 191.727 238.719 195.553C238.719 199.419 239.968 202.641 242.545 205.298C245.122 207.956 248.384 209.245 252.371 209.245C256.317 209.245 259.619 207.956 262.197 205.298C264.774 202.641 266.063 199.419 266.063 195.553C266.063 191.727 264.774 188.506 262.197 185.848C259.619 183.19 256.317 181.861 252.371 181.861ZM252.371 183.512C255.753 183.512 258.572 184.68 260.787 186.976C263.002 189.271 264.13 192.13 264.13 195.553C264.13 199.016 263.002 201.876 260.787 204.171C258.572 206.466 255.753 207.594 252.371 207.594C248.988 207.594 246.169 206.466 243.954 204.171C241.739 201.876 240.652 199.016 240.652 195.553C240.652 192.13 241.739 189.271 243.954 186.976C246.169 184.68 248.988 183.512 252.371 183.512Z" fill="white"/>
<path d="M272.642 182.465V208.641H280.978C285.367 208.641 288.75 207.393 291.166 204.896C293.582 202.399 294.79 199.298 294.79 195.553C294.79 191.848 293.582 188.707 291.166 186.21C288.75 183.714 285.367 182.465 280.978 182.465H272.642ZM274.575 206.99V184.116H280.978C284.803 184.116 287.743 185.204 289.797 187.338C291.851 189.513 292.898 192.251 292.898 195.553C292.898 198.896 291.851 201.634 289.797 203.768C287.743 205.943 284.803 206.99 280.978 206.99H274.575Z" fill="white"/>
<path d="M313.995 181.861C310.008 181.861 306.746 183.19 304.169 185.848C301.592 188.506 300.343 191.727 300.343 195.553C300.343 199.419 301.592 202.641 304.169 205.298C306.746 207.956 310.008 209.245 313.995 209.245C317.941 209.245 321.243 207.956 323.821 205.298C326.398 202.641 327.687 199.419 327.687 195.553C327.687 191.727 326.398 188.506 323.821 185.848C321.243 183.19 317.941 181.861 313.995 181.861ZM313.995 183.512C317.378 183.512 320.196 184.68 322.411 186.976C324.626 189.271 325.754 192.13 325.754 195.553C325.754 199.016 324.626 201.876 322.411 204.171C320.196 206.466 317.378 207.594 313.995 207.594C310.612 207.594 307.793 206.466 305.578 204.171C303.364 201.876 302.276 199.016 302.276 195.553C302.276 192.13 303.364 189.271 305.578 186.976C307.793 184.68 310.612 183.512 313.995 183.512Z" fill="white"/>
<path d="M168.192 234.465V260.641H176.528C180.917 260.641 184.3 259.393 186.716 256.896C189.132 254.399 190.34 251.298 190.34 247.553C190.34 243.848 189.132 240.707 186.716 238.21C184.3 235.714 180.917 234.465 176.528 234.465H168.192ZM170.125 258.99V236.116H176.528C180.353 236.116 183.293 237.204 185.347 239.338C187.4 241.513 188.447 244.251 188.447 247.553C188.447 250.896 187.4 253.634 185.347 255.768C183.293 257.943 180.353 258.99 176.528 258.99H170.125Z" fill="white"/>
<path d="M209.545 233.861C205.558 233.861 202.296 235.19 199.719 237.848C197.141 240.506 195.893 243.727 195.893 247.553C195.893 251.419 197.141 254.641 199.719 257.298C202.296 259.956 205.558 261.245 209.545 261.245C213.491 261.245 216.793 259.956 219.37 257.298C221.948 254.641 223.236 251.419 223.236 247.553C223.236 243.727 221.948 240.506 219.37 237.848C216.793 235.19 213.491 233.861 209.545 233.861ZM209.545 235.512C212.927 235.512 215.746 236.68 217.961 238.976C220.176 241.271 221.303 244.13 221.303 247.553C221.303 251.016 220.176 253.876 217.961 256.171C215.746 258.466 212.927 259.594 209.545 259.594C206.162 259.594 203.343 258.466 201.128 256.171C198.913 253.876 197.826 251.016 197.826 247.553C197.826 244.13 198.913 241.271 201.128 238.976C203.343 236.68 206.162 235.512 209.545 235.512Z" fill="white"/>
<path d="M242.702 259.594C239.239 259.594 236.38 258.466 234.125 256.131C231.87 253.835 230.742 250.976 230.742 247.553C230.742 244.17 231.87 241.311 234.125 238.976C236.38 236.68 239.239 235.512 242.702 235.512C246.085 235.512 249.025 236.479 251.521 238.331C251.602 238.21 251.682 237.888 251.682 237.405C251.682 236.922 251.602 236.6 251.521 236.439C249.145 234.747 246.206 233.861 242.662 233.861C238.595 233.861 235.252 235.19 232.675 237.848C230.098 240.506 228.809 243.727 228.809 247.553C228.809 251.419 230.098 254.641 232.675 257.298C235.252 259.956 238.595 261.245 242.662 261.245C246.206 261.245 249.145 260.399 251.521 258.668C251.602 258.547 251.682 258.225 251.682 257.741C251.682 257.258 251.602 256.936 251.521 256.775C249.025 258.668 246.085 259.594 242.702 259.594Z" fill="white"/>
<defs>
<linearGradient id="paint0_linear" x1="204.953" y1="133.782" x2="220.006" y2="142.904" gradientUnits="userSpaceOnUse">
<stop stop-color="#4BE4C0"/>
<stop offset="0.334733" stop-color="#75EEE2"/>
<stop offset="1" stop-color="#8980F3"/>
</linearGradient>
<linearGradient id="paint1_linear" x1="204.975" y1="1.88172" x2="219.966" y2="10.9577" gradientUnits="userSpaceOnUse">
<stop stop-color="#4BE4C0"/>
<stop offset="0.334733" stop-color="#75EEE2"/>
<stop offset="1" stop-color="#8980F3"/>
</linearGradient>
<linearGradient id="paint2_linear" x1="261.655" y1="100.879" x2="276.644" y2="109.943" gradientUnits="userSpaceOnUse">
<stop stop-color="#4BE4C0"/>
<stop offset="0.334733" stop-color="#75EEE2"/>
<stop offset="1" stop-color="#8980F3"/>
</linearGradient>
<linearGradient id="paint3_linear" x1="147.827" y1="35.0731" x2="162.82" y2="44.1537" gradientUnits="userSpaceOnUse">
<stop stop-color="#4BE4C0"/>
<stop offset="0.334733" stop-color="#75EEE2"/>
<stop offset="1" stop-color="#8980F3"/>
</linearGradient>
<linearGradient id="paint4_linear" x1="262.107" y1="35.0712" x2="277.099" y2="44.148" gradientUnits="userSpaceOnUse">
<stop stop-color="#4BE4C0"/>
<stop offset="0.334733" stop-color="#75EEE2"/>
<stop offset="1" stop-color="#8980F3"/>
</linearGradient>
<linearGradient id="paint5_linear" x1="147.785" y1="100.889" x2="162.771" y2="109.966" gradientUnits="userSpaceOnUse">
<stop stop-color="#4BE4C0"/>
<stop offset="0.334733" stop-color="#75EEE2"/>
<stop offset="1" stop-color="#8980F3"/>
</linearGradient>
<linearGradient id="paint6_linear" x1="211.689" y1="64.4195" x2="257.62" y2="86.3792" gradientUnits="userSpaceOnUse">
<stop stop-color="#4BE4C0"/>
<stop offset="0.334733" stop-color="#75EEE2"/>
<stop offset="1" stop-color="#8980F3"/>
</linearGradient>
</defs>
</svg>
