<svg width="400" height="356" viewBox="0 0 400 356" fill="none" xmlns="http://www.w3.org/2000/svg">
    <path d="M355.532 343.97H37.0929C19.6756 313.337 26.59 275.386 50.1165 256.779C68.3391 242.311 94.5263 241.112 116.407 253.628C115.296 245.024 119.322 236.578 126.473 232.456C130.127 230.366 134.367 229.538 138.539 230.1C142.711 230.662 146.581 232.581 149.553 235.563C150.901 232.368 159.347 213.06 179.74 206.295C198.225 200.168 219.126 206.759 233.007 223.108C237.956 219.379 243.851 217.11 250.023 216.559C256.195 216.009 262.398 217.198 267.929 219.992C279.194 225.681 286.686 237.383 287.465 250.512C308.637 241.156 332.426 243.843 348.426 257.986C370.053 277.111 374.692 314.755 355.532 343.97Z" fill="#D4EBF8"/>
    <path d="M88.347 290.808C117.326 290.808 140.818 266.09 140.818 235.598C140.818 205.106 117.326 180.387 88.347 180.387C59.3682 180.387 35.8762 205.106 35.8762 235.598C35.8762 266.09 59.3682 290.808 88.347 290.808Z" fill="#D4EBF8"/>
    <path d="M180.895 251.107C209.874 251.107 233.366 226.389 233.366 195.897C233.366 165.405 209.874 140.686 180.895 140.686C151.916 140.686 128.424 165.405 128.424 195.897C128.424 226.389 151.916 251.107 180.895 251.107Z" fill="#D4EBF8"/>
    <path d="M122.534 209.069C131.805 209.069 139.321 201.161 139.321 191.407C139.321 181.652 131.805 173.744 122.534 173.744C113.263 173.744 105.747 181.652 105.747 191.407C105.747 201.161 113.263 209.069 122.534 209.069Z" fill="#D4EBF8"/>
    <path d="M215.367 307.621C219.439 291.819 209.929 275.707 194.127 271.635C178.324 267.562 162.212 277.072 158.14 292.875C154.068 308.678 163.577 324.789 179.38 328.862C195.183 332.934 211.295 323.424 215.367 307.621Z" fill="#C0DFED"/>
    <path d="M331.236 276.314C329.884 276.314 328.534 276.426 327.201 276.647C324.96 269.382 318.676 264.148 311.263 264.148C307.2 264.163 303.296 265.729 300.348 268.524C292.856 258.687 281.566 252.429 268.927 252.429C261.677 252.438 254.581 254.518 248.473 258.424C241.733 243.886 227.931 233.917 211.984 233.917C208.124 233.918 204.287 234.508 200.606 235.668C198.103 222.172 187.171 212.036 174.068 212.036C162.156 212.036 152.047 220.447 148.424 232.167C140.543 229.65 132.117 229.38 124.092 231.388C117.306 224.898 108.292 221.255 98.9025 221.209C77.5466 221.209 60.2168 240.132 60.2168 263.448C60.2068 269.024 61.2214 274.554 63.2101 279.763C55.8756 283.832 50.6153 291.718 49.6351 301.031C41.3903 302.239 35.0098 309.923 35.0098 319.245C35.0098 329.38 42.5456 337.625 51.8319 337.625C54.6047 337.594 57.3246 336.863 59.7392 335.5C62.1538 334.136 64.1847 332.185 65.6433 329.826C68.4706 331.012 71.505 331.625 74.5707 331.629C84.4435 331.629 92.9508 325.424 97.082 316.391C105.992 328.409 119.602 336.093 134.866 336.093C154.533 336.093 171.451 323.341 179.101 305.013C186.541 316.006 198.505 323.14 211.984 323.14C219.236 323.129 226.335 321.049 232.447 317.144C239.178 331.682 252.98 341.651 268.927 341.651C285.233 341.651 299.298 331.227 305.862 316.155C309.687 327.393 319.604 335.411 331.244 335.411C346.202 335.411 358.316 322.177 358.316 305.862C358.316 289.548 346.194 276.314 331.236 276.314Z" fill="url(#paint0_linear)"/>
    <path d="M35.0885 330.71C44.8474 328.855 51.8932 336.181 52.357 336.645C52.7859 335.148 57.0396 321.31 70.8422 316.418C77.0132 314.295 83.7164 314.295 89.8874 316.418C88.9772 314.036 88.7541 311.447 89.2436 308.945C89.733 306.443 90.9154 304.129 92.6559 302.266C94.3964 300.404 96.6252 299.067 99.0882 298.409C101.551 297.751 104.15 297.798 106.587 298.545C109.44 294.103 113.538 290.598 118.368 288.466C123.199 286.335 128.55 285.672 133.755 286.559C138.959 287.446 143.788 289.845 147.64 293.456C151.492 297.067 154.196 301.732 155.417 306.869C156.817 304.663 158.826 302.911 161.201 301.822C163.576 300.734 166.215 300.356 168.8 300.734C171.385 301.113 173.805 302.231 175.768 303.955C177.731 305.679 179.153 307.934 179.862 310.449C182.906 307.261 186.741 304.937 190.975 303.713C195.209 302.489 199.692 302.409 203.968 303.48C208.243 304.552 212.158 306.737 215.314 309.814C218.47 312.891 220.755 316.749 221.935 320.995C225.158 318.405 228.964 316.642 233.023 315.858C237.082 315.074 241.271 315.293 245.226 316.496C257.348 320.313 264.98 333.179 262.337 346.193H20.1831C21.6535 338.29 27.6577 332.111 35.0885 330.71Z" fill="url(#paint1_linear)"/>
    <path d="M172.117 334.045C181.876 332.19 188.921 339.515 189.385 339.979C189.814 338.474 194.068 324.645 207.87 319.744C214.042 317.626 220.744 317.626 226.916 319.744C226.009 317.362 225.788 314.775 226.279 312.274C226.77 309.774 227.953 307.462 229.692 305.6C231.432 303.738 233.659 302.402 236.12 301.743C238.581 301.083 241.178 301.128 243.615 301.871C246.472 297.432 250.57 293.931 255.4 291.803C260.231 289.675 265.58 289.014 270.783 289.902C275.987 290.789 280.814 293.187 284.666 296.797C288.517 300.406 291.222 305.069 292.445 310.203C293.845 307.998 295.853 306.245 298.227 305.156C300.602 304.067 303.24 303.688 305.825 304.065C308.41 304.443 310.83 305.561 312.794 307.284C314.757 309.006 316.18 311.261 316.89 313.774C319.936 310.59 323.77 308.268 328.004 307.045C332.237 305.823 336.719 305.743 340.993 306.815C345.268 307.886 349.182 310.071 352.338 313.146C355.495 316.22 357.781 320.076 358.963 324.321C362.187 321.735 365.993 319.973 370.052 319.189C374.11 318.405 378.298 318.623 382.254 319.822C394.376 323.638 402.008 336.505 399.365 349.519H157.211C158.682 341.625 164.686 335.437 172.117 334.045Z" fill="url(#paint2_linear)"/>
    <path d="M371.514 176.922V233.042C371.514 233.303 371.411 233.553 371.228 233.738C371.044 233.924 370.795 234.029 370.534 234.031H284.962C284.7 234.029 284.45 233.924 284.265 233.739C284.08 233.554 283.975 233.304 283.973 233.042V176.922C283.975 176.66 284.08 176.41 284.265 176.225C284.45 176.04 284.7 175.935 284.962 175.933H370.534C370.795 175.935 371.044 176.04 371.228 176.225C371.411 176.41 371.514 176.661 371.514 176.922Z" fill="#BEE1F4"/>
    <path d="M371.514 176.922V183.048H283.99V176.922C283.992 176.66 284.097 176.41 284.282 176.225C284.467 176.04 284.717 175.935 284.979 175.933H370.551C370.809 175.939 371.054 176.047 371.234 176.231C371.414 176.416 371.514 176.664 371.514 176.922Z" fill="#3B7CFF"/>
    <path d="M290.082 179.486C290.082 179.775 289.996 180.058 289.835 180.299C289.674 180.539 289.445 180.727 289.177 180.837C288.91 180.948 288.615 180.976 288.332 180.919C288.048 180.862 287.788 180.722 287.583 180.516C287.379 180.311 287.241 180.05 287.185 179.766C287.13 179.482 287.16 179.187 287.272 178.92C287.384 178.654 287.573 178.426 287.814 178.266C288.056 178.107 288.339 178.023 288.629 178.024C289.015 178.027 289.385 178.182 289.657 178.455C289.929 178.729 290.082 179.1 290.082 179.486Z" fill="#EC827D"/>
    <path d="M296.401 179.486C296.401 179.776 296.315 180.059 296.153 180.3C295.992 180.541 295.763 180.728 295.494 180.838C295.226 180.948 294.932 180.976 294.648 180.918C294.364 180.86 294.103 180.719 293.899 180.513C293.696 180.307 293.558 180.045 293.504 179.76C293.449 179.476 293.481 179.181 293.594 178.914C293.707 178.648 293.897 178.421 294.14 178.262C294.383 178.104 294.667 178.021 294.957 178.024C295.341 178.029 295.709 178.185 295.979 178.459C296.249 178.732 296.401 179.101 296.401 179.486Z" fill="#FBD15B"/>
    <path d="M302.72 179.486C302.72 179.775 302.634 180.058 302.473 180.299C302.312 180.539 302.083 180.727 301.816 180.837C301.548 180.948 301.254 180.976 300.97 180.919C300.686 180.862 300.426 180.722 300.222 180.516C300.018 180.311 299.879 180.05 299.824 179.766C299.768 179.482 299.799 179.187 299.911 178.92C300.023 178.654 300.211 178.426 300.453 178.266C300.694 178.107 300.978 178.023 301.267 178.024C301.653 178.027 302.023 178.182 302.295 178.455C302.567 178.729 302.72 179.1 302.72 179.486Z" fill="#B1B2F3"/>
    <path d="M366.412 186.751H319.289V229.567H366.412V186.751Z" fill="white"/>
    <path d="M307.412 192.44H290.764V193.534H307.412V192.44Z" fill="white"/>
    <path d="M315.683 197.892H290.764V198.986H315.683V197.892Z" fill="white"/>
    <path d="M315.683 201.446H290.764V202.54H315.683V201.446Z" fill="white"/>
    <path d="M315.683 205.008H290.764V206.102H315.683V205.008Z" fill="white"/>
    <path d="M315.683 208.562H290.764V209.656H315.683V208.562Z" fill="white"/>
    <path d="M315.683 212.115H290.764V213.209H315.683V212.115Z" fill="white"/>
    <path d="M315.683 215.669H290.764V216.763H315.683V215.669Z" fill="white"/>
    <path d="M315.683 219.231H290.764V220.325H315.683V219.231Z" fill="white"/>
    <path d="M307.158 222.784H290.764V223.878H307.158V222.784Z" fill="white"/>
    <path d="M329.258 192.002H323.402V224.316H329.258V192.002Z" fill="#BEE1F4"/>
    <path d="M340.268 192.002H334.413V224.316H340.268V192.002Z" fill="#BEE1F4"/>
    <path d="M351.287 192.002H345.432V224.316H351.287V192.002Z" fill="#BEE1F4"/>
    <path d="M362.298 192.002H356.443V224.316H362.298V192.002Z" fill="#BEE1F4"/>
    <path d="M329.258 215.607H323.402V224.316H329.258V215.607Z" fill="url(#paint3_linear)"/>
    <path d="M340.268 211.074H334.413V224.316H340.268V211.074Z" fill="url(#paint4_linear)"/>
    <path d="M351.287 200.404H345.432V224.316H351.287V200.404Z" fill="url(#paint5_linear)"/>
    <path d="M362.298 205.297H356.443V224.316H362.298V205.297Z" fill="#FBD15B"/>
    <path d="M300.628 221.533L300.366 334.106C300.355 335.802 299.675 337.425 298.475 338.623C297.881 339.219 297.174 339.691 296.396 340.013C295.618 340.334 294.783 340.498 293.941 340.496L105.3 340.058C103.603 340.046 101.98 339.365 100.783 338.162C99.5862 336.958 98.9134 335.331 98.9111 333.634L99.2175 199.354C99.2267 197.656 99.9076 196.031 101.111 194.834C102.315 193.637 103.944 192.965 105.642 192.965L160.782 193.096C164.837 193.316 168.694 194.922 171.705 197.647L184.335 210.321C187.352 213.043 191.209 214.652 195.267 214.881L294.274 215.108C295.966 215.127 297.582 215.812 298.772 217.015C299.961 218.217 300.628 219.841 300.628 221.533Z" fill="#F4C44E"/>
    <path d="M267.562 133.483H147.907C144.519 133.483 141.772 136.23 141.772 139.619V301.539C141.772 304.927 144.519 307.674 147.907 307.674H267.562C270.95 307.674 273.697 304.927 273.697 301.539V139.619C273.697 136.23 270.95 133.483 267.562 133.483Z" fill="#3B7CFF"/>
    <path d="M262.949 142.306H152.537V281.443H262.949V142.306Z" fill="white"/>
    <path d="M246.696 177.543H168.799C168.335 177.543 167.89 177.359 167.562 177.03C167.233 176.702 167.049 176.257 167.049 175.792C167.049 175.328 167.233 174.883 167.562 174.555C167.89 174.226 168.335 174.042 168.799 174.042H246.696C247.16 174.042 247.605 174.226 247.934 174.555C248.262 174.883 248.446 175.328 248.446 175.792C248.446 176.257 248.262 176.702 247.934 177.03C247.605 177.359 247.16 177.543 246.696 177.543Z" fill="#BEE1F4"/>
    <path d="M246.696 163.67H168.799C168.335 163.67 167.89 163.486 167.562 163.158C167.233 162.829 167.049 162.384 167.049 161.92C167.049 161.456 167.233 161.01 167.562 160.682C167.89 160.354 168.335 160.169 168.799 160.169H246.696C247.16 160.169 247.605 160.354 247.934 160.682C248.262 161.01 248.446 161.456 248.446 161.92C248.446 162.384 248.262 162.829 247.934 163.158C247.605 163.486 247.16 163.67 246.696 163.67Z" fill="#BEE1F4"/>
    <path d="M246.696 191.468H168.799C168.335 191.468 167.89 191.284 167.562 190.955C167.233 190.627 167.049 190.182 167.049 189.718C167.049 189.253 167.233 188.808 167.562 188.48C167.89 188.152 168.335 187.967 168.799 187.967H246.696C247.16 187.967 247.605 188.152 247.934 188.48C248.262 188.808 248.446 189.253 248.446 189.718C248.446 190.182 248.262 190.627 247.934 190.955C247.605 191.284 247.16 191.468 246.696 191.468Z" fill="#BEE1F4"/>
    <path d="M246.696 205.393H168.799C168.335 205.393 167.89 205.209 167.562 204.881C167.233 204.552 167.049 204.107 167.049 203.643C167.049 203.178 167.233 202.733 167.562 202.405C167.89 202.077 168.335 201.892 168.799 201.892H246.696C247.16 201.892 247.605 202.077 247.934 202.405C248.262 202.733 248.446 203.178 248.446 203.643C248.446 204.107 248.262 204.552 247.934 204.881C247.605 205.209 247.16 205.393 246.696 205.393Z" fill="#BEE1F4"/>
    <path d="M246.696 219.318H168.799C168.335 219.318 167.89 219.134 167.562 218.806C167.233 218.477 167.049 218.032 167.049 217.568C167.049 217.104 167.233 216.658 167.562 216.33C167.89 216.002 168.335 215.817 168.799 215.817H246.696C247.16 215.817 247.605 216.002 247.934 216.33C248.262 216.658 248.446 217.104 248.446 217.568C248.446 218.032 248.262 218.477 247.934 218.806C247.605 219.134 247.16 219.318 246.696 219.318Z" fill="#BEE1F4"/>
    <path d="M246.696 233.235H168.799C168.335 233.235 167.89 233.05 167.562 232.722C167.233 232.394 167.049 231.948 167.049 231.484C167.049 231.02 167.233 230.575 167.562 230.246C167.89 229.918 168.335 229.734 168.799 229.734H246.696C247.16 229.734 247.605 229.918 247.934 230.246C248.262 230.575 248.446 231.02 248.446 231.484C248.446 231.948 248.262 232.394 247.934 232.722C247.605 233.05 247.16 233.235 246.696 233.235Z" fill="#BEE1F4"/>
    <path d="M211.931 247.16H168.782C168.317 247.16 167.872 246.975 167.544 246.647C167.216 246.319 167.031 245.874 167.031 245.409C167.031 244.945 167.216 244.5 167.544 244.172C167.872 243.843 168.317 243.659 168.782 243.659H211.931C212.395 243.659 212.841 243.843 213.169 244.172C213.497 244.5 213.682 244.945 213.682 245.409C213.682 245.874 213.497 246.319 213.169 246.647C212.841 246.975 212.395 247.16 211.931 247.16Z" fill="#BEE1F4"/>
    <g style="mix-blend-mode:multiply">
        <path d="M300.628 230.915L300.366 343.48C300.354 345.178 299.673 346.803 298.47 348.001C297.267 349.199 295.639 349.874 293.941 349.878L105.3 349.441C103.603 349.429 101.98 348.747 100.783 347.544C99.5862 346.341 98.9134 344.713 98.9111 343.016L99.2175 208.737C99.2267 207.039 99.9076 205.414 101.111 204.217C102.315 203.019 103.944 202.347 105.642 202.347L160.782 202.47C164.837 202.696 168.693 204.305 171.705 207.03L184.291 219.686C187.308 222.408 191.165 224.017 195.223 224.246L294.23 224.473C295.933 224.48 297.563 225.163 298.762 226.37C299.962 227.578 300.633 229.213 300.628 230.915Z" fill="#F1F2F2"/>
    </g>
    <path d="M300.628 236.534L300.366 349.099C300.354 350.797 299.673 352.422 298.47 353.62C297.267 354.818 295.639 355.493 293.941 355.497L105.3 355.06C103.603 355.048 101.98 354.366 100.783 353.163C99.5862 351.96 98.9134 350.332 98.9111 348.635L99.2175 214.356C99.2244 212.656 99.9043 211.029 101.108 209.83C102.312 208.631 103.942 207.958 105.642 207.958L160.782 208.089C164.826 208.335 168.665 209.956 171.661 212.684L184.291 225.357C187.308 228.08 191.165 229.689 195.223 229.917L294.23 230.145C295.924 230.152 297.546 230.827 298.744 232.023C299.942 233.22 300.619 234.841 300.628 236.534Z" fill="#FBD15B"/>
    <path d="M297.819 330.842V347.41C297.81 349.064 297.146 350.646 295.974 351.813C294.801 352.979 293.214 353.633 291.561 353.633L107.76 353.213C106.106 353.201 104.524 352.538 103.357 351.366C102.19 350.194 101.533 348.609 101.528 346.955V330.842H297.819Z" fill="#FBD15B"/>
    <path d="M99.2174 222.846C99.2267 221.148 99.9076 219.523 101.111 218.325C102.315 217.128 103.944 216.456 105.642 216.456L160.782 216.579C164.837 216.805 168.693 218.414 171.705 221.139L184.335 233.812C187.352 236.535 191.209 238.144 195.267 238.372L294.274 238.6C295.905 238.61 297.471 239.24 298.656 240.361C299.84 241.482 300.555 243.011 300.655 244.639V236.534C300.655 234.835 299.981 233.205 298.782 232.001C297.583 230.797 295.956 230.117 294.257 230.11L195.249 229.882C191.192 229.654 187.334 228.045 184.317 225.322L171.661 212.684C168.649 209.96 164.794 208.35 160.738 208.124L105.642 207.993C103.942 207.993 102.312 208.666 101.108 209.865C99.9043 211.064 99.2244 212.691 99.2174 214.391L98.9023 291.998C98.9023 233.383 99.2174 222.846 99.2174 222.846Z" fill="#F7D98D"/>
    <path d="M122.858 158.541H107.795C107.513 158.541 107.243 158.43 107.043 158.232C106.843 158.033 106.729 157.764 106.727 157.482V127.453C106.727 127.17 106.84 126.898 107.04 126.698C107.24 126.498 107.512 126.385 107.795 126.385H130.761C131.044 126.385 131.316 126.498 131.516 126.698C131.717 126.898 131.829 127.17 131.829 127.453V147.505C131.825 147.746 131.742 147.98 131.593 148.17L123.716 158.139C123.613 158.267 123.482 158.37 123.333 158.44C123.185 158.509 123.022 158.544 122.858 158.541ZM108.854 156.415H122.333L129.685 147.137V128.521H108.854V156.415Z" fill="#D4EBF8"/>
    <path d="M122.858 158.541C122.739 158.541 122.621 158.523 122.508 158.489C122.301 158.414 122.122 158.277 121.995 158.097C121.868 157.917 121.8 157.703 121.799 157.482V147.505C121.799 147.223 121.91 146.953 122.108 146.753C122.307 146.553 122.576 146.439 122.858 146.437H130.735C130.939 146.435 131.139 146.491 131.312 146.599C131.484 146.707 131.623 146.862 131.71 147.046C131.797 147.23 131.83 147.436 131.805 147.638C131.78 147.84 131.697 148.031 131.567 148.187L123.689 158.156C123.588 158.278 123.461 158.376 123.317 158.443C123.173 158.509 123.016 158.543 122.858 158.541ZM123.926 148.572V154.419L128.556 148.572H123.926Z" fill="#D4EBF8"/>
    <path d="M126.814 131.75H111.996V133.877H126.814V131.75Z" fill="#D4EBF8"/>
    <path d="M126.814 135.811H111.996V137.938H126.814V135.811Z" fill="#D4EBF8"/>
    <path d="M123.733 139.873H111.996V141.999H123.733V139.873Z" fill="#D4EBF8"/>
    <path d="M297.819 330.842V347.41C297.81 349.064 297.146 350.646 295.974 351.813C294.801 352.979 293.214 353.633 291.561 353.633L107.76 353.213C106.106 353.201 104.524 352.538 103.357 351.366C102.19 350.194 101.533 348.609 101.528 346.955V330.842H297.819Z" fill="#F4C44E"/>
    <path d="M297.81 319.717H101.528V325.879H297.81V319.717Z" fill="#F4C44E"/>
    <path d="M83.1482 163.88C83.054 162.412 82.6355 160.984 81.9228 159.697L83.1307 159.023C82.5206 157.925 81.7307 156.936 80.7938 156.1L79.866 157.141C78.7668 156.165 77.4628 155.447 76.05 155.04L76.4263 153.71C75.4329 153.426 74.4049 153.282 73.3717 153.281H72.7153L72.8028 154.673C71.3343 154.757 69.904 155.173 68.6191 155.889L67.9452 154.682C66.8451 155.289 65.8565 156.079 65.0219 157.018L66.0547 157.946C65.0767 159.044 64.3587 160.349 63.9541 161.762L62.6237 161.377C62.3474 162.372 62.2061 163.399 62.2036 164.432C62.2036 164.651 62.2036 164.861 62.2036 165.079L63.5865 165.001C63.6763 166.469 64.0951 167.899 64.8118 169.184L63.5953 169.858C64.2048 170.957 64.9948 171.945 65.9321 172.782L66.8599 171.74C67.9553 172.724 69.2603 173.445 70.676 173.849L70.2909 175.18C71.2846 175.461 72.3127 175.602 73.3455 175.6C73.5643 175.6 73.7918 175.6 74.0194 175.6L73.9319 174.217C75.4017 174.127 76.8319 173.705 78.1155 172.983L78.7895 174.2C79.888 173.586 80.8761 172.793 81.7128 171.854L80.6712 170.979C81.6426 169.882 82.3545 168.581 82.7543 167.171L84.0847 167.548C84.3609 166.556 84.5023 165.531 84.5048 164.502C84.5048 164.274 84.5048 164.055 84.5048 163.837L83.1482 163.88ZM70.8948 173.053L70.9648 172.817L70.8948 173.053ZM79.0345 166.051C78.681 167.292 77.9328 168.385 76.9033 169.163C75.8737 169.942 74.6187 170.364 73.3279 170.366C72.7833 170.363 72.2415 170.287 71.7175 170.138C70.4795 169.792 69.3878 169.052 68.6077 168.031C67.8276 167.009 67.4015 165.761 67.3938 164.476C67.3941 163.928 67.4677 163.384 67.6126 162.856C67.9675 161.616 68.7159 160.524 69.7452 159.746C70.7745 158.967 72.0288 158.545 73.3192 158.541C73.8641 158.54 74.4065 158.616 74.9296 158.769C76.1718 159.118 77.2657 159.864 78.0447 160.893C78.8237 161.921 79.2451 163.176 79.2446 164.467C79.2471 165.014 79.1765 165.558 79.0345 166.086V166.051Z" fill="#D4EBF8"/>
    <path d="M100.137 159.662L99.2088 159.837C99.0716 159.122 98.8204 158.433 98.4648 157.798L99.2876 157.351C98.6889 156.263 97.8399 155.333 96.8106 154.638L96.2855 155.408C95.683 155.003 95.0217 154.693 94.3249 154.489L94.5787 153.614C93.8781 153.416 93.1536 153.316 92.4256 153.316C91.9294 153.319 91.4344 153.366 90.9465 153.456L91.1215 154.384C90.4077 154.522 89.7197 154.77 89.0822 155.119L88.6358 154.297C87.5453 154.891 86.6122 155.737 85.9138 156.765L86.6841 157.29C86.2942 157.895 85.9991 158.556 85.8088 159.25L84.9336 158.988V159.058C84.7362 159.756 84.636 160.477 84.636 161.202C84.6388 161.693 84.6856 162.182 84.776 162.664L85.6513 162.489C85.7879 163.203 86.036 163.891 86.3865 164.528L85.5637 164.975C86.1568 166.066 86.9995 167.002 88.0232 167.705L88.5483 166.935C89.1484 167.346 89.8103 167.66 90.5089 167.863L90.2463 168.738H90.3338C91.0315 168.935 91.7531 169.036 92.4782 169.036C92.9894 169.035 93.4994 168.985 94.0011 168.887L93.8173 167.959C94.5325 167.822 95.221 167.571 95.8566 167.215L96.3117 168.038C97.3965 167.434 98.3232 166.582 99.0162 165.552L98.2373 165.027C98.6305 164.424 98.9259 163.762 99.1125 163.066L99.9877 163.32C100.185 162.62 100.285 161.895 100.285 161.167C100.281 160.662 100.231 160.158 100.137 159.662ZM92.3994 165.859C91.4719 165.858 90.5652 165.584 89.794 165.068C89.0227 164.553 88.4214 163.821 88.066 162.964C87.7107 162.108 87.6173 161.165 87.7976 160.255C87.9779 159.345 88.4238 158.509 89.0791 157.853C89.7343 157.197 90.5694 156.749 91.4788 156.567C92.3883 156.385 93.3312 156.477 94.1886 156.83C95.046 157.184 95.7793 157.784 96.2958 158.554C96.8124 159.325 97.089 160.231 97.0907 161.158C97.0861 162.402 96.5906 163.594 95.7121 164.474C94.8335 165.354 93.643 165.852 92.3994 165.859Z" fill="#D4EBF8"/>
    <path d="M75.7699 201.586L70.991 219.415L57.9412 206.365L75.7699 201.586Z" fill="#F9FBFC"/>
    <path d="M62.7383 207.616L54.5442 215.81L61.5438 222.81L69.7379 214.616L62.7383 207.616Z" fill="#F9FBFC"/>
    <path d="M354.543 152.485C354.543 154.395 353.785 156.227 352.434 157.578C351.083 158.929 349.251 159.688 347.34 159.688H288.953C288.008 159.688 287.072 159.502 286.2 159.14C285.327 158.779 284.534 158.249 283.866 157.581C283.197 156.913 282.667 156.12 282.306 155.247C281.944 154.374 281.758 153.438 281.758 152.494C281.758 151.549 281.944 150.613 282.306 149.74C282.667 148.867 283.197 148.074 283.866 147.406C284.534 146.738 285.327 146.208 286.2 145.847C287.072 145.485 288.008 145.299 288.953 145.299H347.34C348.285 145.298 349.221 145.483 350.094 145.843C350.967 146.204 351.761 146.733 352.43 147.4C353.099 148.067 353.63 148.86 353.992 149.732C354.355 150.605 354.542 151.54 354.543 152.485Z" fill="#D4EBF8"/>
    <path d="M354.543 152.485C354.543 154.395 353.784 156.227 352.433 157.578C351.083 158.929 349.25 159.688 347.34 159.688H339.857V145.29H347.34C348.286 145.289 349.222 145.474 350.096 145.835C350.97 146.196 351.764 146.726 352.433 147.394C353.102 148.063 353.633 148.856 353.995 149.73C354.357 150.603 354.543 151.539 354.543 152.485Z" fill="#3B7CFF"/>
    <path d="M343.498 149.465C342.997 150.094 342.738 150.881 342.766 151.684C342.795 152.487 343.109 153.254 343.653 153.845C344.197 154.437 344.935 154.815 345.733 154.91C346.531 155.006 347.337 154.813 348.005 154.367L350.158 156.52C350.204 156.561 350.263 156.585 350.325 156.585C350.386 156.585 350.446 156.561 350.491 156.52L351.095 155.916C351.118 155.894 351.136 155.869 351.148 155.84C351.161 155.811 351.167 155.781 351.167 155.749C351.167 155.718 351.161 155.687 351.148 155.659C351.136 155.63 351.118 155.604 351.095 155.583L348.942 153.43C349.429 152.707 349.616 151.822 349.465 150.963C349.314 150.104 348.835 149.338 348.13 148.824C347.425 148.311 346.549 148.091 345.685 148.21C344.821 148.33 344.037 148.78 343.498 149.465ZM347.585 152.966C347.299 153.252 346.934 153.447 346.536 153.526C346.139 153.605 345.727 153.565 345.353 153.41C344.979 153.255 344.659 152.992 344.434 152.655C344.209 152.319 344.089 151.923 344.089 151.518C344.089 151.113 344.209 150.717 344.434 150.38C344.659 150.043 344.979 149.781 345.353 149.626C345.727 149.47 346.139 149.43 346.536 149.509C346.934 149.588 347.299 149.783 347.585 150.069C347.781 150.261 347.937 150.489 348.043 150.742C348.149 150.994 348.204 151.266 348.204 151.539C348.204 151.813 348.149 152.085 348.043 152.337C347.937 152.59 347.781 152.818 347.585 153.01V152.966Z" fill="#F9FBFC"/>
    <path d="M337.476 155.504H286.581V156.047H337.476V155.504Z" fill="#F9FBFC"/>
    <defs>
        <linearGradient id="paint0_linear" x1="196.667" y1="237.418" x2="196.667" y2="335.095" gradientUnits="userSpaceOnUse">
            <stop stop-color="#26E6FF"/>
            <stop offset="0.49" stop-color="#4189FF"/>
            <stop offset="0.83" stop-color="#534CFF"/>
            <stop offset="1" stop-color="#5A35FF"/>
        </linearGradient>
        <linearGradient id="paint1_linear" x1="141.527" y1="346.193" x2="141.527" y2="286.187" gradientUnits="userSpaceOnUse">
            <stop stop-color="#F9FBFC"/>
            <stop offset="1" stop-color="#BEE1F4"/>
        </linearGradient>
        <linearGradient id="paint2_linear" x1="77391.4" y1="24250.5" x2="77391.4" y2="20137.4" gradientUnits="userSpaceOnUse">
            <stop stop-color="#F9FBFC"/>
            <stop offset="1" stop-color="#BEE1F4"/>
        </linearGradient>
        <linearGradient id="paint3_linear" x1="326.326" y1="215.607" x2="326.326" y2="224.316" gradientUnits="userSpaceOnUse">
            <stop stop-color="#FF697D"/>
            <stop offset="1" stop-color="#DE2276"/>
        </linearGradient>
        <linearGradient id="paint4_linear" x1="337.336" y1="211.074" x2="337.336" y2="224.316" gradientUnits="userSpaceOnUse">
            <stop stop-color="#435DF1"/>
            <stop offset="0.33" stop-color="#4333F1"/>
            <stop offset="1" stop-color="#4C008C"/>
        </linearGradient>
        <linearGradient id="paint5_linear" x1="348.355" y1="200.404" x2="348.355" y2="224.316" gradientUnits="userSpaceOnUse">
            <stop stop-color="#69479B"/>
            <stop offset="1" stop-color="#4C008C"/>
        </linearGradient>
    </defs>
</svg>
