<svg width="282" height="55" viewBox="0 0 282 55" fill="none" xmlns="http://www.w3.org/2000/svg">
<path d="M30.3041 34.83C31.0526 34.8292 31.7777 34.569 32.3559 34.0937C32.9341 33.6184 33.3295 32.9573 33.475 32.2231C33.6205 31.4889 33.507 30.7269 33.1538 30.067C32.8006 29.4071 32.2295 28.89 31.5378 28.6039C30.8462 28.3178 30.0767 28.2803 29.3605 28.4978C28.6443 28.7153 28.0257 29.1744 27.61 29.7968C27.1942 30.4192 27.0071 31.1665 27.0805 31.9114C27.1539 32.6563 27.4833 33.3527 28.0126 33.882C28.6209 34.4888 29.4449 34.8297 30.3041 34.83Z" fill="white"/>
<path d="M3.97852 15.7136V39.2345L24.342 50.995L44.7018 39.2345V15.7136L24.342 3.95312L3.97852 15.7136Z" stroke="#3B7CFF" stroke-width="1.21792" stroke-linecap="round" stroke-linejoin="round"/>
<path d="M24.3423 52.941C24.7296 52.9413 25.1081 52.8259 25.4293 52.6096C25.7556 52.395 26.0104 52.0879 26.161 51.7276C26.3116 51.3673 26.3511 50.9703 26.2745 50.5873C26.1979 50.2044 26.0087 49.8531 25.7311 49.5785C25.4535 49.3038 25.1002 49.1183 24.7165 49.0458C24.3363 48.9677 23.9413 49.0062 23.5832 49.1563C23.2267 49.3031 22.9208 49.5508 22.703 49.869C22.5062 50.1643 22.3933 50.5074 22.3763 50.8619C22.3593 51.2163 22.4387 51.5687 22.6063 51.8815C22.7738 52.1943 23.0232 52.4557 23.3277 52.6379C23.6321 52.8201 23.9804 52.9162 24.3352 52.916L24.3423 52.941Z" stroke="#3B7CFF" stroke-width="2.712" stroke-linecap="round" stroke-linejoin="round"/>
<path d="M24.3423 52.941C24.7296 52.9413 25.1081 52.8259 25.4293 52.6096C25.7556 52.395 26.0104 52.0879 26.161 51.7276C26.3116 51.3673 26.3511 50.9703 26.2745 50.5873C26.1979 50.2044 26.0087 49.8531 25.7311 49.5785C25.4535 49.3038 25.1002 49.1183 24.7165 49.0458C24.3363 48.9677 23.9413 49.0062 23.5832 49.1563C23.2267 49.3031 22.9208 49.5508 22.703 49.869C22.5062 50.1643 22.3933 50.5074 22.3763 50.8619C22.3593 51.2163 22.4387 51.5687 22.6063 51.8815C22.7738 52.1943 23.0232 52.4557 23.3277 52.6379C23.6321 52.8201 23.9804 52.9162 24.3352 52.916L24.3423 52.941Z" fill="#C4C4C4"/>
<path d="M24.3423 52.941C24.7296 52.9413 25.1081 52.8259 25.4293 52.6096C25.7556 52.395 26.0104 52.0879 26.161 51.7276C26.3116 51.3673 26.3511 50.9703 26.2745 50.5873C26.1979 50.2044 26.0087 49.8531 25.7311 49.5785C25.4535 49.3038 25.1002 49.1183 24.7165 49.0458C24.3363 48.9677 23.9413 49.0062 23.5832 49.1563C23.2267 49.3031 22.9208 49.5508 22.703 49.869C22.5062 50.1643 22.3933 50.5074 22.3763 50.8619C22.3593 51.2163 22.4387 51.5687 22.6063 51.8815C22.7738 52.1943 23.0232 52.4557 23.3277 52.6379C23.6321 52.8201 23.9804 52.9162 24.3352 52.916L24.3423 52.941Z" fill="url(#paint0_linear)"/>
<path d="M24.3416 5.92016C24.7951 5.92001 25.2345 5.76263 25.5849 5.47484C25.9354 5.18705 26.1751 4.78666 26.2635 4.34188C26.3518 3.8971 26.2832 3.43546 26.0693 3.0356C25.8554 2.63574 25.5095 2.32241 25.0905 2.14899C24.6715 1.97558 24.2054 1.9528 23.7715 2.08455C23.3376 2.21631 22.9628 2.49443 22.7109 2.87154C22.4591 3.24865 22.3458 3.70141 22.3903 4.15268C22.4349 4.60395 22.6346 5.02581 22.9553 5.34639C23.3237 5.71294 23.8219 5.91917 24.3416 5.92016V5.92016Z" stroke="#3B7CFF" stroke-width="2.712" stroke-linecap="round" stroke-linejoin="round"/>
<path d="M24.3416 5.92016C24.7951 5.92001 25.2345 5.76263 25.5849 5.47484C25.9354 5.18705 26.1751 4.78666 26.2635 4.34188C26.3518 3.8971 26.2832 3.43546 26.0693 3.0356C25.8554 2.63574 25.5095 2.32241 25.0905 2.14899C24.6715 1.97558 24.2054 1.9528 23.7715 2.08455C23.3376 2.21631 22.9628 2.49443 22.7109 2.87154C22.4591 3.24865 22.3458 3.70141 22.3903 4.15268C22.4349 4.60395 22.6346 5.02581 22.9553 5.34639C23.3237 5.71294 23.8219 5.91917 24.3416 5.92016Z" fill="#C4C4C4"/>
<path d="M24.3416 5.92016C24.7951 5.92001 25.2345 5.76263 25.5849 5.47484C25.9354 5.18705 26.1751 4.78666 26.2635 4.34188C26.3518 3.8971 26.2832 3.43546 26.0693 3.0356C25.8554 2.63574 25.5095 2.32241 25.0905 2.14899C24.6715 1.97558 24.2054 1.9528 23.7715 2.08455C23.3376 2.21631 22.9628 2.49443 22.7109 2.87154C22.4591 3.24865 22.3458 3.70141 22.3903 4.15268C22.4349 4.60395 22.6346 5.02581 22.9553 5.34639C23.3237 5.71294 23.8219 5.91917 24.3416 5.92016Z" fill="url(#paint1_linear)"/>
<path d="M44.5383 41.202C44.9261 41.2039 45.3056 41.09 45.6282 40.8747C45.9508 40.6594 46.2017 40.3527 46.3487 39.9939C46.4971 39.6354 46.5361 39.241 46.4606 38.8605C46.3851 38.4799 46.1986 38.1302 45.9245 37.8556C45.6504 37.5804 45.3006 37.3931 44.9196 37.3175C44.5403 37.2431 44.1475 37.2815 43.7898 37.4279C43.3713 37.6016 43.026 37.9149 42.8124 38.3145C42.5989 38.7142 42.5303 39.1755 42.6186 39.6199C42.7068 40.0644 42.9463 40.4645 43.2963 40.7523C43.6463 41.0401 44.0851 41.1978 44.5383 41.1984V41.202Z" stroke="#3B7CFF" stroke-width="2.712" stroke-linecap="round" stroke-linejoin="round"/>
<path d="M44.5383 41.202C44.9261 41.2039 45.3056 41.09 45.6282 40.8747C45.9508 40.6594 46.2017 40.3527 46.3487 39.9939C46.4971 39.6354 46.5361 39.241 46.4606 38.8605C46.3851 38.4799 46.1986 38.1302 45.9245 37.8556C45.6504 37.5804 45.3006 37.3931 44.9196 37.3175C44.5403 37.2431 44.1475 37.2815 43.7898 37.4279C43.3713 37.6016 43.026 37.9149 42.8124 38.3145C42.5989 38.7142 42.5303 39.1755 42.6186 39.6199C42.7068 40.0644 42.9463 40.4645 43.2963 40.7523C43.6463 41.0401 44.0851 41.1978 44.5383 41.1984V41.202Z" fill="#C4C4C4"/>
<path d="M44.5383 41.202C44.9261 41.2039 45.3056 41.09 45.6282 40.8747C45.9508 40.6594 46.2017 40.3527 46.3487 39.9939C46.4971 39.6354 46.5361 39.241 46.4606 38.8605C46.3851 38.4799 46.1986 38.1302 45.9245 37.8556C45.6504 37.5804 45.3006 37.3931 44.9196 37.3175C44.5403 37.2431 44.1475 37.2815 43.7898 37.4279C43.3713 37.6016 43.026 37.9149 42.8124 38.3145C42.5989 38.7142 42.5303 39.1755 42.6186 39.6199C42.7068 40.0644 42.9463 40.4645 43.2963 40.7523C43.6463 41.0401 44.0851 41.1978 44.5383 41.1984V41.202Z" fill="url(#paint2_linear)"/>
<path d="M3.97876 17.7488C4.36633 17.7476 4.74495 17.632 5.06704 17.4164C5.38912 17.2008 5.64034 16.8949 5.78919 16.5371C5.9356 16.1794 5.97399 15.7867 5.89965 15.4074C5.824 15.0264 5.63667 14.6765 5.36151 14.4024C5.08686 14.1284 4.73719 13.9419 4.35663 13.8664C3.97608 13.7909 3.58169 13.8298 3.22324 13.9783C2.86439 14.1253 2.55765 14.3762 2.34239 14.6988C2.12713 15.0214 2.0132 15.4009 2.01516 15.7887C2.01516 16.3085 2.22164 16.8071 2.58923 17.1747C2.95682 17.5423 3.45539 17.7488 3.97524 17.7488H3.97876Z" stroke="#3B7CFF" stroke-width="2.712" stroke-linecap="round" stroke-linejoin="round"/>
<path d="M3.97876 17.7488C4.36633 17.7476 4.74495 17.632 5.06704 17.4164C5.38912 17.2008 5.64034 16.8949 5.78919 16.5371C5.9356 16.1794 5.97399 15.7867 5.89965 15.4074C5.824 15.0264 5.63667 14.6765 5.36151 14.4024C5.08686 14.1284 4.73719 13.9419 4.35663 13.8664C3.97608 13.7909 3.58169 13.8298 3.22324 13.9783C2.86439 14.1253 2.55765 14.3762 2.34239 14.6988C2.12713 15.0214 2.0132 15.4009 2.01516 15.7887C2.01516 16.3085 2.22164 16.8071 2.58923 17.1747C2.95682 17.5423 3.45539 17.7488 3.97524 17.7488H3.97876Z" fill="#C4C4C4"/>
<path d="M3.97876 17.7488C4.36633 17.7476 4.74495 17.632 5.06704 17.4164C5.38912 17.2008 5.64034 16.8949 5.78919 16.5371C5.9356 16.1794 5.97399 15.7867 5.89965 15.4074C5.824 15.0264 5.63667 14.6765 5.36151 14.4024C5.08686 14.1284 4.73719 13.9419 4.35663 13.8664C3.97608 13.7909 3.58169 13.8298 3.22324 13.9783C2.86439 14.1253 2.55765 14.3762 2.34239 14.6988C2.12713 15.0214 2.0132 15.4009 2.01516 15.7887C2.01516 16.3085 2.22164 16.8071 2.58923 17.1747C2.95682 17.5423 3.45539 17.7488 3.97524 17.7488H3.97876Z" fill="url(#paint3_linear)"/>
<path d="M44.7018 17.7483C44.9913 17.7473 45.2769 17.6824 45.5384 17.5582C45.7999 17.4341 46.0309 17.2538 46.2147 17.0302C46.3985 16.8065 46.5307 16.5451 46.6018 16.2645C46.673 15.9839 46.6813 15.6911 46.6263 15.4069C46.5492 15.0264 46.3621 14.6769 46.0881 14.4019C45.8146 14.1285 45.4661 13.9424 45.0867 13.8673C44.7064 13.7892 44.3115 13.8277 43.9534 13.9778C43.5948 14.1255 43.2881 14.3764 43.0723 14.6988C42.8566 15.0211 42.7415 15.4003 42.7417 15.7882C42.7426 16.3077 42.9494 16.8057 43.3168 17.1731C43.6842 17.5405 44.1822 17.7473 44.7018 17.7483V17.7483Z" stroke="#3B7CFF" stroke-width="2.712" stroke-linecap="round" stroke-linejoin="round"/>
<path d="M44.7018 17.7483C44.9913 17.7473 45.2769 17.6824 45.5384 17.5582C45.7999 17.4341 46.0309 17.2538 46.2147 17.0302C46.3985 16.8065 46.5307 16.5451 46.6018 16.2645C46.673 15.9839 46.6813 15.6911 46.6263 15.4069C46.5492 15.0264 46.3621 14.6769 46.0881 14.4019C45.8146 14.1285 45.4661 13.9424 45.0867 13.8673C44.7064 13.7892 44.3115 13.8277 43.9534 13.9778C43.5948 14.1255 43.2881 14.3764 43.0723 14.6988C42.8566 15.0211 42.7415 15.4003 42.7417 15.7882C42.7426 16.3077 42.9494 16.8057 43.3168 17.1731C43.6842 17.5405 44.1822 17.7473 44.7018 17.7483Z" fill="#C4C4C4"/>
<path d="M44.7018 17.7483C44.9913 17.7473 45.2769 17.6824 45.5384 17.5582C45.7999 17.4341 46.0309 17.2538 46.2147 17.0302C46.3985 16.8065 46.5307 16.5451 46.6018 16.2645C46.673 15.9839 46.6813 15.6911 46.6263 15.4069C46.5492 15.0264 46.3621 14.6769 46.0881 14.4019C45.8146 14.1285 45.4661 13.9424 45.0867 13.8673C44.7064 13.7892 44.3115 13.8277 43.9534 13.9778C43.5948 14.1255 43.2881 14.3764 43.0723 14.6988C42.8566 15.0211 42.7415 15.4003 42.7417 15.7882C42.7426 16.3077 42.9494 16.8057 43.3168 17.1731C43.6842 17.5405 44.1822 17.7473 44.7018 17.7483Z" fill="url(#paint4_linear)"/>
<path d="M3.97858 41.2019C4.35927 41.1989 4.73083 41.085 5.04772 40.874C5.37074 40.6589 5.62251 40.3527 5.771 39.9941C5.9195 39.6356 5.95804 39.241 5.88167 38.8605C5.80823 38.4805 5.62193 38.1315 5.34711 37.8591C5.07296 37.5839 4.72308 37.3966 4.3421 37.3209C3.96164 37.2465 3.56776 37.2849 3.20884 37.4314C2.79004 37.6052 2.44441 37.9188 2.23089 38.3188C2.01737 38.7188 1.94918 39.1805 2.03787 39.6252C2.12655 40.0698 2.36662 40.47 2.71725 40.7575C3.06788 41.045 3.50736 41.2021 3.96079 41.2019H3.97858Z" stroke="#3B7CFF" stroke-width="2.712" stroke-linecap="round" stroke-linejoin="round"/>
<path d="M3.97858 41.2019C4.35927 41.1989 4.73083 41.085 5.04772 40.874C5.37074 40.6589 5.62251 40.3527 5.771 39.9941C5.9195 39.6356 5.95804 39.241 5.88167 38.8605C5.80823 38.4805 5.62193 38.1315 5.34711 37.8591C5.07296 37.5839 4.72308 37.3966 4.3421 37.3209C3.96164 37.2465 3.56776 37.2849 3.20884 37.4314C2.79004 37.6052 2.44441 37.9188 2.23089 38.3188C2.01737 38.7188 1.94918 39.1805 2.03787 39.6252C2.12655 40.0698 2.36662 40.47 2.71725 40.7575C3.06788 41.045 3.50736 41.2021 3.96079 41.2019H3.97858Z" fill="#C4C4C4"/>
<path d="M3.97858 41.2019C4.35927 41.1989 4.73083 41.085 5.04772 40.874C5.37074 40.6589 5.62251 40.3527 5.771 39.9941C5.9195 39.6356 5.95804 39.241 5.88167 38.8605C5.80823 38.4805 5.62193 38.1315 5.34711 37.8591C5.07296 37.5839 4.72308 37.3966 4.3421 37.3209C3.96164 37.2465 3.56776 37.2849 3.20884 37.4314C2.79004 37.6052 2.44441 37.9188 2.23089 38.3188C2.01737 38.7188 1.94918 39.1805 2.03787 39.6252C2.12655 40.0698 2.36662 40.47 2.71725 40.7575C3.06788 41.045 3.50736 41.2021 3.96079 41.2019H3.97858Z" fill="url(#paint5_linear)"/>
<path d="M23.9328 35.3326H18.1772M25.6505 20.8672H19.6776H25.6505ZM27.8743 23.0696H18.1772H27.8743ZM27.8743 24.7018H18.1772H27.8743ZM23.9328 26.9042H18.1772H23.9328ZM23.9328 28.7253H18.1772H23.9328ZM23.9328 30.9277H18.1772H23.9328ZM23.9328 33.1301H18.1772H23.9328Z" stroke="#3B7CFF" stroke-width="0.75058" stroke-linecap="round" stroke-linejoin="round"/>
<path d="M35.3434 26.5508H34.8017C34.01 26.5519 33.2278 26.3784 32.5108 26.0427C31.7938 25.707 31.1596 25.2173 30.6535 24.6085L30.5787 24.523C30.5453 24.482 30.5031 24.449 30.4553 24.4263C30.4075 24.4036 30.3553 24.3918 30.3024 24.3918C30.2495 24.3918 30.1973 24.4036 30.1496 24.4263C30.1018 24.449 30.0597 24.482 30.0263 24.523L29.955 24.6085C29.4485 25.217 28.8143 25.7064 28.0973 26.042C27.3804 26.3777 26.5984 26.5514 25.8067 26.5508H25.2651C25.1706 26.5508 25.0799 26.5883 25.0131 26.6552C24.9462 26.722 24.9087 26.8127 24.9087 26.9072V32.7375C24.9093 33.4353 25.0937 34.1205 25.4434 34.7243C25.7932 35.328 26.2959 35.8289 26.9008 36.1766L30.1296 38.019C30.1839 38.0498 30.2454 38.0658 30.3078 38.0654C30.3703 38.0658 30.4317 38.0498 30.486 38.019L33.7113 36.1766C34.3167 35.8291 34.8198 35.3283 35.1702 34.7246C35.5205 34.1209 35.7056 33.4355 35.7069 32.7375V26.9107C35.7074 26.863 35.6983 26.8157 35.6802 26.7716C35.6621 26.7275 35.6352 26.6874 35.6013 26.6539C35.5674 26.6203 35.5271 26.5939 35.4828 26.5762C35.4385 26.5585 35.3911 26.5499 35.3434 26.5508Z" fill="#C4C4C4"/>
<path d="M35.3434 26.5508H34.8017C34.01 26.5519 33.2278 26.3784 32.5108 26.0427C31.7938 25.707 31.1596 25.2173 30.6535 24.6085L30.5787 24.523C30.5453 24.482 30.5031 24.449 30.4553 24.4263C30.4075 24.4036 30.3553 24.3918 30.3024 24.3918C30.2495 24.3918 30.1973 24.4036 30.1496 24.4263C30.1018 24.449 30.0597 24.482 30.0263 24.523L29.955 24.6085C29.4485 25.217 28.8143 25.7064 28.0973 26.042C27.3804 26.3777 26.5984 26.5514 25.8067 26.5508H25.2651C25.1706 26.5508 25.0799 26.5883 25.0131 26.6552C24.9462 26.722 24.9087 26.8127 24.9087 26.9072V32.7375C24.9093 33.4353 25.0937 34.1205 25.4434 34.7243C25.7932 35.328 26.2959 35.8289 26.9008 36.1766L30.1296 38.019C30.1839 38.0498 30.2454 38.0658 30.3078 38.0654C30.3703 38.0658 30.4317 38.0498 30.486 38.019L33.7113 36.1766C34.3167 35.8291 34.8198 35.3283 35.1702 34.7246C35.5205 34.1209 35.7056 33.4355 35.7069 32.7375V26.9107C35.7074 26.863 35.6983 26.8157 35.6802 26.7716C35.6621 26.7275 35.6352 26.6874 35.6013 26.6539C35.5674 26.6203 35.5271 26.5939 35.4828 26.5762C35.4385 26.5585 35.3911 26.5499 35.3434 26.5508Z" fill="url(#paint6_linear)"/>
<path d="M35.3434 26.5508H34.8017C34.01 26.5519 33.2278 26.3784 32.5108 26.0427C31.7938 25.707 31.1596 25.2173 30.6535 24.6085L30.5787 24.523C30.5453 24.482 30.5031 24.449 30.4553 24.4263C30.4075 24.4036 30.3553 24.3918 30.3024 24.3918C30.2495 24.3918 30.1973 24.4036 30.1496 24.4263C30.1018 24.449 30.0597 24.482 30.0263 24.523L29.955 24.6085C29.4485 25.217 28.8143 25.7064 28.0973 26.042C27.3804 26.3777 26.5984 26.5514 25.8067 26.5508H25.2651C25.1706 26.5508 25.0799 26.5883 25.0131 26.6552C24.9462 26.722 24.9087 26.8127 24.9087 26.9072V32.7375C24.9093 33.4353 25.0937 34.1205 25.4434 34.7243C25.7932 35.328 26.2959 35.8289 26.9008 36.1766L30.1296 38.019C30.1839 38.0498 30.2454 38.0658 30.3078 38.0654C30.3703 38.0658 30.4317 38.0498 30.486 38.019L33.7113 36.1766C34.3167 35.8291 34.8198 35.3283 35.1702 34.7246C35.5205 34.1209 35.7056 33.4355 35.7069 32.7375V26.9107C35.7074 26.863 35.6983 26.8157 35.6802 26.7716C35.6621 26.7275 35.6352 26.6874 35.6013 26.6539C35.5674 26.6203 35.5271 26.5939 35.4828 26.5762C35.4385 26.5585 35.3911 26.5499 35.3434 26.5508V26.5508Z" stroke="#3B7CFF" stroke-width="0.75058" stroke-linecap="round" stroke-linejoin="round"/>
<path d="M30.3039 34.8298C29.6632 34.8298 29.0369 34.6398 28.5042 34.2838C27.9714 33.9279 27.5562 33.422 27.3111 32.83C27.0659 32.2381 27.0017 31.5867 27.1267 30.9583C27.2517 30.3299 27.5602 29.7527 28.0133 29.2997C28.4663 28.8466 29.0435 28.5381 29.6719 28.4131C30.3003 28.2881 30.9517 28.3522 31.5436 28.5974C32.1356 28.8426 32.6415 29.2578 32.9975 29.7906C33.3534 30.3233 33.5434 30.9496 33.5434 31.5903C33.5424 32.4492 33.2008 33.2726 32.5935 33.8799C31.9862 34.4872 31.1628 34.8288 30.3039 34.8298Z" fill="white" stroke="#3B7CFF" stroke-width="0.75058" stroke-linecap="round" stroke-linejoin="round"/>
<path d="M30.3037 20.4177V23.3115" stroke="#3B7CFF" stroke-width="0.75058" stroke-linecap="round" stroke-linejoin="round"/>
<path d="M28.1443 38.0689H15.8457V17.4702H27.681" stroke="#3B7CFF" stroke-width="0.75058" stroke-linecap="round" stroke-linejoin="round"/>
<path d="M17.3462 17.4708V16.0596H31.8401V23.8749" stroke="#3B7CFF" stroke-width="0.75058" stroke-linecap="round" stroke-linejoin="round"/>
<path d="M30.3041 20.418L27.6812 17.5171V20.418H30.3041Z" stroke="#3B7CFF" stroke-width="0.75058" stroke-linecap="round" stroke-linejoin="round"/>
<path d="M30.0654 33.0119C29.9478 33.0119 29.9051 32.9193 29.8481 32.8551C29.6236 32.595 29.4026 32.3312 29.1817 32.0675C29.0783 31.9463 29.0819 31.8466 29.1817 31.786C29.2814 31.7254 29.342 31.786 29.399 31.8537L29.9693 32.5237C30.0263 32.6377 30.0762 32.5807 30.1368 32.5237L31.3983 31.3583L31.7119 31.0803C31.7326 31.0686 31.7555 31.0616 31.7792 31.0598C31.8029 31.058 31.8267 31.0615 31.8489 31.07C31.871 31.0785 31.891 31.0919 31.9074 31.1091C31.9238 31.1263 31.9361 31.1469 31.9435 31.1694C31.9792 31.3084 31.8687 31.3583 31.7975 31.426L30.5466 32.5771L30.1082 32.9727C30.0987 32.9902 30.0836 33.004 30.0654 33.0119Z" stroke="#3B7CFF" stroke-width="0.75058" stroke-linecap="round" stroke-linejoin="round"/>
<path d="M60.6658 33.9342V26.8622H69.9218C70.0518 26.4982 70.0518 26.1602 69.9218 25.7962H60.6658V19.1662H70.6758C70.8058 18.8022 70.8058 18.4642 70.6758 18.1002H59.4438V35.0002H70.6758C70.8058 34.6622 70.8058 34.2982 70.6758 33.9342H60.6658Z" fill="#3B7CFF"/>
<path d="M75.6717 33.9342V18.1002C75.2557 17.9442 74.8397 17.9442 74.4497 18.1002V35.0002H85.3177C85.4477 34.6622 85.4477 34.2982 85.3177 33.9342H75.6717Z" fill="#3B7CFF"/>
<path d="M90.0682 33.9342V26.8622H99.3242C99.4542 26.4982 99.4542 26.1602 99.3242 25.7962H90.0682V19.1662H100.078C100.208 18.8022 100.208 18.4642 100.078 18.1002H88.8462V35.0002H100.078C100.208 34.6622 100.208 34.2982 100.078 33.9342H90.0682Z" fill="#3B7CFF"/>
<path d="M112.172 34.3242C109.936 34.3242 108.09 33.5962 106.634 32.0882C105.178 30.6062 104.45 28.7602 104.45 26.5502C104.45 24.3662 105.178 22.5202 106.634 21.0122C108.09 19.5302 109.936 18.7762 112.172 18.7762C114.356 18.7762 116.254 19.4002 117.866 20.5962C117.918 20.5182 117.97 20.3102 117.97 19.9982C117.97 19.6862 117.918 19.4782 117.866 19.3742C116.332 18.2822 114.434 17.7102 112.146 17.7102C109.52 17.7102 107.362 18.5682 105.698 20.2842C104.034 22.0002 103.202 24.0802 103.202 26.5502C103.202 29.0462 104.034 31.1262 105.698 32.8422C107.362 34.5582 109.52 35.3902 112.146 35.3902C114.434 35.3902 116.332 34.8442 117.866 33.7262C117.918 33.6482 117.97 33.4402 117.97 33.1282C117.97 32.8162 117.918 32.6082 117.866 32.5042C116.254 33.7262 114.356 34.3242 112.172 34.3242Z" fill="#3B7CFF"/>
<path d="M121.391 18.1002C121.235 18.4642 121.235 18.8022 121.391 19.1662H127.267V35.0002C127.683 35.1822 128.099 35.1822 128.515 35.0002V19.1662H134.417C134.521 18.8022 134.521 18.4642 134.417 18.1002H121.391Z" fill="#3B7CFF"/>
<path d="M137.952 18.1002V35.0002C138.368 35.1822 138.758 35.1822 139.174 35.0002V28.6562H144.244L149.106 35.0002C149.262 35.0782 149.496 35.1042 149.808 35.1042C150.12 35.1042 150.354 35.0782 150.536 35.0002L145.544 28.5002C147.052 28.2662 148.222 27.6682 149.002 26.7322C149.782 25.7962 150.172 24.6782 150.172 23.3782C150.172 21.8702 149.626 20.6222 148.586 19.6082C147.52 18.6202 145.986 18.1002 144.01 18.1002H137.952ZM139.2 19.1662H144.036C145.648 19.1662 146.87 19.5822 147.702 20.3622C148.508 21.1682 148.924 22.1822 148.924 23.3782C148.924 24.6002 148.508 25.6142 147.702 26.3942C146.87 27.2002 145.648 27.5902 144.036 27.5902H139.2V19.1662Z" fill="#3B7CFF"/>
<path d="M162.34 17.7102C159.766 17.7102 157.66 18.5682 155.996 20.2842C154.332 22.0002 153.526 24.0802 153.526 26.5502C153.526 29.0462 154.332 31.1262 155.996 32.8422C157.66 34.5582 159.766 35.3902 162.34 35.3902C164.888 35.3902 167.02 34.5582 168.684 32.8422C170.348 31.1262 171.18 29.0462 171.18 26.5502C171.18 24.0802 170.348 22.0002 168.684 20.2842C167.02 18.5682 164.888 17.7102 162.34 17.7102ZM162.34 18.7762C164.524 18.7762 166.344 19.5302 167.774 21.0122C169.204 22.4942 169.932 24.3402 169.932 26.5502C169.932 28.7862 169.204 30.6322 167.774 32.1142C166.344 33.5962 164.524 34.3242 162.34 34.3242C160.156 34.3242 158.336 33.5962 156.906 32.1142C155.476 30.6322 154.774 28.7862 154.774 26.5502C154.774 24.3402 155.476 22.4942 156.906 21.0122C158.336 19.5302 160.156 18.7762 162.34 18.7762Z" fill="#3B7CFF"/>
<path d="M175.428 18.1002V35.0002H180.81C183.644 35.0002 185.828 34.1942 187.388 32.5822C188.948 30.9702 189.728 28.9682 189.728 26.5502C189.728 24.1582 188.948 22.1302 187.388 20.5182C185.828 18.9062 183.644 18.1002 180.81 18.1002H175.428ZM176.676 33.9342V19.1662H180.81C183.28 19.1662 185.178 19.8682 186.504 21.2462C187.83 22.6502 188.506 24.4182 188.506 26.5502C188.506 28.7082 187.83 30.4762 186.504 31.8542C185.178 33.2582 183.28 33.9342 180.81 33.9342H176.676Z" fill="#3B7CFF"/>
<path d="M202.127 17.7102C199.553 17.7102 197.447 18.5682 195.783 20.2842C194.119 22.0002 193.313 24.0802 193.313 26.5502C193.313 29.0462 194.119 31.1262 195.783 32.8422C197.447 34.5582 199.553 35.3902 202.127 35.3902C204.675 35.3902 206.807 34.5582 208.471 32.8422C210.135 31.1262 210.967 29.0462 210.967 26.5502C210.967 24.0802 210.135 22.0002 208.471 20.2842C206.807 18.5682 204.675 17.7102 202.127 17.7102ZM202.127 18.7762C204.311 18.7762 206.131 19.5302 207.561 21.0122C208.991 22.4942 209.719 24.3402 209.719 26.5502C209.719 28.7862 208.991 30.6322 207.561 32.1142C206.131 33.5962 204.311 34.3242 202.127 34.3242C199.943 34.3242 198.123 33.5962 196.693 32.1142C195.263 30.6322 194.561 28.7862 194.561 26.5502C194.561 24.3402 195.263 22.4942 196.693 21.0122C198.123 19.5302 199.943 18.7762 202.127 18.7762Z" fill="#3B7CFF"/>
<path d="M226.133 18.1002V35.0002H231.515C234.349 35.0002 236.533 34.1942 238.093 32.5822C239.653 30.9702 240.433 28.9682 240.433 26.5502C240.433 24.1582 239.653 22.1302 238.093 20.5182C236.533 18.9062 234.349 18.1002 231.515 18.1002H226.133ZM227.381 33.9342V19.1662H231.515C233.985 19.1662 235.883 19.8682 237.209 21.2462C238.535 22.6502 239.211 24.4182 239.211 26.5502C239.211 28.7082 238.535 30.4762 237.209 31.8542C235.883 33.2582 233.985 33.9342 231.515 33.9342H227.381Z" fill="#3B7CFF"/>
<path d="M252.832 17.7102C250.258 17.7102 248.152 18.5682 246.488 20.2842C244.824 22.0002 244.018 24.0802 244.018 26.5502C244.018 29.0462 244.824 31.1262 246.488 32.8422C248.152 34.5582 250.258 35.3902 252.832 35.3902C255.38 35.3902 257.512 34.5582 259.176 32.8422C260.84 31.1262 261.672 29.0462 261.672 26.5502C261.672 24.0802 260.84 22.0002 259.176 20.2842C257.512 18.5682 255.38 17.7102 252.832 17.7102ZM252.832 18.7762C255.016 18.7762 256.836 19.5302 258.266 21.0122C259.696 22.4942 260.424 24.3402 260.424 26.5502C260.424 28.7862 259.696 30.6322 258.266 32.1142C256.836 33.5962 255.016 34.3242 252.832 34.3242C250.648 34.3242 248.828 33.5962 247.398 32.1142C245.968 30.6322 245.266 28.7862 245.266 26.5502C245.266 24.3402 245.968 22.4942 247.398 21.0122C248.828 19.5302 250.648 18.7762 252.832 18.7762Z" fill="#3B7CFF"/>
<path d="M274.24 34.3242C272.004 34.3242 270.158 33.5962 268.702 32.0882C267.246 30.6062 266.518 28.7602 266.518 26.5502C266.518 24.3662 267.246 22.5202 268.702 21.0122C270.158 19.5302 272.004 18.7762 274.24 18.7762C276.424 18.7762 278.322 19.4002 279.934 20.5962C279.986 20.5182 280.038 20.3102 280.038 19.9982C280.038 19.6862 279.986 19.4782 279.934 19.3742C278.4 18.2822 276.502 17.7102 274.214 17.7102C271.588 17.7102 269.43 18.5682 267.766 20.2842C266.102 22.0002 265.27 24.0802 265.27 26.5502C265.27 29.0462 266.102 31.1262 267.766 32.8422C269.43 34.5582 271.588 35.3902 274.214 35.3902C276.502 35.3902 278.4 34.8442 279.934 33.7262C279.986 33.6482 280.038 33.4402 280.038 33.1282C280.038 32.8162 279.986 32.6082 279.934 32.5042C278.322 33.7262 276.424 34.3242 274.24 34.3242Z" fill="#3B7CFF"/>
<path d="M60.6658 33.9342V26.8622H69.9218C70.0518 26.4982 70.0518 26.1602 69.9218 25.7962H60.6658V19.1662H70.6758C70.8058 18.8022 70.8058 18.4642 70.6758 18.1002H59.4438V35.0002H70.6758C70.8058 34.6622 70.8058 34.2982 70.6758 33.9342H60.6658Z" stroke="#3B7CFF" stroke-width="0.2" stroke-linejoin="round"/>
<path d="M75.6717 33.9342V18.1002C75.2557 17.9442 74.8397 17.9442 74.4497 18.1002V35.0002H85.3177C85.4477 34.6622 85.4477 34.2982 85.3177 33.9342H75.6717Z" stroke="#3B7CFF" stroke-width="0.2" stroke-linejoin="round"/>
<path d="M90.0682 33.9342V26.8622H99.3242C99.4542 26.4982 99.4542 26.1602 99.3242 25.7962H90.0682V19.1662H100.078C100.208 18.8022 100.208 18.4642 100.078 18.1002H88.8462V35.0002H100.078C100.208 34.6622 100.208 34.2982 100.078 33.9342H90.0682Z" stroke="#3B7CFF" stroke-width="0.2" stroke-linejoin="round"/>
<path d="M112.172 34.3242C109.936 34.3242 108.09 33.5962 106.634 32.0882C105.178 30.6062 104.45 28.7602 104.45 26.5502C104.45 24.3662 105.178 22.5202 106.634 21.0122C108.09 19.5302 109.936 18.7762 112.172 18.7762C114.356 18.7762 116.254 19.4002 117.866 20.5962C117.918 20.5182 117.97 20.3102 117.97 19.9982C117.97 19.6862 117.918 19.4782 117.866 19.3742C116.332 18.2822 114.434 17.7102 112.146 17.7102C109.52 17.7102 107.362 18.5682 105.698 20.2842C104.034 22.0002 103.202 24.0802 103.202 26.5502C103.202 29.0462 104.034 31.1262 105.698 32.8422C107.362 34.5582 109.52 35.3902 112.146 35.3902C114.434 35.3902 116.332 34.8442 117.866 33.7262C117.918 33.6482 117.97 33.4402 117.97 33.1282C117.97 32.8162 117.918 32.6082 117.866 32.5042C116.254 33.7262 114.356 34.3242 112.172 34.3242Z" stroke="#3B7CFF" stroke-width="0.2" stroke-linejoin="round"/>
<path d="M121.391 18.1002C121.235 18.4642 121.235 18.8022 121.391 19.1662H127.267V35.0002C127.683 35.1822 128.099 35.1822 128.515 35.0002V19.1662H134.417C134.521 18.8022 134.521 18.4642 134.417 18.1002H121.391Z" stroke="#3B7CFF" stroke-width="0.2" stroke-linejoin="round"/>
<path d="M137.952 18.1002V35.0002C138.368 35.1822 138.758 35.1822 139.174 35.0002V28.6562H144.244L149.106 35.0002C149.262 35.0782 149.496 35.1042 149.808 35.1042C150.12 35.1042 150.354 35.0782 150.536 35.0002L145.544 28.5002C147.052 28.2662 148.222 27.6682 149.002 26.7322C149.782 25.7962 150.172 24.6782 150.172 23.3782C150.172 21.8702 149.626 20.6222 148.586 19.6082C147.52 18.6202 145.986 18.1002 144.01 18.1002H137.952ZM139.2 19.1662H144.036C145.648 19.1662 146.87 19.5822 147.702 20.3622C148.508 21.1682 148.924 22.1822 148.924 23.3782C148.924 24.6002 148.508 25.6142 147.702 26.3942C146.87 27.2002 145.648 27.5902 144.036 27.5902H139.2V19.1662Z" stroke="#3B7CFF" stroke-width="0.2" stroke-linejoin="round"/>
<path d="M162.34 17.7102C159.766 17.7102 157.66 18.5682 155.996 20.2842C154.332 22.0002 153.526 24.0802 153.526 26.5502C153.526 29.0462 154.332 31.1262 155.996 32.8422C157.66 34.5582 159.766 35.3902 162.34 35.3902C164.888 35.3902 167.02 34.5582 168.684 32.8422C170.348 31.1262 171.18 29.0462 171.18 26.5502C171.18 24.0802 170.348 22.0002 168.684 20.2842C167.02 18.5682 164.888 17.7102 162.34 17.7102ZM162.34 18.7762C164.524 18.7762 166.344 19.5302 167.774 21.0122C169.204 22.4942 169.932 24.3402 169.932 26.5502C169.932 28.7862 169.204 30.6322 167.774 32.1142C166.344 33.5962 164.524 34.3242 162.34 34.3242C160.156 34.3242 158.336 33.5962 156.906 32.1142C155.476 30.6322 154.774 28.7862 154.774 26.5502C154.774 24.3402 155.476 22.4942 156.906 21.0122C158.336 19.5302 160.156 18.7762 162.34 18.7762Z" stroke="#3B7CFF" stroke-width="0.2" stroke-linejoin="round"/>
<path d="M175.428 18.1002V35.0002H180.81C183.644 35.0002 185.828 34.1942 187.388 32.5822C188.948 30.9702 189.728 28.9682 189.728 26.5502C189.728 24.1582 188.948 22.1302 187.388 20.5182C185.828 18.9062 183.644 18.1002 180.81 18.1002H175.428ZM176.676 33.9342V19.1662H180.81C183.28 19.1662 185.178 19.8682 186.504 21.2462C187.83 22.6502 188.506 24.4182 188.506 26.5502C188.506 28.7082 187.83 30.4762 186.504 31.8542C185.178 33.2582 183.28 33.9342 180.81 33.9342H176.676Z" stroke="#3B7CFF" stroke-width="0.2" stroke-linejoin="round"/>
<path d="M202.127 17.7102C199.553 17.7102 197.447 18.5682 195.783 20.2842C194.119 22.0002 193.313 24.0802 193.313 26.5502C193.313 29.0462 194.119 31.1262 195.783 32.8422C197.447 34.5582 199.553 35.3902 202.127 35.3902C204.675 35.3902 206.807 34.5582 208.471 32.8422C210.135 31.1262 210.967 29.0462 210.967 26.5502C210.967 24.0802 210.135 22.0002 208.471 20.2842C206.807 18.5682 204.675 17.7102 202.127 17.7102ZM202.127 18.7762C204.311 18.7762 206.131 19.5302 207.561 21.0122C208.991 22.4942 209.719 24.3402 209.719 26.5502C209.719 28.7862 208.991 30.6322 207.561 32.1142C206.131 33.5962 204.311 34.3242 202.127 34.3242C199.943 34.3242 198.123 33.5962 196.693 32.1142C195.263 30.6322 194.561 28.7862 194.561 26.5502C194.561 24.3402 195.263 22.4942 196.693 21.0122C198.123 19.5302 199.943 18.7762 202.127 18.7762Z" stroke="#3B7CFF" stroke-width="0.2" stroke-linejoin="round"/>
<path d="M226.133 18.1002V35.0002H231.515C234.349 35.0002 236.533 34.1942 238.093 32.5822C239.653 30.9702 240.433 28.9682 240.433 26.5502C240.433 24.1582 239.653 22.1302 238.093 20.5182C236.533 18.9062 234.349 18.1002 231.515 18.1002H226.133ZM227.381 33.9342V19.1662H231.515C233.985 19.1662 235.883 19.8682 237.209 21.2462C238.535 22.6502 239.211 24.4182 239.211 26.5502C239.211 28.7082 238.535 30.4762 237.209 31.8542C235.883 33.2582 233.985 33.9342 231.515 33.9342H227.381Z" stroke="#3B7CFF" stroke-width="0.2" stroke-linejoin="round"/>
<path d="M252.832 17.7102C250.258 17.7102 248.152 18.5682 246.488 20.2842C244.824 22.0002 244.018 24.0802 244.018 26.5502C244.018 29.0462 244.824 31.1262 246.488 32.8422C248.152 34.5582 250.258 35.3902 252.832 35.3902C255.38 35.3902 257.512 34.5582 259.176 32.8422C260.84 31.1262 261.672 29.0462 261.672 26.5502C261.672 24.0802 260.84 22.0002 259.176 20.2842C257.512 18.5682 255.38 17.7102 252.832 17.7102ZM252.832 18.7762C255.016 18.7762 256.836 19.5302 258.266 21.0122C259.696 22.4942 260.424 24.3402 260.424 26.5502C260.424 28.7862 259.696 30.6322 258.266 32.1142C256.836 33.5962 255.016 34.3242 252.832 34.3242C250.648 34.3242 248.828 33.5962 247.398 32.1142C245.968 30.6322 245.266 28.7862 245.266 26.5502C245.266 24.3402 245.968 22.4942 247.398 21.0122C248.828 19.5302 250.648 18.7762 252.832 18.7762Z" stroke="#3B7CFF" stroke-width="0.2" stroke-linejoin="round"/>
<path d="M274.24 34.3242C272.004 34.3242 270.158 33.5962 268.702 32.0882C267.246 30.6062 266.518 28.7602 266.518 26.5502C266.518 24.3662 267.246 22.5202 268.702 21.0122C270.158 19.5302 272.004 18.7762 274.24 18.7762C276.424 18.7762 278.322 19.4002 279.934 20.5962C279.986 20.5182 280.038 20.3102 280.038 19.9982C280.038 19.6862 279.986 19.4782 279.934 19.3742C278.4 18.2822 276.502 17.7102 274.214 17.7102C271.588 17.7102 269.43 18.5682 267.766 20.2842C266.102 22.0002 265.27 24.0802 265.27 26.5502C265.27 29.0462 266.102 31.1262 267.766 32.8422C269.43 34.5582 271.588 35.3902 274.214 35.3902C276.502 35.3902 278.4 34.8442 279.934 33.7262C279.986 33.6482 280.038 33.4402 280.038 33.1282C280.038 32.8162 279.986 32.6082 279.934 32.5042C278.322 33.7262 276.424 34.3242 274.24 34.3242Z" stroke="#3B7CFF" stroke-width="0.2" stroke-linejoin="round"/>
<defs>
<linearGradient id="paint0_linear" x1="22.297" y1="48.964" x2="27.6617" y2="52.2152" gradientUnits="userSpaceOnUse">
<stop stop-color="#4BE4C0"/>
<stop offset="0.334733" stop-color="#75EEE2"/>
<stop offset="1" stop-color="#8980F3"/>
</linearGradient>
<linearGradient id="paint1_linear" x1="22.3042" y1="1.95785" x2="27.6467" y2="5.19234" gradientUnits="userSpaceOnUse">
<stop stop-color="#4BE4C0"/>
<stop offset="0.334733" stop-color="#75EEE2"/>
<stop offset="1" stop-color="#8980F3"/>
</linearGradient>
<linearGradient id="paint2_linear" x1="42.5044" y1="37.2384" x2="47.846" y2="40.4686" gradientUnits="userSpaceOnUse">
<stop stop-color="#4BE4C0"/>
<stop offset="0.334733" stop-color="#75EEE2"/>
<stop offset="1" stop-color="#8980F3"/>
</linearGradient>
<linearGradient id="paint3_linear" x1="1.93841" y1="13.7867" x2="7.28162" y2="17.0228" gradientUnits="userSpaceOnUse">
<stop stop-color="#4BE4C0"/>
<stop offset="0.334733" stop-color="#75EEE2"/>
<stop offset="1" stop-color="#8980F3"/>
</linearGradient>
<linearGradient id="paint4_linear" x1="42.665" y1="13.7857" x2="48.0079" y2="17.0205" gradientUnits="userSpaceOnUse">
<stop stop-color="#4BE4C0"/>
<stop offset="0.334733" stop-color="#75EEE2"/>
<stop offset="1" stop-color="#8980F3"/>
</linearGradient>
<linearGradient id="paint5_linear" x1="1.92331" y1="37.2418" x2="7.2641" y2="40.4768" gradientUnits="userSpaceOnUse">
<stop stop-color="#4BE4C0"/>
<stop offset="0.334733" stop-color="#75EEE2"/>
<stop offset="1" stop-color="#8980F3"/>
</linearGradient>
<linearGradient id="paint6_linear" x1="24.6974" y1="24.2448" x2="41.066" y2="32.0708" gradientUnits="userSpaceOnUse">
<stop stop-color="#4BE4C0"/>
<stop offset="0.334733" stop-color="#75EEE2"/>
<stop offset="1" stop-color="#8980F3"/>
</linearGradient>
</defs>
</svg>
