<svg width="360" height="70" viewBox="0 0 360 70" fill="none" xmlns="http://www.w3.org/2000/svg">
<path d="M187.133 44.7835C188.089 44.7826 189.014 44.4514 189.752 43.8464C190.491 43.2415 190.995 42.4001 191.181 41.4656C191.367 40.5312 191.222 39.5614 190.771 38.7215C190.32 37.8816 189.591 37.2236 188.708 36.8594C187.825 36.4953 186.843 36.4475 185.929 36.7243C185.014 37.0012 184.225 37.5854 183.694 38.3776C183.163 39.1698 182.924 40.1209 183.018 41.0689C183.112 42.017 183.532 42.9033 184.208 43.577C184.984 44.3492 186.036 44.7831 187.133 44.7835Z" fill="white"/>
<path d="M153.526 20.4537V50.3895L179.522 65.3573L205.513 50.3895V20.4537L179.522 5.48584L153.526 20.4537Z" stroke="#3B7CFF" stroke-width="1.55008" stroke-linecap="round" stroke-linejoin="round"/>
<path d="M179.522 67.8339C180.016 67.8343 180.5 67.6874 180.91 67.4121C181.326 67.139 181.651 66.7482 181.844 66.2896C182.036 65.831 182.086 65.3257 181.989 64.8383C181.891 64.351 181.649 63.9039 181.295 63.5543C180.941 63.2047 180.49 62.9687 180 62.8764C179.514 62.7769 179.01 62.826 178.553 63.017C178.098 63.2039 177.707 63.5192 177.429 63.9241C177.178 64.2999 177.034 64.7366 177.012 65.1877C176.99 65.6388 177.092 66.0873 177.306 66.4854C177.52 66.8835 177.838 67.2163 178.227 67.4482C178.615 67.6801 179.06 67.8024 179.513 67.8021L179.522 67.8339Z" stroke="#3B7CFF" stroke-width="3.45164" stroke-linecap="round" stroke-linejoin="round"/>
<path d="M179.522 67.8339C180.016 67.8343 180.5 67.6874 180.91 67.4121C181.326 67.139 181.651 66.7482 181.844 66.2896C182.036 65.831 182.086 65.3257 181.989 64.8383C181.891 64.351 181.649 63.9039 181.295 63.5543C180.941 63.2047 180.49 62.9687 180 62.8764C179.514 62.7769 179.01 62.826 178.553 63.017C178.098 63.2039 177.707 63.5192 177.429 63.9241C177.178 64.2999 177.034 64.7366 177.012 65.1877C176.99 65.6388 177.092 66.0873 177.306 66.4854C177.52 66.8835 177.838 67.2163 178.227 67.4482C178.615 67.6801 179.06 67.8024 179.513 67.8021L179.522 67.8339Z" fill="#C4C4C4"/>
<path d="M179.522 67.8339C180.016 67.8343 180.5 67.6874 180.91 67.4121C181.326 67.139 181.651 66.7482 181.844 66.2896C182.036 65.831 182.086 65.3257 181.989 64.8383C181.891 64.351 181.649 63.9039 181.295 63.5543C180.941 63.2047 180.49 62.9687 180 62.8764C179.514 62.7769 179.01 62.826 178.553 63.017C178.098 63.2039 177.707 63.5192 177.429 63.9241C177.178 64.2999 177.034 64.7366 177.012 65.1877C176.99 65.6388 177.092 66.0873 177.306 66.4854C177.52 66.8835 177.838 67.2163 178.227 67.4482C178.615 67.6801 179.06 67.8024 179.513 67.8021L179.522 67.8339Z" fill="url(#paint0_linear)"/>
<path d="M179.522 7.9893C180.101 7.98911 180.661 7.7888 181.109 7.42253C181.556 7.05625 181.862 6.54666 181.975 5.98057C182.088 5.41449 182 4.82694 181.727 4.31803C181.454 3.80912 181.013 3.41034 180.478 3.18963C179.943 2.96892 179.348 2.93993 178.794 3.10761C178.24 3.2753 177.761 3.62927 177.44 4.10923C177.118 4.58918 176.974 5.16543 177.031 5.73978C177.088 6.31412 177.342 6.85104 177.752 7.25904C178.222 7.72556 178.858 7.98803 179.522 7.9893V7.9893Z" stroke="#3B7CFF" stroke-width="3.45164" stroke-linecap="round" stroke-linejoin="round"/>
<path d="M179.522 7.9893C180.101 7.98911 180.661 7.7888 181.109 7.42253C181.556 7.05625 181.862 6.54666 181.975 5.98057C182.088 5.41449 182 4.82694 181.727 4.31803C181.454 3.80912 181.013 3.41034 180.478 3.18963C179.943 2.96892 179.348 2.93993 178.794 3.10761C178.24 3.2753 177.761 3.62927 177.44 4.10923C177.118 4.58918 176.974 5.16543 177.031 5.73978C177.088 6.31412 177.342 6.85104 177.752 7.25904C178.222 7.72556 178.858 7.98803 179.522 7.9893Z" fill="#C4C4C4"/>
<path d="M179.522 7.9893C180.101 7.98911 180.661 7.7888 181.109 7.42253C181.556 7.05625 181.862 6.54666 181.975 5.98057C182.088 5.41449 182 4.82694 181.727 4.31803C181.454 3.80912 181.013 3.41034 180.478 3.18963C179.943 2.96892 179.348 2.93993 178.794 3.10761C178.24 3.2753 177.761 3.62927 177.44 4.10923C177.118 4.58918 176.974 5.16543 177.031 5.73978C177.088 6.31412 177.342 6.85104 177.752 7.25904C178.222 7.72556 178.858 7.98803 179.522 7.9893Z" fill="url(#paint1_linear)"/>
<path d="M205.304 52.8935C205.799 52.896 206.284 52.751 206.696 52.477C207.107 52.203 207.428 51.8126 207.615 51.3559C207.805 50.8997 207.855 50.3978 207.758 49.9134C207.662 49.4291 207.424 48.9841 207.074 48.6345C206.724 48.2843 206.277 48.0459 205.791 47.9496C205.307 47.855 204.805 47.9039 204.349 48.0902C203.815 48.3112 203.374 48.71 203.101 49.2186C202.828 49.7273 202.741 50.3144 202.854 50.88C202.966 51.4457 203.272 51.955 203.719 52.3213C204.166 52.6875 204.726 52.8882 205.304 52.889V52.8935Z" stroke="#3B7CFF" stroke-width="3.45164" stroke-linecap="round" stroke-linejoin="round"/>
<path d="M205.304 52.8935C205.799 52.896 206.284 52.751 206.696 52.477C207.107 52.203 207.428 51.8126 207.615 51.3559C207.805 50.8997 207.855 50.3978 207.758 49.9134C207.662 49.4291 207.424 48.9841 207.074 48.6345C206.724 48.2843 206.277 48.0459 205.791 47.9496C205.307 47.855 204.805 47.9039 204.349 48.0902C203.815 48.3112 203.374 48.71 203.101 49.2186C202.828 49.7273 202.741 50.3144 202.854 50.88C202.966 51.4457 203.272 51.955 203.719 52.3213C204.166 52.6875 204.726 52.8882 205.304 52.889V52.8935Z" fill="#C4C4C4"/>
<path d="M205.304 52.8935C205.799 52.896 206.284 52.751 206.696 52.477C207.107 52.203 207.428 51.8126 207.615 51.3559C207.805 50.8997 207.855 50.3978 207.758 49.9134C207.662 49.4291 207.424 48.9841 207.074 48.6345C206.724 48.2843 206.277 48.0459 205.791 47.9496C205.307 47.855 204.805 47.9039 204.349 48.0902C203.815 48.3112 203.374 48.71 203.101 49.2186C202.828 49.7273 202.741 50.3144 202.854 50.88C202.966 51.4457 203.272 51.955 203.719 52.3213C204.166 52.6875 204.726 52.8882 205.304 52.889V52.8935Z" fill="url(#paint2_linear)"/>
<path d="M153.526 23.0439C154.021 23.0424 154.504 22.8953 154.915 22.6209C155.326 22.3465 155.647 21.9572 155.837 21.5018C156.024 21.0465 156.073 20.5467 155.978 20.064C155.881 19.5791 155.642 19.1338 155.291 18.7849C154.94 18.4361 154.494 18.1987 154.008 18.1027C153.522 18.0066 153.019 18.0562 152.561 18.2451C152.103 18.4322 151.712 18.7516 151.437 19.1621C151.162 19.5727 151.017 20.0557 151.019 20.5493C151.019 21.2109 151.283 21.8454 151.752 22.3133C152.221 22.7811 152.858 23.0439 153.521 23.0439H153.526Z" stroke="#3B7CFF" stroke-width="3.45164" stroke-linecap="round" stroke-linejoin="round"/>
<path d="M153.526 23.0439C154.021 23.0424 154.504 22.8953 154.915 22.6209C155.326 22.3465 155.647 21.9572 155.837 21.5018C156.024 21.0465 156.073 20.5467 155.978 20.064C155.881 19.5791 155.642 19.1338 155.291 18.7849C154.94 18.4361 154.494 18.1987 154.008 18.1027C153.522 18.0066 153.019 18.0562 152.561 18.2451C152.103 18.4322 151.712 18.7516 151.437 19.1621C151.162 19.5727 151.017 20.0557 151.019 20.5493C151.019 21.2109 151.283 21.8454 151.752 22.3133C152.221 22.7811 152.858 23.0439 153.521 23.0439H153.526Z" fill="#C4C4C4"/>
<path d="M153.526 23.0439C154.021 23.0424 154.504 22.8953 154.915 22.6209C155.326 22.3465 155.647 21.9572 155.837 21.5018C156.024 21.0465 156.073 20.5467 155.978 20.064C155.881 19.5791 155.642 19.1338 155.291 18.7849C154.94 18.4361 154.494 18.1987 154.008 18.1027C153.522 18.0066 153.019 18.0562 152.561 18.2451C152.103 18.4322 151.712 18.7516 151.437 19.1621C151.162 19.5727 151.017 20.0557 151.019 20.5493C151.019 21.2109 151.283 21.8454 151.752 22.3133C152.221 22.7811 152.858 23.0439 153.521 23.0439H153.526Z" fill="url(#paint3_linear)"/>
<path d="M205.513 23.0433C205.883 23.042 206.247 22.9594 206.581 22.8015C206.915 22.6435 207.21 22.414 207.444 22.1294C207.679 21.8447 207.848 21.512 207.939 21.1549C208.029 20.7977 208.04 20.425 207.97 20.0633C207.871 19.5791 207.633 19.1343 207.283 18.7843C206.934 18.4363 206.489 18.1995 206.004 18.1039C205.519 18.0045 205.015 18.0535 204.558 18.2445C204.1 18.4324 203.708 18.7518 203.433 19.1621C203.157 19.5724 203.01 20.055 203.011 20.5487C203.012 21.2099 203.276 21.8437 203.745 22.3113C204.214 22.7789 204.85 23.0421 205.513 23.0433V23.0433Z" stroke="#3B7CFF" stroke-width="3.45164" stroke-linecap="round" stroke-linejoin="round"/>
<path d="M205.513 23.0433C205.883 23.042 206.247 22.9594 206.581 22.8015C206.915 22.6435 207.21 22.414 207.444 22.1294C207.679 21.8447 207.848 21.512 207.939 21.1549C208.029 20.7977 208.04 20.425 207.97 20.0633C207.871 19.5791 207.633 19.1343 207.283 18.7843C206.934 18.4363 206.489 18.1995 206.004 18.1039C205.519 18.0045 205.015 18.0535 204.558 18.2445C204.1 18.4324 203.708 18.7518 203.433 19.1621C203.157 19.5724 203.01 20.055 203.011 20.5487C203.012 21.2099 203.276 21.8437 203.745 22.3113C204.214 22.7789 204.85 23.0421 205.513 23.0433Z" fill="#C4C4C4"/>
<path d="M205.513 23.0433C205.883 23.042 206.247 22.9594 206.581 22.8015C206.915 22.6435 207.21 22.414 207.444 22.1294C207.679 21.8447 207.848 21.512 207.939 21.1549C208.029 20.7977 208.04 20.425 207.97 20.0633C207.871 19.5791 207.633 19.1343 207.283 18.7843C206.934 18.4363 206.489 18.1995 206.004 18.1039C205.519 18.0045 205.015 18.0535 204.558 18.2445C204.1 18.4324 203.708 18.7518 203.433 19.1621C203.157 19.5724 203.01 20.055 203.011 20.5487C203.012 21.2099 203.276 21.8437 203.745 22.3113C204.214 22.7789 204.85 23.0421 205.513 23.0433Z" fill="url(#paint4_linear)"/>
<path d="M153.526 52.8932C154.012 52.8895 154.486 52.7445 154.891 52.4759C155.303 52.2022 155.624 51.8124 155.814 51.3561C156.004 50.8997 156.053 50.3975 155.955 49.9133C155.862 49.4297 155.624 48.9855 155.273 48.6387C154.923 48.2885 154.476 48.0501 153.99 47.9538C153.504 47.8591 153.001 47.908 152.543 48.0944C152.009 48.3156 151.567 48.7147 151.295 49.2238C151.022 49.7329 150.935 50.3205 151.048 50.8865C151.162 51.4524 151.468 51.9617 151.916 52.3276C152.363 52.6936 152.924 52.8934 153.503 52.8932H153.526Z" stroke="#3B7CFF" stroke-width="3.45164" stroke-linecap="round" stroke-linejoin="round"/>
<path d="M153.526 52.8932C154.012 52.8895 154.486 52.7445 154.891 52.4759C155.303 52.2022 155.624 51.8124 155.814 51.3561C156.004 50.8997 156.053 50.3975 155.955 49.9133C155.862 49.4297 155.624 48.9855 155.273 48.6387C154.923 48.2885 154.476 48.0501 153.99 47.9538C153.504 47.8591 153.001 47.908 152.543 48.0944C152.009 48.3156 151.567 48.7147 151.295 49.2238C151.022 49.7329 150.935 50.3205 151.048 50.8865C151.162 51.4524 151.468 51.9617 151.916 52.3276C152.363 52.6936 152.924 52.8934 153.503 52.8932H153.526Z" fill="#C4C4C4"/>
<path d="M153.526 52.8932C154.012 52.8895 154.486 52.7445 154.891 52.4759C155.303 52.2022 155.624 51.8124 155.814 51.3561C156.004 50.8997 156.053 50.3975 155.955 49.9133C155.862 49.4297 155.624 48.9855 155.273 48.6387C154.923 48.2885 154.476 48.0501 153.99 47.9538C153.504 47.8591 153.001 47.908 152.543 48.0944C152.009 48.3156 151.567 48.7147 151.295 49.2238C151.022 49.7329 150.935 50.3205 151.048 50.8865C151.162 51.4524 151.468 51.9617 151.916 52.3276C152.363 52.6936 152.924 52.8934 153.503 52.8932H153.526Z" fill="url(#paint5_linear)"/>
<path d="M178.999 45.4232H171.651M181.192 27.0127H173.567H181.192ZM184.031 29.8158H171.651H184.031ZM184.031 31.8931H171.651H184.031ZM178.999 34.6962H171.651H178.999ZM178.999 37.0139H171.651H178.999ZM178.999 39.817H171.651H178.999ZM178.999 42.6201H171.651H178.999Z" stroke="#3B7CFF" stroke-width="0.955283" stroke-linecap="round" stroke-linejoin="round"/>
<path d="M193.566 34.2466H192.874C191.864 34.248 190.865 34.0272 189.95 33.5999C189.035 33.1726 188.225 32.5494 187.579 31.7746L187.483 31.6657C187.441 31.6135 187.387 31.5715 187.326 31.5426C187.265 31.5138 187.198 31.4988 187.131 31.4988C187.063 31.4988 186.997 31.5138 186.936 31.5426C186.875 31.5715 186.821 31.6135 186.778 31.6657L186.687 31.7746C186.041 32.5489 185.231 33.1718 184.316 33.599C183.401 34.0263 182.402 34.2473 181.392 34.2466H180.7C180.579 34.2466 180.464 34.2943 180.378 34.3794C180.293 34.4644 180.245 34.5798 180.245 34.7001V42.1206C180.246 43.0086 180.481 43.8807 180.928 44.6491C181.374 45.4176 182.016 46.0551 182.788 46.4975L186.91 48.8425C186.979 48.8817 187.058 48.902 187.138 48.9015C187.217 48.902 187.296 48.8817 187.365 48.8425L191.482 46.4975C192.255 46.0553 192.898 45.418 193.345 44.6496C193.792 43.8812 194.028 43.0089 194.03 42.1206V34.7046C194.031 34.6439 194.019 34.5837 193.996 34.5275C193.973 34.4714 193.939 34.4204 193.895 34.3777C193.852 34.335 193.801 34.3014 193.744 34.2788C193.687 34.2563 193.627 34.2453 193.566 34.2466Z" fill="#C4C4C4"/>
<path d="M193.566 34.2466H192.874C191.864 34.248 190.865 34.0272 189.95 33.5999C189.035 33.1726 188.225 32.5494 187.579 31.7746L187.483 31.6657C187.441 31.6135 187.387 31.5715 187.326 31.5426C187.265 31.5138 187.198 31.4988 187.131 31.4988C187.063 31.4988 186.997 31.5138 186.936 31.5426C186.875 31.5715 186.821 31.6135 186.778 31.6657L186.687 31.7746C186.041 32.5489 185.231 33.1718 184.316 33.599C183.401 34.0263 182.402 34.2473 181.392 34.2466H180.7C180.579 34.2466 180.464 34.2943 180.378 34.3794C180.293 34.4644 180.245 34.5798 180.245 34.7001V42.1206C180.246 43.0086 180.481 43.8807 180.928 44.6491C181.374 45.4176 182.016 46.0551 182.788 46.4975L186.91 48.8425C186.979 48.8817 187.058 48.902 187.138 48.9015C187.217 48.902 187.296 48.8817 187.365 48.8425L191.482 46.4975C192.255 46.0553 192.898 45.418 193.345 44.6496C193.792 43.8812 194.028 43.0089 194.03 42.1206V34.7046C194.031 34.6439 194.019 34.5837 193.996 34.5275C193.973 34.4714 193.939 34.4204 193.895 34.3777C193.852 34.335 193.801 34.3014 193.744 34.2788C193.687 34.2563 193.627 34.2453 193.566 34.2466Z" fill="url(#paint6_linear)"/>
<path d="M193.566 34.2466H192.874C191.864 34.248 190.865 34.0272 189.95 33.5999C189.035 33.1726 188.225 32.5494 187.579 31.7746L187.483 31.6657C187.441 31.6135 187.387 31.5715 187.326 31.5426C187.265 31.5138 187.198 31.4988 187.131 31.4988C187.063 31.4988 186.997 31.5138 186.936 31.5426C186.875 31.5715 186.821 31.6135 186.778 31.6657L186.687 31.7746C186.041 32.5489 185.231 33.1718 184.316 33.599C183.401 34.0263 182.402 34.2473 181.392 34.2466H180.7C180.579 34.2466 180.464 34.2943 180.378 34.3794C180.293 34.4644 180.245 34.5798 180.245 34.7001V42.1206C180.246 43.0086 180.481 43.8807 180.928 44.6491C181.374 45.4176 182.016 46.0551 182.788 46.4975L186.91 48.8425C186.979 48.8817 187.058 48.902 187.138 48.9015C187.217 48.902 187.296 48.8817 187.365 48.8425L191.482 46.4975C192.255 46.0553 192.898 45.418 193.345 44.6496C193.792 43.8812 194.028 43.0089 194.03 42.1206V34.7046C194.031 34.6439 194.019 34.5837 193.996 34.5275C193.973 34.4714 193.939 34.4204 193.895 34.3777C193.852 34.335 193.801 34.3014 193.744 34.2788C193.687 34.2563 193.627 34.2453 193.566 34.2466V34.2466Z" stroke="#3B7CFF" stroke-width="0.955283" stroke-linecap="round" stroke-linejoin="round"/>
<path d="M187.133 44.7833C186.315 44.7833 185.516 44.5415 184.836 44.0885C184.155 43.6354 183.625 42.9915 183.312 42.2381C182.999 41.4848 182.917 40.6557 183.077 39.856C183.237 39.0562 183.63 38.3216 184.209 37.745C184.787 37.1684 185.524 36.7757 186.326 36.6166C187.128 36.4575 187.96 36.5391 188.716 36.8512C189.471 37.1633 190.117 37.6917 190.572 38.3697C191.026 39.0478 191.269 39.8449 191.269 40.6603C191.267 41.7534 190.831 42.8014 190.056 43.5744C189.281 44.3473 188.23 44.7821 187.133 44.7833Z" fill="white" stroke="#3B7CFF" stroke-width="0.955283" stroke-linecap="round" stroke-linejoin="round"/>
<path d="M187.132 26.4407V30.1237" stroke="#3B7CFF" stroke-width="0.955283" stroke-linecap="round" stroke-linejoin="round"/>
<path d="M184.376 48.9059H168.676V22.6895H183.785" stroke="#3B7CFF" stroke-width="0.955283" stroke-linecap="round" stroke-linejoin="round"/>
<path d="M170.591 22.6902V20.894H189.094V30.8409" stroke="#3B7CFF" stroke-width="0.955283" stroke-linecap="round" stroke-linejoin="round"/>
<path d="M187.133 26.4411L183.785 22.749V26.4411H187.133Z" stroke="#3B7CFF" stroke-width="0.955283" stroke-linecap="round" stroke-linejoin="round"/>
<path d="M186.828 42.4697C186.678 42.4697 186.623 42.3518 186.551 42.2702C186.264 41.9391 185.982 41.6034 185.7 41.2678C185.568 41.1135 185.572 40.9866 185.7 40.9094C185.827 40.8323 185.905 40.9094 185.977 40.9956L186.705 41.8483C186.778 41.9935 186.842 41.9209 186.919 41.8483L188.53 40.3652L188.93 40.0114C188.956 39.9964 188.986 39.9875 189.016 39.9852C189.046 39.9829 189.076 39.9874 189.105 39.9982C189.133 40.0091 189.159 40.026 189.18 40.0479C189.2 40.0698 189.216 40.096 189.226 40.1247C189.271 40.3016 189.13 40.3652 189.039 40.4513L187.442 41.9164L186.883 42.4198C186.871 42.4421 186.851 42.4596 186.828 42.4697Z" stroke="#3B7CFF" stroke-width="0.955283" stroke-linecap="round" stroke-linejoin="round"/>
<defs>
<linearGradient id="paint0_linear" x1="176.911" y1="62.7723" x2="183.748" y2="66.9286" gradientUnits="userSpaceOnUse">
<stop stop-color="#4BE4C0"/>
<stop offset="0.334733" stop-color="#75EEE2"/>
<stop offset="1" stop-color="#8980F3"/>
</linearGradient>
<linearGradient id="paint1_linear" x1="176.921" y1="2.94635" x2="183.73" y2="7.08129" gradientUnits="userSpaceOnUse">
<stop stop-color="#4BE4C0"/>
<stop offset="0.334733" stop-color="#75EEE2"/>
<stop offset="1" stop-color="#8980F3"/>
</linearGradient>
<linearGradient id="paint2_linear" x1="202.708" y1="47.8489" x2="209.516" y2="51.9784" gradientUnits="userSpaceOnUse">
<stop stop-color="#4BE4C0"/>
<stop offset="0.334733" stop-color="#75EEE2"/>
<stop offset="1" stop-color="#8980F3"/>
</linearGradient>
<linearGradient id="paint3_linear" x1="150.921" y1="18.0013" x2="157.731" y2="22.1383" gradientUnits="userSpaceOnUse">
<stop stop-color="#4BE4C0"/>
<stop offset="0.334733" stop-color="#75EEE2"/>
<stop offset="1" stop-color="#8980F3"/>
</linearGradient>
<linearGradient id="paint4_linear" x1="202.913" y1="18.0001" x2="209.722" y2="22.1354" gradientUnits="userSpaceOnUse">
<stop stop-color="#4BE4C0"/>
<stop offset="0.334733" stop-color="#75EEE2"/>
<stop offset="1" stop-color="#8980F3"/>
</linearGradient>
<linearGradient id="paint5_linear" x1="150.902" y1="47.8531" x2="157.709" y2="51.9887" gradientUnits="userSpaceOnUse">
<stop stop-color="#4BE4C0"/>
<stop offset="0.334733" stop-color="#75EEE2"/>
<stop offset="1" stop-color="#8980F3"/>
</linearGradient>
<linearGradient id="paint6_linear" x1="179.975" y1="31.3117" x2="200.848" y2="41.3213" gradientUnits="userSpaceOnUse">
<stop stop-color="#4BE4C0"/>
<stop offset="0.334733" stop-color="#75EEE2"/>
<stop offset="1" stop-color="#8980F3"/>
</linearGradient>
</defs>
</svg>
