<svg width="20" height="18" viewBox="0 0 20 18" fill="none" xmlns="http://www.w3.org/2000/svg">
<path d="M5 13V6.00003C5.94079 7.25471 7.42106 8 9 8H15V13H5Z" stroke="#FFDB6D" stroke-width="10" stroke-linecap="round" stroke-linejoin="round"/>
<path d="M12.9091 16.0455V14.8182C12.9091 13.4626 11.688 12.3636 10.1818 12.3636H4.72727C3.22104 12.3636 2 13.4626 2 14.8182V16.0455" stroke="#8998AC" stroke-width="2" stroke-linecap="round" stroke-linejoin="round"/>
<path fill-rule="evenodd" clip-rule="evenodd" d="M7.45455 9.90909C8.96078 9.90909 10.1818 8.81015 10.1818 7.45455C10.1818 6.09894 8.96078 5 7.45455 5C5.94832 5 4.72728 6.09894 4.72728 7.45455C4.72728 8.81015 5.94832 9.90909 7.45455 9.90909Z" stroke="#8998AC" stroke-width="2" stroke-linecap="round" stroke-linejoin="round"/>
<path d="M17 16.0454V14.8181C16.9991 13.6995 16.158 12.723 14.9545 12.4434" stroke="#8998AC" stroke-width="2" stroke-linecap="round" stroke-linejoin="round"/>
<path d="M12.2273 5.07971C13.434 5.35779 14.2781 6.33643 14.2781 7.45755C14.2781 8.57867 13.434 9.55731 12.2273 9.83539" stroke="#8998AC" stroke-width="2" stroke-linecap="round" stroke-linejoin="round"/>
</svg>
